M48
; DRILL file {KiCad (6.0.11-0)} date Monday, April 24, 2023 at 07:25:08 PM
; FORMAT={-:-/ absolute / inch / decimal}
; #@! TF.CreationDate,2023-04-24T19:25:08-04:00
; #@! TF.GenerationSoftware,Kicad,Pcbnew,(6.0.11-0)
; #@! TF.FileFunction,Plated,1,2,PTH
FMAT,2
INCH
; #@! TA.AperFunction,Plated,PTH,ViaDrill
T1C0.0157
; #@! TA.AperFunction,Plated,PTH,ComponentDrill
T2C0.0394
%
G90
G05
T1
X5.55Y-3.25
X5.575Y-2.7
X5.575Y-3.15
X5.6Y-3.45
X5.65Y-3.45
X5.65Y-3.65
X5.7Y-3.45
X5.734Y-3.554
X5.85Y-3.45
X5.9Y-3.65
X5.925Y-3.325
X5.9331Y-2.7
X5.95Y-3.65
X6.075Y-2.625
X6.225Y-2.975
X6.275Y-2.975
X6.725Y-2.95
X6.725Y-3.325
T2
X5.29Y-3.1502
X5.29Y-3.2502
X5.8394Y-3.8
X5.9394Y-3.8
X6.0394Y-3.8
T0
M30
