%TF.GenerationSoftware,KiCad,Pcbnew,(6.0.11-0)*%
%TF.CreationDate,2023-04-24T09:02:29-04:00*%
%TF.ProjectId,ClickerController,436c6963-6b65-4724-936f-6e74726f6c6c,rev?*%
%TF.SameCoordinates,Original*%
%TF.FileFunction,Copper,L2,Bot*%
%TF.FilePolarity,Positive*%
%FSLAX46Y46*%
G04 Gerber Fmt 4.6, Leading zero omitted, Abs format (unit mm)*
G04 Created by KiCad (PCBNEW (6.0.11-0)) date 2023-04-24 09:02:29*
%MOMM*%
%LPD*%
G01*
G04 APERTURE LIST*
%TA.AperFunction,ComponentPad*%
%ADD10R,1.700000X1.700000*%
%TD*%
%TA.AperFunction,ComponentPad*%
%ADD11O,1.700000X1.700000*%
%TD*%
%TA.AperFunction,ViaPad*%
%ADD12C,0.800000*%
%TD*%
%TA.AperFunction,Conductor*%
%ADD13C,0.250000*%
%TD*%
G04 APERTURE END LIST*
D10*
%TO.P,J2,1,Pin_1*%
%TO.N,SER*%
X156845000Y-92075000D03*
D11*
%TO.P,J2,2,Pin_2*%
%TO.N,RCLK*%
X159385000Y-92075000D03*
%TO.P,J2,3,Pin_3*%
%TO.N,SRCLK*%
X161925000Y-92075000D03*
%TD*%
D10*
%TO.P,J1,1,Pin_1*%
%TO.N,5v*%
X135255000Y-92080000D03*
D11*
%TO.P,J1,2,Pin_2*%
%TO.N,GND*%
X135255000Y-89540000D03*
%TD*%
D12*
%TO.N,GND*%
X142240000Y-87630000D03*
X140970000Y-82550000D03*
X154305000Y-66675000D03*
%TO.N,5v*%
X170815000Y-84455000D03*
X151130000Y-92710000D03*
X143510000Y-92710000D03*
X150700000Y-68580000D03*
%TO.N,Col0*%
X148590000Y-87630000D03*
X141605000Y-80010000D03*
%TO.N,Col3*%
X150495000Y-84455000D03*
X149860000Y-92710000D03*
%TO.N,Sig*%
X141605000Y-68580000D03*
X170815000Y-74930000D03*
%TO.N,Row0*%
X159385000Y-75565000D03*
X143510000Y-87630000D03*
%TO.N,Row1*%
X158115000Y-75565000D03*
X144780000Y-87630000D03*
%TD*%
D13*
%TO.N,Sig*%
X170815000Y-74930000D02*
X168275000Y-77470000D01*
X168275000Y-77470000D02*
X161290000Y-77470000D01*
X161290000Y-77470000D02*
X160655000Y-76835000D01*
X160020000Y-72390000D02*
X145415000Y-72390000D01*
X160655000Y-76835000D02*
X160655000Y-73025000D01*
X160655000Y-73025000D02*
X160020000Y-72390000D01*
X145415000Y-72390000D02*
X141605000Y-68580000D01*
%TO.N,5v*%
X159385000Y-84455000D02*
X151130000Y-92710000D01*
X149860000Y-95250000D02*
X151130000Y-93980000D01*
X170815000Y-84455000D02*
X159385000Y-84455000D01*
X143510000Y-92710000D02*
X146050000Y-95250000D01*
X133985000Y-75174695D02*
X133985000Y-90810000D01*
X146050000Y-95250000D02*
X149860000Y-95250000D01*
X133985000Y-90810000D02*
X135255000Y-92080000D01*
X151130000Y-93980000D02*
X151130000Y-92710000D01*
X141304695Y-67855000D02*
X133985000Y-75174695D01*
X149975000Y-67855000D02*
X141304695Y-67855000D01*
X150700000Y-68580000D02*
X149975000Y-67855000D01*
%TO.N,Col0*%
X140970000Y-80010000D02*
X141605000Y-80010000D01*
X147320000Y-88900000D02*
X139065000Y-88900000D01*
X137795000Y-81280000D02*
X139065000Y-80010000D01*
X139065000Y-88900000D02*
X137795000Y-87630000D01*
X139065000Y-80010000D02*
X140970000Y-80010000D01*
X137795000Y-87630000D02*
X137795000Y-81280000D01*
X148590000Y-87630000D02*
X147320000Y-88900000D01*
%TO.N,Col3*%
X149860000Y-85090000D02*
X150495000Y-84455000D01*
X149860000Y-92710000D02*
X149860000Y-85090000D01*
%TO.N,Row0*%
X155575000Y-74295000D02*
X158750000Y-74295000D01*
X158750000Y-74295000D02*
X159385000Y-74930000D01*
X153670000Y-75565000D02*
X154940000Y-74295000D01*
X143510000Y-87630000D02*
X153670000Y-77470000D01*
X153670000Y-77470000D02*
X153670000Y-75565000D01*
X154940000Y-74295000D02*
X155575000Y-74295000D01*
X159385000Y-74930000D02*
X159385000Y-75565000D01*
%TO.N,Row1*%
X154305000Y-78105000D02*
X157390000Y-78105000D01*
X157390000Y-78105000D02*
X158115000Y-77380000D01*
X158115000Y-77380000D02*
X158115000Y-75565000D01*
X144780000Y-87630000D02*
X154305000Y-78105000D01*
%TD*%
%TA.AperFunction,Conductor*%
%TO.N,GND*%
G36*
X172027121Y-59710002D02*
G01*
X172073614Y-59763658D01*
X172085000Y-59816000D01*
X172085000Y-95759000D01*
X172064998Y-95827121D01*
X172011342Y-95873614D01*
X171959000Y-95885000D01*
X150425094Y-95885000D01*
X150356973Y-95864998D01*
X150310480Y-95811342D01*
X150300376Y-95741068D01*
X150329870Y-95676488D01*
X150335999Y-95669905D01*
X151522247Y-94483657D01*
X151530537Y-94476113D01*
X151537018Y-94472000D01*
X151583659Y-94422332D01*
X151586413Y-94419491D01*
X151606134Y-94399770D01*
X151608612Y-94396575D01*
X151616318Y-94387553D01*
X151641158Y-94361101D01*
X151646586Y-94355321D01*
X151656346Y-94337568D01*
X151667199Y-94321045D01*
X151674753Y-94311306D01*
X151679613Y-94305041D01*
X151697176Y-94264457D01*
X151702383Y-94253827D01*
X151723695Y-94215060D01*
X151725666Y-94207383D01*
X151725668Y-94207378D01*
X151728732Y-94195442D01*
X151735138Y-94176730D01*
X151740033Y-94165419D01*
X151743181Y-94158145D01*
X151744421Y-94150317D01*
X151744423Y-94150310D01*
X151750099Y-94114476D01*
X151752505Y-94102856D01*
X151761528Y-94067711D01*
X151761528Y-94067710D01*
X151763500Y-94060030D01*
X151763500Y-94039776D01*
X151765051Y-94020065D01*
X151766980Y-94007886D01*
X151768220Y-94000057D01*
X151764059Y-93956038D01*
X151763500Y-93944181D01*
X151763500Y-93412524D01*
X151783502Y-93344403D01*
X151795858Y-93328221D01*
X151869040Y-93246944D01*
X151964527Y-93081556D01*
X151999756Y-92973134D01*
X155486500Y-92973134D01*
X155493255Y-93035316D01*
X155544385Y-93171705D01*
X155631739Y-93288261D01*
X155748295Y-93375615D01*
X155884684Y-93426745D01*
X155946866Y-93433500D01*
X157743134Y-93433500D01*
X157805316Y-93426745D01*
X157941705Y-93375615D01*
X158058261Y-93288261D01*
X158145615Y-93171705D01*
X158177265Y-93087279D01*
X158189598Y-93054382D01*
X158232240Y-92997618D01*
X158298802Y-92972918D01*
X158368150Y-92988126D01*
X158402817Y-93016114D01*
X158431250Y-93048938D01*
X158603126Y-93191632D01*
X158796000Y-93304338D01*
X159004692Y-93384030D01*
X159009760Y-93385061D01*
X159009763Y-93385062D01*
X159117017Y-93406883D01*
X159223597Y-93428567D01*
X159228772Y-93428757D01*
X159228774Y-93428757D01*
X159441673Y-93436564D01*
X159441677Y-93436564D01*
X159446837Y-93436753D01*
X159451957Y-93436097D01*
X159451959Y-93436097D01*
X159663288Y-93409025D01*
X159663289Y-93409025D01*
X159668416Y-93408368D01*
X159673366Y-93406883D01*
X159877429Y-93345661D01*
X159877434Y-93345659D01*
X159882384Y-93344174D01*
X160082994Y-93245896D01*
X160264860Y-93116173D01*
X160423096Y-92958489D01*
X160553453Y-92777077D01*
X160554776Y-92778028D01*
X160601645Y-92734857D01*
X160671580Y-92722625D01*
X160737026Y-92750144D01*
X160764875Y-92781994D01*
X160824987Y-92880088D01*
X160971250Y-93048938D01*
X161143126Y-93191632D01*
X161336000Y-93304338D01*
X161544692Y-93384030D01*
X161549760Y-93385061D01*
X161549763Y-93385062D01*
X161657017Y-93406883D01*
X161763597Y-93428567D01*
X161768772Y-93428757D01*
X161768774Y-93428757D01*
X161981673Y-93436564D01*
X161981677Y-93436564D01*
X161986837Y-93436753D01*
X161991957Y-93436097D01*
X161991959Y-93436097D01*
X162203288Y-93409025D01*
X162203289Y-93409025D01*
X162208416Y-93408368D01*
X162213366Y-93406883D01*
X162417429Y-93345661D01*
X162417434Y-93345659D01*
X162422384Y-93344174D01*
X162622994Y-93245896D01*
X162804860Y-93116173D01*
X162963096Y-92958489D01*
X163093453Y-92777077D01*
X163101292Y-92761217D01*
X163190136Y-92581453D01*
X163190137Y-92581451D01*
X163192430Y-92576811D01*
X163257370Y-92363069D01*
X163286529Y-92141590D01*
X163288156Y-92075000D01*
X163269852Y-91852361D01*
X163215431Y-91635702D01*
X163126354Y-91430840D01*
X163086906Y-91369862D01*
X163007822Y-91247617D01*
X163007820Y-91247614D01*
X163005014Y-91243277D01*
X162854670Y-91078051D01*
X162850619Y-91074852D01*
X162850615Y-91074848D01*
X162683414Y-90942800D01*
X162683410Y-90942798D01*
X162679359Y-90939598D01*
X162483789Y-90831638D01*
X162478920Y-90829914D01*
X162478916Y-90829912D01*
X162278087Y-90758795D01*
X162278083Y-90758794D01*
X162273212Y-90757069D01*
X162268119Y-90756162D01*
X162268116Y-90756161D01*
X162058373Y-90718800D01*
X162058367Y-90718799D01*
X162053284Y-90717894D01*
X161979452Y-90716992D01*
X161835081Y-90715228D01*
X161835079Y-90715228D01*
X161829911Y-90715165D01*
X161609091Y-90748955D01*
X161396756Y-90818357D01*
X161198607Y-90921507D01*
X161194474Y-90924610D01*
X161194471Y-90924612D01*
X161065905Y-91021142D01*
X161019965Y-91055635D01*
X161016393Y-91059373D01*
X160908729Y-91172037D01*
X160865629Y-91217138D01*
X160758201Y-91374621D01*
X160703293Y-91419621D01*
X160632768Y-91427792D01*
X160569021Y-91396538D01*
X160548324Y-91372054D01*
X160467822Y-91247617D01*
X160467820Y-91247614D01*
X160465014Y-91243277D01*
X160314670Y-91078051D01*
X160310619Y-91074852D01*
X160310615Y-91074848D01*
X160143414Y-90942800D01*
X160143410Y-90942798D01*
X160139359Y-90939598D01*
X159943789Y-90831638D01*
X159938920Y-90829914D01*
X159938916Y-90829912D01*
X159738087Y-90758795D01*
X159738083Y-90758794D01*
X159733212Y-90757069D01*
X159728119Y-90756162D01*
X159728116Y-90756161D01*
X159518373Y-90718800D01*
X159518367Y-90718799D01*
X159513284Y-90717894D01*
X159439452Y-90716992D01*
X159295081Y-90715228D01*
X159295079Y-90715228D01*
X159289911Y-90715165D01*
X159069091Y-90748955D01*
X158856756Y-90818357D01*
X158658607Y-90921507D01*
X158654474Y-90924610D01*
X158654471Y-90924612D01*
X158525905Y-91021142D01*
X158479965Y-91055635D01*
X158414602Y-91124034D01*
X158399283Y-91140064D01*
X158337759Y-91175494D01*
X158266846Y-91172037D01*
X158209060Y-91130791D01*
X158190207Y-91097243D01*
X158148767Y-90986703D01*
X158145615Y-90978295D01*
X158058261Y-90861739D01*
X157941705Y-90774385D01*
X157805316Y-90723255D01*
X157743134Y-90716500D01*
X155946866Y-90716500D01*
X155884684Y-90723255D01*
X155748295Y-90774385D01*
X155631739Y-90861739D01*
X155544385Y-90978295D01*
X155493255Y-91114684D01*
X155486500Y-91176866D01*
X155486500Y-92973134D01*
X151999756Y-92973134D01*
X152023542Y-92899928D01*
X152040907Y-92734706D01*
X152067920Y-92669050D01*
X152077122Y-92658782D01*
X159610500Y-85125405D01*
X159672812Y-85091379D01*
X159699595Y-85088500D01*
X170106800Y-85088500D01*
X170174921Y-85108502D01*
X170194147Y-85124843D01*
X170194420Y-85124540D01*
X170199332Y-85128963D01*
X170203747Y-85133866D01*
X170358248Y-85246118D01*
X170364276Y-85248802D01*
X170364278Y-85248803D01*
X170526681Y-85321109D01*
X170532712Y-85323794D01*
X170626112Y-85343647D01*
X170713056Y-85362128D01*
X170713061Y-85362128D01*
X170719513Y-85363500D01*
X170910487Y-85363500D01*
X170916939Y-85362128D01*
X170916944Y-85362128D01*
X171003888Y-85343647D01*
X171097288Y-85323794D01*
X171103319Y-85321109D01*
X171265722Y-85248803D01*
X171265724Y-85248802D01*
X171271752Y-85246118D01*
X171426253Y-85133866D01*
X171449091Y-85108502D01*
X171549621Y-84996852D01*
X171549622Y-84996851D01*
X171554040Y-84991944D01*
X171628708Y-84862616D01*
X171646223Y-84832279D01*
X171646224Y-84832278D01*
X171649527Y-84826556D01*
X171708542Y-84644928D01*
X171728504Y-84455000D01*
X171708542Y-84265072D01*
X171649527Y-84083444D01*
X171554040Y-83918056D01*
X171537882Y-83900110D01*
X171430675Y-83781045D01*
X171430674Y-83781044D01*
X171426253Y-83776134D01*
X171271752Y-83663882D01*
X171265724Y-83661198D01*
X171265722Y-83661197D01*
X171103319Y-83588891D01*
X171103318Y-83588891D01*
X171097288Y-83586206D01*
X171003888Y-83566353D01*
X170916944Y-83547872D01*
X170916939Y-83547872D01*
X170910487Y-83546500D01*
X170719513Y-83546500D01*
X170713061Y-83547872D01*
X170713056Y-83547872D01*
X170626112Y-83566353D01*
X170532712Y-83586206D01*
X170526682Y-83588891D01*
X170526681Y-83588891D01*
X170364278Y-83661197D01*
X170364276Y-83661198D01*
X170358248Y-83663882D01*
X170203747Y-83776134D01*
X170199332Y-83781037D01*
X170194420Y-83785460D01*
X170193295Y-83784211D01*
X170139986Y-83817051D01*
X170106800Y-83821500D01*
X159463767Y-83821500D01*
X159452584Y-83820973D01*
X159445091Y-83819298D01*
X159437165Y-83819547D01*
X159437164Y-83819547D01*
X159377001Y-83821438D01*
X159373043Y-83821500D01*
X159345144Y-83821500D01*
X159341154Y-83822004D01*
X159329320Y-83822936D01*
X159285111Y-83824326D01*
X159277497Y-83826538D01*
X159277492Y-83826539D01*
X159265659Y-83829977D01*
X159246296Y-83833988D01*
X159226203Y-83836526D01*
X159218836Y-83839443D01*
X159218831Y-83839444D01*
X159185092Y-83852802D01*
X159173865Y-83856646D01*
X159131407Y-83868982D01*
X159124581Y-83873019D01*
X159113972Y-83879293D01*
X159096224Y-83887988D01*
X159077383Y-83895448D01*
X159070967Y-83900110D01*
X159070966Y-83900110D01*
X159041613Y-83921436D01*
X159031693Y-83927952D01*
X159000465Y-83946420D01*
X159000462Y-83946422D01*
X158993638Y-83950458D01*
X158979317Y-83964779D01*
X158964284Y-83977619D01*
X158947893Y-83989528D01*
X158942842Y-83995634D01*
X158919702Y-84023605D01*
X158911712Y-84032384D01*
X151179500Y-91764595D01*
X151117188Y-91798621D01*
X151090405Y-91801500D01*
X151034513Y-91801500D01*
X151028061Y-91802872D01*
X151028056Y-91802872D01*
X150941112Y-91821353D01*
X150847712Y-91841206D01*
X150841682Y-91843891D01*
X150841681Y-91843891D01*
X150822657Y-91852361D01*
X150673248Y-91918882D01*
X150672323Y-91916804D01*
X150613512Y-91931076D01*
X150546419Y-91907859D01*
X150502528Y-91852055D01*
X150493500Y-91805218D01*
X150493500Y-85486148D01*
X150513502Y-85418027D01*
X150567158Y-85371534D01*
X150593299Y-85362902D01*
X150777288Y-85323794D01*
X150783319Y-85321109D01*
X150945722Y-85248803D01*
X150945724Y-85248802D01*
X150951752Y-85246118D01*
X151106253Y-85133866D01*
X151129091Y-85108502D01*
X151229621Y-84996852D01*
X151229622Y-84996851D01*
X151234040Y-84991944D01*
X151308708Y-84862616D01*
X151326223Y-84832279D01*
X151326224Y-84832278D01*
X151329527Y-84826556D01*
X151388542Y-84644928D01*
X151408504Y-84455000D01*
X151388542Y-84265072D01*
X151329527Y-84083444D01*
X151234040Y-83918056D01*
X151217882Y-83900110D01*
X151110675Y-83781045D01*
X151110674Y-83781044D01*
X151106253Y-83776134D01*
X150951752Y-83663882D01*
X150945724Y-83661198D01*
X150945722Y-83661197D01*
X150783319Y-83588891D01*
X150783318Y-83588891D01*
X150777288Y-83586206D01*
X150683888Y-83566353D01*
X150596944Y-83547872D01*
X150596939Y-83547872D01*
X150590487Y-83546500D01*
X150399513Y-83546500D01*
X150393061Y-83547872D01*
X150393056Y-83547872D01*
X150306112Y-83566353D01*
X150212712Y-83586206D01*
X150206682Y-83588891D01*
X150206681Y-83588891D01*
X150044278Y-83661197D01*
X150044276Y-83661198D01*
X150038248Y-83663882D01*
X150032907Y-83667762D01*
X150032906Y-83667763D01*
X149884515Y-83775576D01*
X149878450Y-83777740D01*
X149864229Y-83797811D01*
X149772119Y-83900110D01*
X149755960Y-83918056D01*
X149660473Y-84083444D01*
X149601458Y-84265072D01*
X149600768Y-84271633D01*
X149600768Y-84271635D01*
X149584093Y-84430292D01*
X149557080Y-84495949D01*
X149547878Y-84506217D01*
X149467747Y-84586348D01*
X149459461Y-84593888D01*
X149452982Y-84598000D01*
X149447557Y-84603777D01*
X149406357Y-84647651D01*
X149403602Y-84650493D01*
X149383865Y-84670230D01*
X149381385Y-84673427D01*
X149373682Y-84682447D01*
X149343414Y-84714679D01*
X149339595Y-84721625D01*
X149339593Y-84721628D01*
X149333652Y-84732434D01*
X149322801Y-84748953D01*
X149310386Y-84764959D01*
X149307241Y-84772228D01*
X149307238Y-84772232D01*
X149292826Y-84805537D01*
X149287609Y-84816187D01*
X149266305Y-84854940D01*
X149264334Y-84862615D01*
X149264334Y-84862616D01*
X149261267Y-84874562D01*
X149254863Y-84893266D01*
X149246819Y-84911855D01*
X149245580Y-84919678D01*
X149245577Y-84919688D01*
X149239901Y-84955524D01*
X149237495Y-84967144D01*
X149226500Y-85009970D01*
X149226500Y-85030224D01*
X149224949Y-85049934D01*
X149221780Y-85069943D01*
X149222526Y-85077835D01*
X149225941Y-85113961D01*
X149226500Y-85125819D01*
X149226500Y-86725218D01*
X149206498Y-86793339D01*
X149152842Y-86839832D01*
X149082568Y-86849936D01*
X149047270Y-86837718D01*
X149046752Y-86838882D01*
X148878319Y-86763891D01*
X148878318Y-86763891D01*
X148872288Y-86761206D01*
X148778887Y-86741353D01*
X148691944Y-86722872D01*
X148691939Y-86722872D01*
X148685487Y-86721500D01*
X148494513Y-86721500D01*
X148488061Y-86722872D01*
X148488056Y-86722872D01*
X148401113Y-86741353D01*
X148307712Y-86761206D01*
X148301682Y-86763891D01*
X148301681Y-86763891D01*
X148139278Y-86836197D01*
X148139276Y-86836198D01*
X148133248Y-86838882D01*
X148127907Y-86842762D01*
X148127906Y-86842763D01*
X148077843Y-86879136D01*
X147978747Y-86951134D01*
X147850960Y-87093056D01*
X147755473Y-87258444D01*
X147696458Y-87440072D01*
X147695768Y-87446633D01*
X147695768Y-87446635D01*
X147679093Y-87605292D01*
X147652080Y-87670949D01*
X147642878Y-87681217D01*
X147094500Y-88229595D01*
X147032188Y-88263621D01*
X147005405Y-88266500D01*
X145679800Y-88266500D01*
X145611679Y-88246498D01*
X145565186Y-88192842D01*
X145555082Y-88122568D01*
X145570681Y-88077500D01*
X145611223Y-88007279D01*
X145611224Y-88007278D01*
X145614527Y-88001556D01*
X145673542Y-87819928D01*
X145690907Y-87654706D01*
X145717920Y-87589050D01*
X145727122Y-87578782D01*
X149681498Y-83624406D01*
X149704852Y-83611654D01*
X149710674Y-83596699D01*
X149721359Y-83584545D01*
X154530499Y-78775405D01*
X154592811Y-78741379D01*
X154619594Y-78738500D01*
X157311233Y-78738500D01*
X157322416Y-78739027D01*
X157329909Y-78740702D01*
X157337835Y-78740453D01*
X157337836Y-78740453D01*
X157397986Y-78738562D01*
X157401945Y-78738500D01*
X157429856Y-78738500D01*
X157433791Y-78738003D01*
X157433856Y-78737995D01*
X157445693Y-78737062D01*
X157477951Y-78736048D01*
X157481970Y-78735922D01*
X157489889Y-78735673D01*
X157509343Y-78730021D01*
X157528700Y-78726013D01*
X157540930Y-78724468D01*
X157540931Y-78724468D01*
X157548797Y-78723474D01*
X157556168Y-78720555D01*
X157556170Y-78720555D01*
X157589912Y-78707196D01*
X157601142Y-78703351D01*
X157635983Y-78693229D01*
X157635984Y-78693229D01*
X157643593Y-78691018D01*
X157650412Y-78686985D01*
X157650417Y-78686983D01*
X157661028Y-78680707D01*
X157678776Y-78672012D01*
X157697617Y-78664552D01*
X157733387Y-78638564D01*
X157743307Y-78632048D01*
X157774535Y-78613580D01*
X157774538Y-78613578D01*
X157781362Y-78609542D01*
X157795683Y-78595221D01*
X157810717Y-78582380D01*
X157820693Y-78575132D01*
X157827107Y-78570472D01*
X157855288Y-78536407D01*
X157863278Y-78527626D01*
X158507258Y-77883647D01*
X158515537Y-77876113D01*
X158522018Y-77872000D01*
X158568644Y-77822348D01*
X158571398Y-77819507D01*
X158591135Y-77799770D01*
X158593615Y-77796573D01*
X158601320Y-77787551D01*
X158626159Y-77761100D01*
X158631586Y-77755321D01*
X158635405Y-77748375D01*
X158635407Y-77748372D01*
X158641348Y-77737566D01*
X158652199Y-77721047D01*
X158659758Y-77711301D01*
X158664614Y-77705041D01*
X158667759Y-77697772D01*
X158667762Y-77697768D01*
X158682174Y-77664463D01*
X158687391Y-77653813D01*
X158708695Y-77615060D01*
X158713733Y-77595437D01*
X158720137Y-77576734D01*
X158725033Y-77565420D01*
X158725033Y-77565419D01*
X158728181Y-77558145D01*
X158729420Y-77550322D01*
X158729423Y-77550312D01*
X158735099Y-77514476D01*
X158737505Y-77502856D01*
X158746528Y-77467711D01*
X158746528Y-77467710D01*
X158748500Y-77460030D01*
X158748500Y-77439776D01*
X158750051Y-77420065D01*
X158751980Y-77407886D01*
X158753220Y-77400057D01*
X158749059Y-77356038D01*
X158748500Y-77344181D01*
X158748500Y-76469782D01*
X158768502Y-76401661D01*
X158822158Y-76355168D01*
X158892432Y-76345064D01*
X158927730Y-76357282D01*
X158928248Y-76356118D01*
X159078345Y-76422945D01*
X159102712Y-76433794D01*
X159196113Y-76453647D01*
X159283056Y-76472128D01*
X159283061Y-76472128D01*
X159289513Y-76473500D01*
X159480487Y-76473500D01*
X159486939Y-76472128D01*
X159486944Y-76472128D01*
X159573887Y-76453647D01*
X159667288Y-76433794D01*
X159691656Y-76422945D01*
X159841752Y-76356118D01*
X159842677Y-76358196D01*
X159901488Y-76343924D01*
X159968581Y-76367141D01*
X160012472Y-76422945D01*
X160021500Y-76469782D01*
X160021500Y-76756233D01*
X160020973Y-76767416D01*
X160019298Y-76774909D01*
X160019547Y-76782835D01*
X160019547Y-76782836D01*
X160021438Y-76842986D01*
X160021500Y-76846945D01*
X160021500Y-76874856D01*
X160021997Y-76878790D01*
X160021997Y-76878791D01*
X160022005Y-76878856D01*
X160022938Y-76890693D01*
X160024327Y-76934889D01*
X160029978Y-76954339D01*
X160033987Y-76973700D01*
X160036526Y-76993797D01*
X160039445Y-77001168D01*
X160039445Y-77001170D01*
X160052804Y-77034912D01*
X160056649Y-77046142D01*
X160068982Y-77088593D01*
X160073015Y-77095412D01*
X160073017Y-77095417D01*
X160079293Y-77106028D01*
X160087988Y-77123776D01*
X160095448Y-77142617D01*
X160100110Y-77149033D01*
X160100110Y-77149034D01*
X160121436Y-77178387D01*
X160127952Y-77188307D01*
X160139360Y-77207596D01*
X160150458Y-77226362D01*
X160164779Y-77240683D01*
X160177619Y-77255716D01*
X160189528Y-77272107D01*
X160195634Y-77277158D01*
X160223605Y-77300298D01*
X160232384Y-77308288D01*
X160786343Y-77862247D01*
X160793887Y-77870537D01*
X160798000Y-77877018D01*
X160803777Y-77882443D01*
X160847667Y-77923658D01*
X160850509Y-77926413D01*
X160870231Y-77946135D01*
X160873355Y-77948558D01*
X160873359Y-77948562D01*
X160873424Y-77948612D01*
X160882445Y-77956317D01*
X160914679Y-77986586D01*
X160921627Y-77990405D01*
X160921629Y-77990407D01*
X160932432Y-77996346D01*
X160948959Y-78007202D01*
X160958698Y-78014757D01*
X160958700Y-78014758D01*
X160964960Y-78019614D01*
X161005540Y-78037174D01*
X161016188Y-78042391D01*
X161040976Y-78056018D01*
X161054940Y-78063695D01*
X161062616Y-78065666D01*
X161062619Y-78065667D01*
X161074562Y-78068733D01*
X161093267Y-78075137D01*
X161111855Y-78083181D01*
X161119678Y-78084420D01*
X161119688Y-78084423D01*
X161155524Y-78090099D01*
X161167144Y-78092505D01*
X161198959Y-78100673D01*
X161209970Y-78103500D01*
X161230224Y-78103500D01*
X161249934Y-78105051D01*
X161269943Y-78108220D01*
X161277835Y-78107474D01*
X161296580Y-78105702D01*
X161313962Y-78104059D01*
X161325819Y-78103500D01*
X168196233Y-78103500D01*
X168207416Y-78104027D01*
X168214909Y-78105702D01*
X168222835Y-78105453D01*
X168222836Y-78105453D01*
X168282986Y-78103562D01*
X168286945Y-78103500D01*
X168314856Y-78103500D01*
X168318791Y-78103003D01*
X168318856Y-78102995D01*
X168330693Y-78102062D01*
X168362951Y-78101048D01*
X168366970Y-78100922D01*
X168374889Y-78100673D01*
X168394343Y-78095021D01*
X168413700Y-78091013D01*
X168425930Y-78089468D01*
X168425931Y-78089468D01*
X168433797Y-78088474D01*
X168441168Y-78085555D01*
X168441170Y-78085555D01*
X168474912Y-78072196D01*
X168486142Y-78068351D01*
X168520983Y-78058229D01*
X168520984Y-78058229D01*
X168528593Y-78056018D01*
X168535412Y-78051985D01*
X168535417Y-78051983D01*
X168546028Y-78045707D01*
X168563776Y-78037012D01*
X168582617Y-78029552D01*
X168618387Y-78003564D01*
X168628307Y-77997048D01*
X168659535Y-77978580D01*
X168659538Y-77978578D01*
X168666362Y-77974542D01*
X168680683Y-77960221D01*
X168695717Y-77947380D01*
X168697431Y-77946135D01*
X168712107Y-77935472D01*
X168740298Y-77901395D01*
X168748288Y-77892616D01*
X170765499Y-75875405D01*
X170827811Y-75841379D01*
X170854594Y-75838500D01*
X170910487Y-75838500D01*
X170916939Y-75837128D01*
X170916944Y-75837128D01*
X171003888Y-75818647D01*
X171097288Y-75798794D01*
X171115919Y-75790499D01*
X171265722Y-75723803D01*
X171265724Y-75723802D01*
X171271752Y-75721118D01*
X171426253Y-75608866D01*
X171471661Y-75558435D01*
X171549621Y-75471852D01*
X171549622Y-75471851D01*
X171554040Y-75466944D01*
X171628708Y-75337616D01*
X171646223Y-75307279D01*
X171646224Y-75307278D01*
X171649527Y-75301556D01*
X171708542Y-75119928D01*
X171728504Y-74930000D01*
X171720059Y-74849654D01*
X171709232Y-74746635D01*
X171709232Y-74746633D01*
X171708542Y-74740072D01*
X171649527Y-74558444D01*
X171554040Y-74393056D01*
X171530044Y-74366405D01*
X171430675Y-74256045D01*
X171430674Y-74256044D01*
X171426253Y-74251134D01*
X171271752Y-74138882D01*
X171265724Y-74136198D01*
X171265722Y-74136197D01*
X171103319Y-74063891D01*
X171103318Y-74063891D01*
X171097288Y-74061206D01*
X171003887Y-74041353D01*
X170916944Y-74022872D01*
X170916939Y-74022872D01*
X170910487Y-74021500D01*
X170719513Y-74021500D01*
X170713061Y-74022872D01*
X170713056Y-74022872D01*
X170626113Y-74041353D01*
X170532712Y-74061206D01*
X170526682Y-74063891D01*
X170526681Y-74063891D01*
X170364278Y-74136197D01*
X170364276Y-74136198D01*
X170358248Y-74138882D01*
X170203747Y-74251134D01*
X170199326Y-74256044D01*
X170199325Y-74256045D01*
X170099957Y-74366405D01*
X170075960Y-74393056D01*
X169980473Y-74558444D01*
X169921458Y-74740072D01*
X169920768Y-74746633D01*
X169920768Y-74746635D01*
X169904093Y-74905292D01*
X169877080Y-74970949D01*
X169867878Y-74981217D01*
X168049500Y-76799595D01*
X167987188Y-76833621D01*
X167960405Y-76836500D01*
X161604595Y-76836500D01*
X161536474Y-76816498D01*
X161515499Y-76799595D01*
X161325404Y-76609499D01*
X161291379Y-76547187D01*
X161288500Y-76520404D01*
X161288500Y-73103768D01*
X161289027Y-73092585D01*
X161290702Y-73085092D01*
X161288562Y-73017001D01*
X161288500Y-73013044D01*
X161288500Y-72985144D01*
X161287996Y-72981153D01*
X161287063Y-72969311D01*
X161286682Y-72957167D01*
X161285674Y-72925111D01*
X161283461Y-72917493D01*
X161280021Y-72905652D01*
X161276012Y-72886293D01*
X161275846Y-72884983D01*
X161273474Y-72866203D01*
X161270558Y-72858837D01*
X161270556Y-72858831D01*
X161257200Y-72825098D01*
X161253355Y-72813868D01*
X161243230Y-72779017D01*
X161243230Y-72779016D01*
X161241019Y-72771407D01*
X161230705Y-72753966D01*
X161222008Y-72736213D01*
X161217472Y-72724758D01*
X161214552Y-72717383D01*
X161188563Y-72681612D01*
X161182047Y-72671692D01*
X161163578Y-72640463D01*
X161159542Y-72633638D01*
X161145221Y-72619317D01*
X161132380Y-72604283D01*
X161125132Y-72594307D01*
X161120472Y-72587893D01*
X161086407Y-72559712D01*
X161077626Y-72551722D01*
X160523647Y-71997742D01*
X160516113Y-71989463D01*
X160512000Y-71982982D01*
X160462348Y-71936356D01*
X160459507Y-71933602D01*
X160439770Y-71913865D01*
X160436573Y-71911385D01*
X160427551Y-71903680D01*
X160401100Y-71878841D01*
X160395321Y-71873414D01*
X160388375Y-71869595D01*
X160388372Y-71869593D01*
X160377566Y-71863652D01*
X160361047Y-71852801D01*
X160360583Y-71852441D01*
X160345041Y-71840386D01*
X160337772Y-71837241D01*
X160337768Y-71837238D01*
X160304463Y-71822826D01*
X160293813Y-71817609D01*
X160255060Y-71796305D01*
X160235437Y-71791267D01*
X160216734Y-71784863D01*
X160205420Y-71779967D01*
X160205419Y-71779967D01*
X160198145Y-71776819D01*
X160190322Y-71775580D01*
X160190312Y-71775577D01*
X160154476Y-71769901D01*
X160142856Y-71767495D01*
X160107711Y-71758472D01*
X160107710Y-71758472D01*
X160100030Y-71756500D01*
X160079776Y-71756500D01*
X160060065Y-71754949D01*
X160047886Y-71753020D01*
X160040057Y-71751780D01*
X160032165Y-71752526D01*
X159996039Y-71755941D01*
X159984181Y-71756500D01*
X145729594Y-71756500D01*
X145661473Y-71736498D01*
X145640499Y-71719595D01*
X142624500Y-68703595D01*
X142590474Y-68641283D01*
X142595539Y-68570467D01*
X142638086Y-68513632D01*
X142704606Y-68488821D01*
X142713595Y-68488500D01*
X149660406Y-68488500D01*
X149728527Y-68508502D01*
X149749501Y-68525405D01*
X149752878Y-68528782D01*
X149786904Y-68591094D01*
X149789092Y-68604703D01*
X149806458Y-68769928D01*
X149865473Y-68951556D01*
X149960960Y-69116944D01*
X150088747Y-69258866D01*
X150243248Y-69371118D01*
X150249276Y-69373802D01*
X150249278Y-69373803D01*
X150411681Y-69446109D01*
X150417712Y-69448794D01*
X150511112Y-69468647D01*
X150598056Y-69487128D01*
X150598061Y-69487128D01*
X150604513Y-69488500D01*
X150795487Y-69488500D01*
X150801939Y-69487128D01*
X150801944Y-69487128D01*
X150888888Y-69468647D01*
X150982288Y-69448794D01*
X150988319Y-69446109D01*
X151150722Y-69373803D01*
X151150724Y-69373802D01*
X151156752Y-69371118D01*
X151311253Y-69258866D01*
X151439040Y-69116944D01*
X151534527Y-68951556D01*
X151593542Y-68769928D01*
X151613504Y-68580000D01*
X151593542Y-68390072D01*
X151534527Y-68208444D01*
X151439040Y-68043056D01*
X151311253Y-67901134D01*
X151156752Y-67788882D01*
X151150724Y-67786198D01*
X151150722Y-67786197D01*
X150988319Y-67713891D01*
X150988318Y-67713891D01*
X150982288Y-67711206D01*
X150888888Y-67691353D01*
X150801944Y-67672872D01*
X150801939Y-67672872D01*
X150795487Y-67671500D01*
X150739595Y-67671500D01*
X150671474Y-67651498D01*
X150650500Y-67634595D01*
X150478652Y-67462747D01*
X150471112Y-67454461D01*
X150467000Y-67447982D01*
X150417348Y-67401356D01*
X150414507Y-67398602D01*
X150394770Y-67378865D01*
X150391573Y-67376385D01*
X150382551Y-67368680D01*
X150369122Y-67356069D01*
X150350321Y-67338414D01*
X150343375Y-67334595D01*
X150343372Y-67334593D01*
X150332566Y-67328652D01*
X150316047Y-67317801D01*
X150315583Y-67317441D01*
X150300041Y-67305386D01*
X150292772Y-67302241D01*
X150292768Y-67302238D01*
X150259463Y-67287826D01*
X150248813Y-67282609D01*
X150210060Y-67261305D01*
X150190437Y-67256267D01*
X150171734Y-67249863D01*
X150160420Y-67244967D01*
X150160419Y-67244967D01*
X150153145Y-67241819D01*
X150145322Y-67240580D01*
X150145312Y-67240577D01*
X150109476Y-67234901D01*
X150097856Y-67232495D01*
X150062711Y-67223472D01*
X150062710Y-67223472D01*
X150055030Y-67221500D01*
X150034776Y-67221500D01*
X150015065Y-67219949D01*
X150002886Y-67218020D01*
X149995057Y-67216780D01*
X149965786Y-67219547D01*
X149951039Y-67220941D01*
X149939181Y-67221500D01*
X141383462Y-67221500D01*
X141372279Y-67220973D01*
X141364786Y-67219298D01*
X141356860Y-67219547D01*
X141356859Y-67219547D01*
X141296696Y-67221438D01*
X141292738Y-67221500D01*
X141264839Y-67221500D01*
X141260849Y-67222004D01*
X141249015Y-67222936D01*
X141204806Y-67224326D01*
X141197192Y-67226538D01*
X141197187Y-67226539D01*
X141185354Y-67229977D01*
X141165991Y-67233988D01*
X141145898Y-67236526D01*
X141138531Y-67239443D01*
X141138526Y-67239444D01*
X141104787Y-67252802D01*
X141093560Y-67256646D01*
X141051102Y-67268982D01*
X141044276Y-67273019D01*
X141033667Y-67279293D01*
X141015919Y-67287988D01*
X140997078Y-67295448D01*
X140990662Y-67300110D01*
X140990661Y-67300110D01*
X140961308Y-67321436D01*
X140951388Y-67327952D01*
X140920160Y-67346420D01*
X140920157Y-67346422D01*
X140913333Y-67350458D01*
X140899012Y-67364779D01*
X140883979Y-67377619D01*
X140867588Y-67389528D01*
X140858912Y-67400016D01*
X140839397Y-67423605D01*
X140831407Y-67432384D01*
X133592747Y-74671043D01*
X133584461Y-74678583D01*
X133577982Y-74682695D01*
X133572557Y-74688472D01*
X133531357Y-74732346D01*
X133528602Y-74735188D01*
X133508865Y-74754925D01*
X133506385Y-74758122D01*
X133498682Y-74767142D01*
X133468414Y-74799374D01*
X133464595Y-74806320D01*
X133464593Y-74806323D01*
X133458652Y-74817129D01*
X133447801Y-74833648D01*
X133435386Y-74849654D01*
X133432241Y-74856923D01*
X133432238Y-74856927D01*
X133417826Y-74890232D01*
X133412609Y-74900882D01*
X133391305Y-74939635D01*
X133389334Y-74947310D01*
X133389334Y-74947311D01*
X133386267Y-74959257D01*
X133379863Y-74977961D01*
X133371819Y-74996550D01*
X133370580Y-75004373D01*
X133370577Y-75004383D01*
X133364901Y-75040219D01*
X133362495Y-75051839D01*
X133358003Y-75069337D01*
X133351500Y-75094665D01*
X133351500Y-75114919D01*
X133349949Y-75134629D01*
X133346780Y-75154638D01*
X133347526Y-75162530D01*
X133350941Y-75198656D01*
X133351500Y-75210514D01*
X133351500Y-90731233D01*
X133350973Y-90742416D01*
X133349298Y-90749909D01*
X133349547Y-90757835D01*
X133349547Y-90757836D01*
X133351438Y-90817986D01*
X133351500Y-90821945D01*
X133351500Y-90849856D01*
X133351997Y-90853790D01*
X133351997Y-90853791D01*
X133352005Y-90853856D01*
X133352938Y-90865693D01*
X133354327Y-90909889D01*
X133359978Y-90929339D01*
X133363987Y-90948700D01*
X133366526Y-90968797D01*
X133369445Y-90976168D01*
X133369445Y-90976170D01*
X133382804Y-91009912D01*
X133386649Y-91021142D01*
X133398982Y-91063593D01*
X133403015Y-91070412D01*
X133403017Y-91070417D01*
X133409293Y-91081028D01*
X133417988Y-91098776D01*
X133425448Y-91117617D01*
X133430110Y-91124033D01*
X133430110Y-91124034D01*
X133451436Y-91153387D01*
X133457952Y-91163307D01*
X133470949Y-91185283D01*
X133480458Y-91201362D01*
X133494779Y-91215683D01*
X133507619Y-91230716D01*
X133519528Y-91247107D01*
X133525634Y-91252158D01*
X133553605Y-91275298D01*
X133562384Y-91283288D01*
X133859595Y-91580499D01*
X133893621Y-91642811D01*
X133896500Y-91669594D01*
X133896500Y-92978134D01*
X133903255Y-93040316D01*
X133954385Y-93176705D01*
X134041739Y-93293261D01*
X134158295Y-93380615D01*
X134294684Y-93431745D01*
X134356866Y-93438500D01*
X136153134Y-93438500D01*
X136215316Y-93431745D01*
X136351705Y-93380615D01*
X136468261Y-93293261D01*
X136555615Y-93176705D01*
X136606745Y-93040316D01*
X136613500Y-92978134D01*
X136613500Y-91181866D01*
X136606745Y-91119684D01*
X136555615Y-90983295D01*
X136468261Y-90866739D01*
X136351705Y-90779385D01*
X136254896Y-90743093D01*
X136232687Y-90734767D01*
X136175923Y-90692125D01*
X136151223Y-90625564D01*
X136166430Y-90556215D01*
X136187977Y-90527535D01*
X136289052Y-90426812D01*
X136295730Y-90418965D01*
X136420003Y-90246020D01*
X136425313Y-90237183D01*
X136519670Y-90046267D01*
X136523469Y-90036672D01*
X136585377Y-89832910D01*
X136587555Y-89822837D01*
X136588986Y-89811962D01*
X136586775Y-89797778D01*
X136573617Y-89794000D01*
X135127000Y-89794000D01*
X135058879Y-89773998D01*
X135012386Y-89720342D01*
X135001000Y-89668000D01*
X135001000Y-89267885D01*
X135509000Y-89267885D01*
X135513475Y-89283124D01*
X135514865Y-89284329D01*
X135522548Y-89286000D01*
X136573344Y-89286000D01*
X136586875Y-89282027D01*
X136588180Y-89272947D01*
X136546214Y-89105875D01*
X136542894Y-89096124D01*
X136457972Y-88900814D01*
X136453105Y-88891739D01*
X136337426Y-88712926D01*
X136331136Y-88704757D01*
X136187806Y-88547240D01*
X136180273Y-88540215D01*
X136013139Y-88408222D01*
X136004552Y-88402517D01*
X135818117Y-88299599D01*
X135808705Y-88295369D01*
X135607959Y-88224280D01*
X135597988Y-88221646D01*
X135526837Y-88208972D01*
X135513540Y-88210432D01*
X135509000Y-88224989D01*
X135509000Y-89267885D01*
X135001000Y-89267885D01*
X135001000Y-88223102D01*
X134997082Y-88209758D01*
X134982806Y-88207771D01*
X134944324Y-88213660D01*
X134934288Y-88216051D01*
X134783645Y-88265288D01*
X134712681Y-88267439D01*
X134651819Y-88230882D01*
X134620383Y-88167225D01*
X134618500Y-88145523D01*
X134618500Y-75489289D01*
X134638502Y-75421168D01*
X134655405Y-75400194D01*
X140806516Y-69249084D01*
X140868828Y-69215058D01*
X140939643Y-69220123D01*
X140983841Y-69250188D01*
X140984423Y-69249541D01*
X140989158Y-69253804D01*
X140989240Y-69253860D01*
X140993747Y-69258866D01*
X141148248Y-69371118D01*
X141154276Y-69373802D01*
X141154278Y-69373803D01*
X141316681Y-69446109D01*
X141322712Y-69448794D01*
X141416112Y-69468647D01*
X141503056Y-69487128D01*
X141503061Y-69487128D01*
X141509513Y-69488500D01*
X141565406Y-69488500D01*
X141633527Y-69508502D01*
X141654501Y-69525405D01*
X144911343Y-72782247D01*
X144918887Y-72790537D01*
X144923000Y-72797018D01*
X144928777Y-72802443D01*
X144972667Y-72843658D01*
X144975509Y-72846413D01*
X144995231Y-72866135D01*
X144998355Y-72868558D01*
X144998359Y-72868562D01*
X144998424Y-72868612D01*
X145007445Y-72876317D01*
X145039679Y-72906586D01*
X145046627Y-72910405D01*
X145046629Y-72910407D01*
X145057432Y-72916346D01*
X145073959Y-72927202D01*
X145083698Y-72934757D01*
X145083700Y-72934758D01*
X145089960Y-72939614D01*
X145130540Y-72957174D01*
X145141188Y-72962391D01*
X145153776Y-72969311D01*
X145179940Y-72983695D01*
X145187616Y-72985666D01*
X145187619Y-72985667D01*
X145199562Y-72988733D01*
X145218267Y-72995137D01*
X145236855Y-73003181D01*
X145244678Y-73004420D01*
X145244688Y-73004423D01*
X145280524Y-73010099D01*
X145292144Y-73012505D01*
X145327289Y-73021528D01*
X145334970Y-73023500D01*
X145355224Y-73023500D01*
X145374934Y-73025051D01*
X145394943Y-73028220D01*
X145402835Y-73027474D01*
X145438961Y-73024059D01*
X145450819Y-73023500D01*
X159705406Y-73023500D01*
X159773527Y-73043502D01*
X159794501Y-73060405D01*
X159984595Y-73250499D01*
X160018621Y-73312811D01*
X160021500Y-73339594D01*
X160021500Y-74366405D01*
X160001498Y-74434526D01*
X159947842Y-74481019D01*
X159877568Y-74491123D01*
X159812988Y-74461629D01*
X159806404Y-74455500D01*
X159253647Y-73902742D01*
X159246113Y-73894463D01*
X159242000Y-73887982D01*
X159192348Y-73841356D01*
X159189507Y-73838602D01*
X159169770Y-73818865D01*
X159166573Y-73816385D01*
X159157551Y-73808680D01*
X159144116Y-73796064D01*
X159125321Y-73778414D01*
X159118375Y-73774595D01*
X159118372Y-73774593D01*
X159107566Y-73768652D01*
X159091047Y-73757801D01*
X159090583Y-73757441D01*
X159075041Y-73745386D01*
X159067772Y-73742241D01*
X159067768Y-73742238D01*
X159034463Y-73727826D01*
X159023813Y-73722609D01*
X158985060Y-73701305D01*
X158965437Y-73696267D01*
X158946734Y-73689863D01*
X158935420Y-73684967D01*
X158935419Y-73684967D01*
X158928145Y-73681819D01*
X158920322Y-73680580D01*
X158920312Y-73680577D01*
X158884476Y-73674901D01*
X158872856Y-73672495D01*
X158837711Y-73663472D01*
X158837710Y-73663472D01*
X158830030Y-73661500D01*
X158809776Y-73661500D01*
X158790065Y-73659949D01*
X158777886Y-73658020D01*
X158770057Y-73656780D01*
X158740786Y-73659547D01*
X158726039Y-73660941D01*
X158714181Y-73661500D01*
X155018767Y-73661500D01*
X155007584Y-73660973D01*
X155000091Y-73659298D01*
X154992165Y-73659547D01*
X154992164Y-73659547D01*
X154932014Y-73661438D01*
X154928055Y-73661500D01*
X154900144Y-73661500D01*
X154896210Y-73661997D01*
X154896209Y-73661997D01*
X154896144Y-73662005D01*
X154884307Y-73662938D01*
X154852490Y-73663938D01*
X154848029Y-73664078D01*
X154840110Y-73664327D01*
X154822454Y-73669456D01*
X154820658Y-73669978D01*
X154801306Y-73673986D01*
X154794235Y-73674880D01*
X154781203Y-73676526D01*
X154773834Y-73679443D01*
X154773832Y-73679444D01*
X154740097Y-73692800D01*
X154728869Y-73696645D01*
X154686407Y-73708982D01*
X154679585Y-73713016D01*
X154679579Y-73713019D01*
X154668968Y-73719294D01*
X154651218Y-73727990D01*
X154639756Y-73732528D01*
X154639751Y-73732531D01*
X154632383Y-73735448D01*
X154614970Y-73748099D01*
X154596625Y-73761427D01*
X154586707Y-73767943D01*
X154575463Y-73774593D01*
X154548637Y-73790458D01*
X154534313Y-73804782D01*
X154519281Y-73817621D01*
X154502893Y-73829528D01*
X154474712Y-73863593D01*
X154466722Y-73872373D01*
X153277747Y-75061348D01*
X153269461Y-75068888D01*
X153262982Y-75073000D01*
X153257557Y-75078777D01*
X153216357Y-75122651D01*
X153213602Y-75125493D01*
X153193865Y-75145230D01*
X153191385Y-75148427D01*
X153183682Y-75157447D01*
X153153414Y-75189679D01*
X153149595Y-75196625D01*
X153149593Y-75196628D01*
X153143652Y-75207434D01*
X153132801Y-75223953D01*
X153120386Y-75239959D01*
X153117241Y-75247228D01*
X153117238Y-75247232D01*
X153102826Y-75280537D01*
X153097609Y-75291187D01*
X153076305Y-75329940D01*
X153074334Y-75337615D01*
X153074334Y-75337616D01*
X153071267Y-75349562D01*
X153064863Y-75368266D01*
X153056819Y-75386855D01*
X153055580Y-75394678D01*
X153055577Y-75394688D01*
X153049901Y-75430524D01*
X153047495Y-75442144D01*
X153036500Y-75484970D01*
X153036500Y-75505224D01*
X153034949Y-75524934D01*
X153031780Y-75544943D01*
X153032526Y-75552835D01*
X153035941Y-75588961D01*
X153036500Y-75600819D01*
X153036500Y-77155406D01*
X153016498Y-77223527D01*
X152999595Y-77244501D01*
X143559500Y-86684595D01*
X143497188Y-86718621D01*
X143470405Y-86721500D01*
X143414513Y-86721500D01*
X143408061Y-86722872D01*
X143408056Y-86722872D01*
X143321113Y-86741353D01*
X143227712Y-86761206D01*
X143221682Y-86763891D01*
X143221681Y-86763891D01*
X143059278Y-86836197D01*
X143059276Y-86836198D01*
X143053248Y-86838882D01*
X143047907Y-86842762D01*
X143047906Y-86842763D01*
X142997843Y-86879136D01*
X142898747Y-86951134D01*
X142770960Y-87093056D01*
X142675473Y-87258444D01*
X142616458Y-87440072D01*
X142596496Y-87630000D01*
X142616458Y-87819928D01*
X142675473Y-88001556D01*
X142678776Y-88007278D01*
X142678777Y-88007279D01*
X142719319Y-88077500D01*
X142736057Y-88146496D01*
X142712836Y-88213587D01*
X142657029Y-88257474D01*
X142610200Y-88266500D01*
X139379595Y-88266500D01*
X139311474Y-88246498D01*
X139290500Y-88229595D01*
X138465405Y-87404500D01*
X138431379Y-87342188D01*
X138428500Y-87315405D01*
X138428500Y-81594594D01*
X138448502Y-81526473D01*
X138465405Y-81505499D01*
X139290499Y-80680405D01*
X139352811Y-80646379D01*
X139379594Y-80643500D01*
X140896800Y-80643500D01*
X140964921Y-80663502D01*
X140984147Y-80679843D01*
X140984420Y-80679540D01*
X140989332Y-80683963D01*
X140993747Y-80688866D01*
X141015329Y-80704546D01*
X141130193Y-80788000D01*
X141148248Y-80801118D01*
X141154276Y-80803802D01*
X141154278Y-80803803D01*
X141316681Y-80876109D01*
X141322712Y-80878794D01*
X141416112Y-80898647D01*
X141503056Y-80917128D01*
X141503061Y-80917128D01*
X141509513Y-80918500D01*
X141700487Y-80918500D01*
X141706939Y-80917128D01*
X141706944Y-80917128D01*
X141793888Y-80898647D01*
X141887288Y-80878794D01*
X141893319Y-80876109D01*
X142055722Y-80803803D01*
X142055724Y-80803802D01*
X142061752Y-80801118D01*
X142079808Y-80788000D01*
X142117157Y-80760864D01*
X142216253Y-80688866D01*
X142239091Y-80663502D01*
X142339621Y-80551852D01*
X142339622Y-80551851D01*
X142344040Y-80546944D01*
X142439527Y-80381556D01*
X142498542Y-80199928D01*
X142518504Y-80010000D01*
X142498542Y-79820072D01*
X142439527Y-79638444D01*
X142344040Y-79473056D01*
X142327881Y-79455109D01*
X142220675Y-79336045D01*
X142220674Y-79336044D01*
X142216253Y-79331134D01*
X142061752Y-79218882D01*
X142055724Y-79216198D01*
X142055722Y-79216197D01*
X141893319Y-79143891D01*
X141893318Y-79143891D01*
X141887288Y-79141206D01*
X141793887Y-79121353D01*
X141706944Y-79102872D01*
X141706939Y-79102872D01*
X141700487Y-79101500D01*
X141509513Y-79101500D01*
X141503061Y-79102872D01*
X141503056Y-79102872D01*
X141416113Y-79121353D01*
X141322712Y-79141206D01*
X141316682Y-79143891D01*
X141316681Y-79143891D01*
X141154278Y-79216197D01*
X141154276Y-79216198D01*
X141148248Y-79218882D01*
X140993747Y-79331134D01*
X140989332Y-79336037D01*
X140984420Y-79340460D01*
X140983295Y-79339211D01*
X140929986Y-79372051D01*
X140896800Y-79376500D01*
X139143767Y-79376500D01*
X139132584Y-79375973D01*
X139125091Y-79374298D01*
X139117165Y-79374547D01*
X139117164Y-79374547D01*
X139057014Y-79376438D01*
X139053055Y-79376500D01*
X139025144Y-79376500D01*
X139021210Y-79376997D01*
X139021209Y-79376997D01*
X139021144Y-79377005D01*
X139009307Y-79377938D01*
X138977490Y-79378938D01*
X138973029Y-79379078D01*
X138965110Y-79379327D01*
X138947454Y-79384456D01*
X138945658Y-79384978D01*
X138926306Y-79388986D01*
X138919235Y-79389880D01*
X138906203Y-79391526D01*
X138898834Y-79394443D01*
X138898832Y-79394444D01*
X138865097Y-79407800D01*
X138853869Y-79411645D01*
X138811407Y-79423982D01*
X138804585Y-79428016D01*
X138804579Y-79428019D01*
X138793968Y-79434294D01*
X138776218Y-79442990D01*
X138764756Y-79447528D01*
X138764751Y-79447531D01*
X138757383Y-79450448D01*
X138750968Y-79455109D01*
X138721625Y-79476427D01*
X138711707Y-79482943D01*
X138693019Y-79493995D01*
X138673637Y-79505458D01*
X138659313Y-79519782D01*
X138644281Y-79532621D01*
X138627893Y-79544528D01*
X138599712Y-79578593D01*
X138591722Y-79587373D01*
X137402747Y-80776348D01*
X137394461Y-80783888D01*
X137387982Y-80788000D01*
X137382557Y-80793777D01*
X137341357Y-80837651D01*
X137338602Y-80840493D01*
X137318865Y-80860230D01*
X137316385Y-80863427D01*
X137308682Y-80872447D01*
X137278414Y-80904679D01*
X137274595Y-80911625D01*
X137274593Y-80911628D01*
X137268652Y-80922434D01*
X137257801Y-80938953D01*
X137245386Y-80954959D01*
X137242241Y-80962228D01*
X137242238Y-80962232D01*
X137227826Y-80995537D01*
X137222609Y-81006187D01*
X137201305Y-81044940D01*
X137199334Y-81052615D01*
X137199334Y-81052616D01*
X137196267Y-81064562D01*
X137189863Y-81083266D01*
X137181819Y-81101855D01*
X137180580Y-81109678D01*
X137180577Y-81109688D01*
X137174901Y-81145524D01*
X137172495Y-81157144D01*
X137161500Y-81199970D01*
X137161500Y-81220224D01*
X137159949Y-81239934D01*
X137156780Y-81259943D01*
X137157526Y-81267835D01*
X137160941Y-81303961D01*
X137161500Y-81315819D01*
X137161500Y-87551233D01*
X137160973Y-87562416D01*
X137159298Y-87569909D01*
X137159547Y-87577835D01*
X137159547Y-87577836D01*
X137161438Y-87637986D01*
X137161500Y-87641945D01*
X137161500Y-87669856D01*
X137161997Y-87673790D01*
X137161997Y-87673791D01*
X137162005Y-87673856D01*
X137162938Y-87685693D01*
X137164327Y-87729889D01*
X137169978Y-87749339D01*
X137173987Y-87768700D01*
X137176526Y-87788797D01*
X137179445Y-87796168D01*
X137179445Y-87796170D01*
X137192804Y-87829912D01*
X137196649Y-87841142D01*
X137208982Y-87883593D01*
X137213015Y-87890412D01*
X137213017Y-87890417D01*
X137219293Y-87901028D01*
X137227988Y-87918776D01*
X137235448Y-87937617D01*
X137240110Y-87944033D01*
X137240110Y-87944034D01*
X137261436Y-87973387D01*
X137267952Y-87983307D01*
X137278745Y-88001556D01*
X137290458Y-88021362D01*
X137304779Y-88035683D01*
X137317619Y-88050716D01*
X137329528Y-88067107D01*
X137335634Y-88072158D01*
X137363605Y-88095298D01*
X137372384Y-88103288D01*
X138561343Y-89292247D01*
X138568887Y-89300537D01*
X138573000Y-89307018D01*
X138578777Y-89312443D01*
X138622667Y-89353658D01*
X138625509Y-89356413D01*
X138645230Y-89376134D01*
X138648425Y-89378612D01*
X138657447Y-89386318D01*
X138689679Y-89416586D01*
X138696628Y-89420406D01*
X138707432Y-89426346D01*
X138723956Y-89437199D01*
X138739959Y-89449613D01*
X138780543Y-89467176D01*
X138791173Y-89472383D01*
X138829940Y-89493695D01*
X138837617Y-89495666D01*
X138837622Y-89495668D01*
X138849558Y-89498732D01*
X138868266Y-89505137D01*
X138886855Y-89513181D01*
X138894683Y-89514421D01*
X138894690Y-89514423D01*
X138930524Y-89520099D01*
X138942144Y-89522505D01*
X138973959Y-89530673D01*
X138984970Y-89533500D01*
X139005224Y-89533500D01*
X139024934Y-89535051D01*
X139044943Y-89538220D01*
X139052835Y-89537474D01*
X139071580Y-89535702D01*
X139088962Y-89534059D01*
X139100819Y-89533500D01*
X147241233Y-89533500D01*
X147252416Y-89534027D01*
X147259909Y-89535702D01*
X147267835Y-89535453D01*
X147267836Y-89535453D01*
X147327986Y-89533562D01*
X147331945Y-89533500D01*
X147359856Y-89533500D01*
X147363791Y-89533003D01*
X147363856Y-89532995D01*
X147375693Y-89532062D01*
X147407951Y-89531048D01*
X147411970Y-89530922D01*
X147419889Y-89530673D01*
X147439343Y-89525021D01*
X147458700Y-89521013D01*
X147470930Y-89519468D01*
X147470931Y-89519468D01*
X147478797Y-89518474D01*
X147486168Y-89515555D01*
X147486170Y-89515555D01*
X147519912Y-89502196D01*
X147531142Y-89498351D01*
X147565983Y-89488229D01*
X147565984Y-89488229D01*
X147573593Y-89486018D01*
X147580412Y-89481985D01*
X147580417Y-89481983D01*
X147591028Y-89475707D01*
X147608776Y-89467012D01*
X147627617Y-89459552D01*
X147647987Y-89444753D01*
X147663387Y-89433564D01*
X147673307Y-89427048D01*
X147704535Y-89408580D01*
X147704538Y-89408578D01*
X147711362Y-89404542D01*
X147725683Y-89390221D01*
X147740717Y-89377380D01*
X147742432Y-89376134D01*
X147757107Y-89365472D01*
X147785298Y-89331395D01*
X147793288Y-89322616D01*
X148540499Y-88575405D01*
X148602811Y-88541379D01*
X148629594Y-88538500D01*
X148685487Y-88538500D01*
X148691939Y-88537128D01*
X148691944Y-88537128D01*
X148778887Y-88518647D01*
X148872288Y-88498794D01*
X148896656Y-88487945D01*
X149046752Y-88421118D01*
X149047677Y-88423196D01*
X149106488Y-88408924D01*
X149173581Y-88432141D01*
X149217472Y-88487945D01*
X149226500Y-88534782D01*
X149226500Y-92007476D01*
X149206498Y-92075597D01*
X149194142Y-92091779D01*
X149120960Y-92173056D01*
X149025473Y-92338444D01*
X148966458Y-92520072D01*
X148965768Y-92526633D01*
X148965768Y-92526635D01*
X148960007Y-92581453D01*
X148946496Y-92710000D01*
X148966458Y-92899928D01*
X149025473Y-93081556D01*
X149120960Y-93246944D01*
X149248747Y-93388866D01*
X149403248Y-93501118D01*
X149409276Y-93503802D01*
X149409278Y-93503803D01*
X149571681Y-93576109D01*
X149577712Y-93578794D01*
X149671113Y-93598647D01*
X149758056Y-93617128D01*
X149758061Y-93617128D01*
X149764513Y-93618500D01*
X149955487Y-93618500D01*
X149961939Y-93617128D01*
X149961944Y-93617128D01*
X150048887Y-93598647D01*
X150142288Y-93578794D01*
X150166656Y-93567945D01*
X150316752Y-93501118D01*
X150317677Y-93503196D01*
X150376488Y-93488924D01*
X150443581Y-93512141D01*
X150487472Y-93567945D01*
X150496500Y-93614782D01*
X150496500Y-93665405D01*
X150476498Y-93733526D01*
X150459595Y-93754500D01*
X149634500Y-94579595D01*
X149572188Y-94613621D01*
X149545405Y-94616500D01*
X146364595Y-94616500D01*
X146296474Y-94596498D01*
X146275500Y-94579595D01*
X144457122Y-92761217D01*
X144423096Y-92698905D01*
X144420907Y-92685292D01*
X144404232Y-92526635D01*
X144404232Y-92526633D01*
X144403542Y-92520072D01*
X144344527Y-92338444D01*
X144249040Y-92173056D01*
X144223696Y-92144908D01*
X144125675Y-92036045D01*
X144125674Y-92036044D01*
X144121253Y-92031134D01*
X143966752Y-91918882D01*
X143960724Y-91916198D01*
X143960722Y-91916197D01*
X143798319Y-91843891D01*
X143798318Y-91843891D01*
X143792288Y-91841206D01*
X143698888Y-91821353D01*
X143611944Y-91802872D01*
X143611939Y-91802872D01*
X143605487Y-91801500D01*
X143414513Y-91801500D01*
X143408061Y-91802872D01*
X143408056Y-91802872D01*
X143321112Y-91821353D01*
X143227712Y-91841206D01*
X143221682Y-91843891D01*
X143221681Y-91843891D01*
X143059278Y-91916197D01*
X143059276Y-91916198D01*
X143053248Y-91918882D01*
X142898747Y-92031134D01*
X142894326Y-92036044D01*
X142894325Y-92036045D01*
X142796305Y-92144908D01*
X142770960Y-92173056D01*
X142675473Y-92338444D01*
X142616458Y-92520072D01*
X142615768Y-92526633D01*
X142615768Y-92526635D01*
X142610007Y-92581453D01*
X142596496Y-92710000D01*
X142616458Y-92899928D01*
X142675473Y-93081556D01*
X142770960Y-93246944D01*
X142898747Y-93388866D01*
X143053248Y-93501118D01*
X143059276Y-93503802D01*
X143059278Y-93503803D01*
X143221681Y-93576109D01*
X143227712Y-93578794D01*
X143321113Y-93598647D01*
X143408056Y-93617128D01*
X143408061Y-93617128D01*
X143414513Y-93618500D01*
X143470406Y-93618500D01*
X143538527Y-93638502D01*
X143559501Y-93655405D01*
X145546343Y-95642247D01*
X145553887Y-95650537D01*
X145558000Y-95657018D01*
X145568789Y-95667149D01*
X145604755Y-95728360D01*
X145601918Y-95799300D01*
X145561179Y-95857445D01*
X145495472Y-95884334D01*
X145482537Y-95885000D01*
X132841000Y-95885000D01*
X132772879Y-95864998D01*
X132726386Y-95811342D01*
X132715000Y-95759000D01*
X132715000Y-59816000D01*
X132735002Y-59747879D01*
X132788658Y-59701386D01*
X132841000Y-59690000D01*
X171959000Y-59690000D01*
X172027121Y-59710002D01*
G37*
%TD.AperFunction*%
%TD*%
M02*
