%TF.GenerationSoftware,KiCad,Pcbnew,(6.0.11-0)*%
%TF.CreationDate,2023-04-24T09:02:29-04:00*%
%TF.ProjectId,ClickerController,436c6963-6b65-4724-936f-6e74726f6c6c,rev?*%
%TF.SameCoordinates,Original*%
%TF.FileFunction,Soldermask,Top*%
%TF.FilePolarity,Negative*%
%FSLAX46Y46*%
G04 Gerber Fmt 4.6, Leading zero omitted, Abs format (unit mm)*
G04 Created by KiCad (PCBNEW (6.0.11-0)) date 2023-04-24 09:02:29*
%MOMM*%
%LPD*%
G01*
G04 APERTURE LIST*
G04 Aperture macros list*
%AMRoundRect*
0 Rectangle with rounded corners*
0 $1 Rounding radius*
0 $2 $3 $4 $5 $6 $7 $8 $9 X,Y pos of 4 corners*
0 Add a 4 corners polygon primitive as box body*
4,1,4,$2,$3,$4,$5,$6,$7,$8,$9,$2,$3,0*
0 Add four circle primitives for the rounded corners*
1,1,$1+$1,$2,$3*
1,1,$1+$1,$4,$5*
1,1,$1+$1,$6,$7*
1,1,$1+$1,$8,$9*
0 Add four rect primitives between the rounded corners*
20,1,$1+$1,$2,$3,$4,$5,0*
20,1,$1+$1,$4,$5,$6,$7,0*
20,1,$1+$1,$6,$7,$8,$9,0*
20,1,$1+$1,$8,$9,$2,$3,0*%
G04 Aperture macros list end*
%ADD10RoundRect,0.225000X0.225000X0.250000X-0.225000X0.250000X-0.225000X-0.250000X0.225000X-0.250000X0*%
%ADD11RoundRect,0.225000X0.250000X-0.225000X0.250000X0.225000X-0.250000X0.225000X-0.250000X-0.225000X0*%
%ADD12R,1.700000X1.700000*%
%ADD13O,1.700000X1.700000*%
%ADD14RoundRect,0.150000X-0.875000X-0.150000X0.875000X-0.150000X0.875000X0.150000X-0.875000X0.150000X0*%
%ADD15R,2.000000X2.000000*%
%ADD16RoundRect,0.200000X0.200000X0.275000X-0.200000X0.275000X-0.200000X-0.275000X0.200000X-0.275000X0*%
%ADD17RoundRect,0.150000X-0.150000X0.825000X-0.150000X-0.825000X0.150000X-0.825000X0.150000X0.825000X0*%
%ADD18RoundRect,0.200000X-0.275000X0.200000X-0.275000X-0.200000X0.275000X-0.200000X0.275000X0.200000X0*%
%ADD19RoundRect,0.150000X-0.150000X0.875000X-0.150000X-0.875000X0.150000X-0.875000X0.150000X0.875000X0*%
G04 APERTURE END LIST*
D10*
%TO.C,C2*%
X154610000Y-68580000D03*
X153060000Y-68580000D03*
%TD*%
D11*
%TO.C,C1*%
X170815000Y-88405000D03*
X170815000Y-86855000D03*
%TD*%
D12*
%TO.C,J2*%
X156845000Y-92075000D03*
D13*
X159385000Y-92075000D03*
X161925000Y-92075000D03*
%TD*%
D14*
%TO.C,U1*%
X141400000Y-68580000D03*
X141400000Y-69850000D03*
X141400000Y-71120000D03*
X141400000Y-72390000D03*
X141400000Y-73660000D03*
X141400000Y-74930000D03*
X141400000Y-76200000D03*
X141400000Y-77470000D03*
X141400000Y-78740000D03*
X141400000Y-80010000D03*
X141400000Y-81280000D03*
X141400000Y-82550000D03*
X150700000Y-82550000D03*
X150700000Y-81280000D03*
X150700000Y-80010000D03*
X150700000Y-78740000D03*
X150700000Y-77470000D03*
X150700000Y-76200000D03*
X150700000Y-74930000D03*
X150700000Y-73660000D03*
X150700000Y-72390000D03*
X150700000Y-71120000D03*
X150700000Y-69850000D03*
X150700000Y-68580000D03*
%TD*%
D15*
%TO.C,J3*%
X160020000Y-60960000D03*
X157480000Y-60960000D03*
X154940000Y-60960000D03*
X152400000Y-60960000D03*
X149860000Y-60960000D03*
X147320000Y-60960000D03*
X144780000Y-60960000D03*
X142240000Y-60960000D03*
X139700000Y-60960000D03*
X137160000Y-60960000D03*
%TD*%
D16*
%TO.C,R2*%
X154495000Y-80010000D03*
X152845000Y-80010000D03*
%TD*%
D15*
%TO.C,J4*%
X169545000Y-69215000D03*
X169545000Y-66675000D03*
X169545000Y-64135000D03*
X169545000Y-61595000D03*
%TD*%
D17*
%TO.C,U3*%
X151130000Y-87695000D03*
X149860000Y-87695000D03*
X148590000Y-87695000D03*
X147320000Y-87695000D03*
X146050000Y-87695000D03*
X144780000Y-87695000D03*
X143510000Y-87695000D03*
X142240000Y-87695000D03*
X142240000Y-92645000D03*
X143510000Y-92645000D03*
X144780000Y-92645000D03*
X146050000Y-92645000D03*
X147320000Y-92645000D03*
X148590000Y-92645000D03*
X149860000Y-92645000D03*
X151130000Y-92645000D03*
%TD*%
D18*
%TO.C,R1*%
X159385000Y-86805000D03*
X159385000Y-88455000D03*
%TD*%
D12*
%TO.C,J1*%
X135255000Y-92080000D03*
D13*
X135255000Y-89540000D03*
%TD*%
D19*
%TO.C,U2*%
X170815000Y-75360000D03*
X169545000Y-75360000D03*
X168275000Y-75360000D03*
X167005000Y-75360000D03*
X165735000Y-75360000D03*
X164465000Y-75360000D03*
X163195000Y-75360000D03*
X161925000Y-75360000D03*
X160655000Y-75360000D03*
X159385000Y-75360000D03*
X158115000Y-75360000D03*
X156845000Y-75360000D03*
X156845000Y-84660000D03*
X158115000Y-84660000D03*
X159385000Y-84660000D03*
X160655000Y-84660000D03*
X161925000Y-84660000D03*
X163195000Y-84660000D03*
X164465000Y-84660000D03*
X165735000Y-84660000D03*
X167005000Y-84660000D03*
X168275000Y-84660000D03*
X169545000Y-84660000D03*
X170815000Y-84660000D03*
%TD*%
M02*
