%TF.GenerationSoftware,KiCad,Pcbnew,(6.0.11-0)*%
%TF.CreationDate,2023-04-24T09:02:29-04:00*%
%TF.ProjectId,ClickerController,436c6963-6b65-4724-936f-6e74726f6c6c,rev?*%
%TF.SameCoordinates,Original*%
%TF.FileFunction,Copper,L1,Top*%
%TF.FilePolarity,Positive*%
%FSLAX46Y46*%
G04 Gerber Fmt 4.6, Leading zero omitted, Abs format (unit mm)*
G04 Created by KiCad (PCBNEW (6.0.11-0)) date 2023-04-24 09:02:29*
%MOMM*%
%LPD*%
G01*
G04 APERTURE LIST*
G04 Aperture macros list*
%AMRoundRect*
0 Rectangle with rounded corners*
0 $1 Rounding radius*
0 $2 $3 $4 $5 $6 $7 $8 $9 X,Y pos of 4 corners*
0 Add a 4 corners polygon primitive as box body*
4,1,4,$2,$3,$4,$5,$6,$7,$8,$9,$2,$3,0*
0 Add four circle primitives for the rounded corners*
1,1,$1+$1,$2,$3*
1,1,$1+$1,$4,$5*
1,1,$1+$1,$6,$7*
1,1,$1+$1,$8,$9*
0 Add four rect primitives between the rounded corners*
20,1,$1+$1,$2,$3,$4,$5,0*
20,1,$1+$1,$4,$5,$6,$7,0*
20,1,$1+$1,$6,$7,$8,$9,0*
20,1,$1+$1,$8,$9,$2,$3,0*%
G04 Aperture macros list end*
%TA.AperFunction,SMDPad,CuDef*%
%ADD10RoundRect,0.225000X0.225000X0.250000X-0.225000X0.250000X-0.225000X-0.250000X0.225000X-0.250000X0*%
%TD*%
%TA.AperFunction,SMDPad,CuDef*%
%ADD11RoundRect,0.225000X0.250000X-0.225000X0.250000X0.225000X-0.250000X0.225000X-0.250000X-0.225000X0*%
%TD*%
%TA.AperFunction,ComponentPad*%
%ADD12R,1.700000X1.700000*%
%TD*%
%TA.AperFunction,ComponentPad*%
%ADD13O,1.700000X1.700000*%
%TD*%
%TA.AperFunction,SMDPad,CuDef*%
%ADD14RoundRect,0.150000X-0.875000X-0.150000X0.875000X-0.150000X0.875000X0.150000X-0.875000X0.150000X0*%
%TD*%
%TA.AperFunction,SMDPad,CuDef*%
%ADD15R,2.000000X2.000000*%
%TD*%
%TA.AperFunction,SMDPad,CuDef*%
%ADD16RoundRect,0.200000X0.200000X0.275000X-0.200000X0.275000X-0.200000X-0.275000X0.200000X-0.275000X0*%
%TD*%
%TA.AperFunction,SMDPad,CuDef*%
%ADD17RoundRect,0.150000X-0.150000X0.825000X-0.150000X-0.825000X0.150000X-0.825000X0.150000X0.825000X0*%
%TD*%
%TA.AperFunction,SMDPad,CuDef*%
%ADD18RoundRect,0.200000X-0.275000X0.200000X-0.275000X-0.200000X0.275000X-0.200000X0.275000X0.200000X0*%
%TD*%
%TA.AperFunction,SMDPad,CuDef*%
%ADD19RoundRect,0.150000X-0.150000X0.875000X-0.150000X-0.875000X0.150000X-0.875000X0.150000X0.875000X0*%
%TD*%
%TA.AperFunction,ViaPad*%
%ADD20C,0.800000*%
%TD*%
%TA.AperFunction,Conductor*%
%ADD21C,0.250000*%
%TD*%
G04 APERTURE END LIST*
D10*
%TO.P,C2,1*%
%TO.N,GND*%
X154610000Y-68580000D03*
%TO.P,C2,2*%
%TO.N,5v*%
X153060000Y-68580000D03*
%TD*%
D11*
%TO.P,C1,1*%
%TO.N,GND*%
X170815000Y-88405000D03*
%TO.P,C1,2*%
%TO.N,5v*%
X170815000Y-86855000D03*
%TD*%
D12*
%TO.P,J2,1,Pin_1*%
%TO.N,SER*%
X156845000Y-92075000D03*
D13*
%TO.P,J2,2,Pin_2*%
%TO.N,RCLK*%
X159385000Y-92075000D03*
%TO.P,J2,3,Pin_3*%
%TO.N,SRCLK*%
X161925000Y-92075000D03*
%TD*%
D14*
%TO.P,U1,1,COM*%
%TO.N,Sig*%
X141400000Y-68580000D03*
%TO.P,U1,2,I7*%
%TO.N,Net-(J3-Pad4)*%
X141400000Y-69850000D03*
%TO.P,U1,3,I6*%
%TO.N,Net-(J3-Pad5)*%
X141400000Y-71120000D03*
%TO.P,U1,4,I5*%
%TO.N,Net-(J3-Pad6)*%
X141400000Y-72390000D03*
%TO.P,U1,5,I4*%
%TO.N,Net-(J3-Pad7)*%
X141400000Y-73660000D03*
%TO.P,U1,6,I3*%
%TO.N,Net-(J3-Pad8)*%
X141400000Y-74930000D03*
%TO.P,U1,7,I2*%
%TO.N,Net-(J3-Pad9)*%
X141400000Y-76200000D03*
%TO.P,U1,8,I1*%
%TO.N,Net-(J3-Pad10)*%
X141400000Y-77470000D03*
%TO.P,U1,9,I0*%
%TO.N,unconnected-(U1-Pad9)*%
X141400000Y-78740000D03*
%TO.P,U1,10,S0*%
%TO.N,Col0*%
X141400000Y-80010000D03*
%TO.P,U1,11,S1*%
%TO.N,Col1*%
X141400000Y-81280000D03*
%TO.P,U1,12,GND*%
%TO.N,GND*%
X141400000Y-82550000D03*
%TO.P,U1,13,S3*%
%TO.N,Col3*%
X150700000Y-82550000D03*
%TO.P,U1,14,S2*%
%TO.N,Col2*%
X150700000Y-81280000D03*
%TO.P,U1,15,~{E}*%
%TO.N,Net-(R2-Pad2)*%
X150700000Y-80010000D03*
%TO.P,U1,16,I15*%
%TO.N,unconnected-(U1-Pad16)*%
X150700000Y-78740000D03*
%TO.P,U1,17,I14*%
%TO.N,unconnected-(U1-Pad17)*%
X150700000Y-77470000D03*
%TO.P,U1,18,I13*%
%TO.N,unconnected-(U1-Pad18)*%
X150700000Y-76200000D03*
%TO.P,U1,19,I12*%
%TO.N,unconnected-(U1-Pad19)*%
X150700000Y-74930000D03*
%TO.P,U1,20,I11*%
%TO.N,unconnected-(U1-Pad20)*%
X150700000Y-73660000D03*
%TO.P,U1,21,I10*%
%TO.N,Net-(J3-Pad1)*%
X150700000Y-72390000D03*
%TO.P,U1,22,I9*%
%TO.N,Net-(J3-Pad2)*%
X150700000Y-71120000D03*
%TO.P,U1,23,I8*%
%TO.N,Net-(J3-Pad3)*%
X150700000Y-69850000D03*
%TO.P,U1,24,VCC*%
%TO.N,5v*%
X150700000Y-68580000D03*
%TD*%
D15*
%TO.P,J3,1,Pin_1*%
%TO.N,Net-(J3-Pad1)*%
X160020000Y-60960000D03*
%TO.P,J3,2,Pin_2*%
%TO.N,Net-(J3-Pad2)*%
X157480000Y-60960000D03*
%TO.P,J3,3,Pin_3*%
%TO.N,Net-(J3-Pad3)*%
X154940000Y-60960000D03*
%TO.P,J3,4,Pin_4*%
%TO.N,Net-(J3-Pad4)*%
X152400000Y-60960000D03*
%TO.P,J3,5,Pin_5*%
%TO.N,Net-(J3-Pad5)*%
X149860000Y-60960000D03*
%TO.P,J3,6,Pin_6*%
%TO.N,Net-(J3-Pad6)*%
X147320000Y-60960000D03*
%TO.P,J3,7,Pin_7*%
%TO.N,Net-(J3-Pad7)*%
X144780000Y-60960000D03*
%TO.P,J3,8,Pin_8*%
%TO.N,Net-(J3-Pad8)*%
X142240000Y-60960000D03*
%TO.P,J3,9,Pin_9*%
%TO.N,Net-(J3-Pad9)*%
X139700000Y-60960000D03*
%TO.P,J3,10,Pin_10*%
%TO.N,Net-(J3-Pad10)*%
X137160000Y-60960000D03*
%TD*%
D16*
%TO.P,R2,1*%
%TO.N,GND*%
X154495000Y-80010000D03*
%TO.P,R2,2*%
%TO.N,Net-(R2-Pad2)*%
X152845000Y-80010000D03*
%TD*%
D15*
%TO.P,J4,1,Pin_1*%
%TO.N,Net-(J4-Pad1)*%
X169545000Y-69215000D03*
%TO.P,J4,2,Pin_2*%
%TO.N,Net-(J4-Pad2)*%
X169545000Y-66675000D03*
%TO.P,J4,3,Pin_3*%
%TO.N,Net-(J4-Pad3)*%
X169545000Y-64135000D03*
%TO.P,J4,4,Pin_4*%
%TO.N,Net-(J4-Pad4)*%
X169545000Y-61595000D03*
%TD*%
D17*
%TO.P,U3,1,QB*%
%TO.N,Col2*%
X151130000Y-87695000D03*
%TO.P,U3,2,QC*%
%TO.N,Col1*%
X149860000Y-87695000D03*
%TO.P,U3,3,QD*%
%TO.N,Col0*%
X148590000Y-87695000D03*
%TO.P,U3,4,QE*%
%TO.N,Row3*%
X147320000Y-87695000D03*
%TO.P,U3,5,QF*%
%TO.N,Row2*%
X146050000Y-87695000D03*
%TO.P,U3,6,QG*%
%TO.N,Row1*%
X144780000Y-87695000D03*
%TO.P,U3,7,QH*%
%TO.N,Row0*%
X143510000Y-87695000D03*
%TO.P,U3,8,GND*%
%TO.N,GND*%
X142240000Y-87695000D03*
%TO.P,U3,9,QH'*%
%TO.N,unconnected-(U3-Pad9)*%
X142240000Y-92645000D03*
%TO.P,U3,10,~{SRCLR}*%
%TO.N,5v*%
X143510000Y-92645000D03*
%TO.P,U3,11,SRCLK*%
%TO.N,SRCLK*%
X144780000Y-92645000D03*
%TO.P,U3,12,RCLK*%
%TO.N,RCLK*%
X146050000Y-92645000D03*
%TO.P,U3,13,~{OE}*%
%TO.N,GND*%
X147320000Y-92645000D03*
%TO.P,U3,14,SER*%
%TO.N,SER*%
X148590000Y-92645000D03*
%TO.P,U3,15,QA*%
%TO.N,Col3*%
X149860000Y-92645000D03*
%TO.P,U3,16,VCC*%
%TO.N,5v*%
X151130000Y-92645000D03*
%TD*%
D18*
%TO.P,R1,1*%
%TO.N,Net-(R1-Pad1)*%
X159385000Y-86805000D03*
%TO.P,R1,2*%
%TO.N,GND*%
X159385000Y-88455000D03*
%TD*%
D12*
%TO.P,J1,1,Pin_1*%
%TO.N,5v*%
X135255000Y-92080000D03*
D13*
%TO.P,J1,2,Pin_2*%
%TO.N,GND*%
X135255000Y-89540000D03*
%TD*%
D19*
%TO.P,U2,1,COM*%
%TO.N,Sig*%
X170815000Y-75360000D03*
%TO.P,U2,2,I7*%
%TO.N,unconnected-(U2-Pad2)*%
X169545000Y-75360000D03*
%TO.P,U2,3,I6*%
%TO.N,unconnected-(U2-Pad3)*%
X168275000Y-75360000D03*
%TO.P,U2,4,I5*%
%TO.N,unconnected-(U2-Pad4)*%
X167005000Y-75360000D03*
%TO.P,U2,5,I4*%
%TO.N,Net-(J4-Pad1)*%
X165735000Y-75360000D03*
%TO.P,U2,6,I3*%
%TO.N,Net-(J4-Pad2)*%
X164465000Y-75360000D03*
%TO.P,U2,7,I2*%
%TO.N,Net-(J4-Pad3)*%
X163195000Y-75360000D03*
%TO.P,U2,8,I1*%
%TO.N,Net-(J4-Pad4)*%
X161925000Y-75360000D03*
%TO.P,U2,9,I0*%
%TO.N,unconnected-(U2-Pad9)*%
X160655000Y-75360000D03*
%TO.P,U2,10,S0*%
%TO.N,Row0*%
X159385000Y-75360000D03*
%TO.P,U2,11,S1*%
%TO.N,Row1*%
X158115000Y-75360000D03*
%TO.P,U2,12,GND*%
%TO.N,GND*%
X156845000Y-75360000D03*
%TO.P,U2,13,S3*%
%TO.N,Row3*%
X156845000Y-84660000D03*
%TO.P,U2,14,S2*%
%TO.N,Row2*%
X158115000Y-84660000D03*
%TO.P,U2,15,~{E}*%
%TO.N,Net-(R1-Pad1)*%
X159385000Y-84660000D03*
%TO.P,U2,16,I15*%
%TO.N,unconnected-(U2-Pad16)*%
X160655000Y-84660000D03*
%TO.P,U2,17,I14*%
%TO.N,unconnected-(U2-Pad17)*%
X161925000Y-84660000D03*
%TO.P,U2,18,I13*%
%TO.N,unconnected-(U2-Pad18)*%
X163195000Y-84660000D03*
%TO.P,U2,19,I12*%
%TO.N,unconnected-(U2-Pad19)*%
X164465000Y-84660000D03*
%TO.P,U2,20,I11*%
%TO.N,unconnected-(U2-Pad20)*%
X165735000Y-84660000D03*
%TO.P,U2,21,I10*%
%TO.N,unconnected-(U2-Pad21)*%
X167005000Y-84660000D03*
%TO.P,U2,22,I9*%
%TO.N,unconnected-(U2-Pad22)*%
X168275000Y-84660000D03*
%TO.P,U2,23,I8*%
%TO.N,unconnected-(U2-Pad23)*%
X169545000Y-84660000D03*
%TO.P,U2,24,VCC*%
%TO.N,5v*%
X170815000Y-84660000D03*
%TD*%
D20*
%TO.N,GND*%
X142240000Y-87630000D03*
X140970000Y-82550000D03*
X154305000Y-66675000D03*
%TO.N,5v*%
X170815000Y-84455000D03*
X151130000Y-92710000D03*
X143510000Y-92710000D03*
X150700000Y-68580000D03*
%TO.N,Col0*%
X148590000Y-87630000D03*
X141605000Y-80010000D03*
%TO.N,Col3*%
X150495000Y-84455000D03*
X149860000Y-92710000D03*
%TO.N,Sig*%
X141605000Y-68580000D03*
X170815000Y-74930000D03*
%TO.N,Row0*%
X159385000Y-75565000D03*
X143510000Y-87630000D03*
%TO.N,Row1*%
X158115000Y-75565000D03*
X144780000Y-87630000D03*
%TD*%
D21*
%TO.N,Net-(J4-Pad4)*%
X161925000Y-75360000D02*
X161925000Y-64135000D01*
X164465000Y-61595000D02*
X169545000Y-61595000D01*
X161925000Y-64135000D02*
X164465000Y-61595000D01*
%TO.N,5v*%
X135255000Y-92710000D02*
X135255000Y-92080000D01*
X143510000Y-92710000D02*
X143510000Y-95250000D01*
X152715000Y-68580000D02*
X150700000Y-68580000D01*
X138430000Y-95885000D02*
X135255000Y-92710000D01*
X143510000Y-95250000D02*
X142875000Y-95885000D01*
X170815000Y-86675000D02*
X170815000Y-84660000D01*
X142875000Y-95885000D02*
X138430000Y-95885000D01*
X143510000Y-92645000D02*
X143510000Y-92710000D01*
%TO.N,SER*%
X155575000Y-92075000D02*
X153670000Y-90170000D01*
X149860000Y-90170000D02*
X148590000Y-91440000D01*
X153670000Y-90170000D02*
X149860000Y-90170000D01*
X148590000Y-91440000D02*
X148590000Y-92645000D01*
X156845000Y-92075000D02*
X155575000Y-92075000D01*
%TO.N,SRCLK*%
X160020000Y-95885000D02*
X146685000Y-95885000D01*
X146685000Y-95885000D02*
X144780000Y-93980000D01*
X144780000Y-93980000D02*
X144780000Y-92645000D01*
X161925000Y-92075000D02*
X161925000Y-93980000D01*
X161925000Y-93980000D02*
X160020000Y-95885000D01*
%TO.N,RCLK*%
X158115000Y-94615000D02*
X147320000Y-94615000D01*
X147320000Y-94615000D02*
X146050000Y-93345000D01*
X159385000Y-93345000D02*
X158115000Y-94615000D01*
X159385000Y-92075000D02*
X159385000Y-93345000D01*
X146050000Y-93345000D02*
X146050000Y-92645000D01*
%TO.N,Net-(J3-Pad10)*%
X141400000Y-77470000D02*
X137795000Y-77470000D01*
X133350000Y-64770000D02*
X137160000Y-60960000D01*
X137795000Y-77470000D02*
X133350000Y-73025000D01*
X133350000Y-73025000D02*
X133350000Y-64770000D01*
%TO.N,Net-(J3-Pad9)*%
X137740000Y-62285000D02*
X138375000Y-62285000D01*
X134620000Y-65405000D02*
X137740000Y-62285000D01*
X141400000Y-76200000D02*
X138430000Y-76200000D01*
X134620000Y-72390000D02*
X134620000Y-65405000D01*
X138430000Y-76200000D02*
X134620000Y-72390000D01*
X138375000Y-62285000D02*
X139700000Y-60960000D01*
%TO.N,Net-(J3-Pad8)*%
X135890000Y-72390000D02*
X135890000Y-65405000D01*
X141400000Y-74930000D02*
X138430000Y-74930000D01*
X135890000Y-65405000D02*
X137795000Y-63500000D01*
X138430000Y-74930000D02*
X135890000Y-72390000D01*
X143510000Y-62230000D02*
X142240000Y-60960000D01*
X137795000Y-63500000D02*
X142875000Y-63500000D01*
X143510000Y-62865000D02*
X143510000Y-62230000D01*
X142875000Y-63500000D02*
X143510000Y-62865000D01*
%TO.N,Net-(J3-Pad7)*%
X141400000Y-73660000D02*
X138430000Y-73660000D01*
X144780000Y-64135000D02*
X145415000Y-63500000D01*
X145415000Y-63500000D02*
X145415000Y-61595000D01*
X136525000Y-66040000D02*
X138430000Y-64135000D01*
X145415000Y-61595000D02*
X144780000Y-60960000D01*
X138430000Y-64135000D02*
X144780000Y-64135000D01*
X138430000Y-73660000D02*
X136525000Y-71755000D01*
X136525000Y-71755000D02*
X136525000Y-66040000D01*
%TO.N,Net-(J3-Pad6)*%
X139065000Y-72390000D02*
X137795000Y-71120000D01*
X139065000Y-65405000D02*
X146685000Y-65405000D01*
X146685000Y-65405000D02*
X147320000Y-64770000D01*
X147320000Y-64770000D02*
X147320000Y-60960000D01*
X137795000Y-71120000D02*
X137795000Y-66675000D01*
X141400000Y-72390000D02*
X139065000Y-72390000D01*
X137795000Y-66675000D02*
X139065000Y-65405000D01*
%TO.N,Net-(J3-Pad5)*%
X139065000Y-70485000D02*
X139065000Y-67310000D01*
X141400000Y-71120000D02*
X139700000Y-71120000D01*
X139700000Y-66675000D02*
X147955000Y-66675000D01*
X139065000Y-67310000D02*
X139700000Y-66675000D01*
X147955000Y-66675000D02*
X149860000Y-64770000D01*
X149860000Y-64770000D02*
X149860000Y-60960000D01*
X139700000Y-71120000D02*
X139065000Y-70485000D01*
%TO.N,Net-(J3-Pad4)*%
X141400000Y-69850000D02*
X146685000Y-69850000D01*
X152400000Y-64135000D02*
X152400000Y-60960000D01*
X146685000Y-69850000D02*
X152400000Y-64135000D01*
%TO.N,Net-(J3-Pad3)*%
X156210000Y-69850000D02*
X156845000Y-69215000D01*
X156845000Y-64135000D02*
X154940000Y-62230000D01*
X154940000Y-62230000D02*
X154940000Y-60960000D01*
X150700000Y-69850000D02*
X156210000Y-69850000D01*
X156845000Y-69215000D02*
X156845000Y-64135000D01*
%TO.N,Net-(J3-Pad2)*%
X157480000Y-62230000D02*
X157480000Y-60960000D01*
X157480000Y-71120000D02*
X158750000Y-69850000D01*
X158750000Y-63500000D02*
X157480000Y-62230000D01*
X150700000Y-71120000D02*
X157480000Y-71120000D01*
X158750000Y-69850000D02*
X158750000Y-63500000D01*
%TO.N,Net-(J3-Pad1)*%
X160020000Y-70485000D02*
X160020000Y-60960000D01*
X150700000Y-72390000D02*
X158115000Y-72390000D01*
X158115000Y-72390000D02*
X160020000Y-70485000D01*
%TO.N,Net-(J4-Pad3)*%
X164465000Y-64135000D02*
X163195000Y-65405000D01*
X163195000Y-65405000D02*
X163195000Y-75360000D01*
X169545000Y-64135000D02*
X164465000Y-64135000D01*
%TO.N,Net-(J4-Pad2)*%
X166370000Y-66675000D02*
X169545000Y-66675000D01*
X164465000Y-68580000D02*
X166370000Y-66675000D01*
X164465000Y-75360000D02*
X164465000Y-68580000D01*
%TO.N,Net-(J4-Pad1)*%
X165735000Y-75360000D02*
X165735000Y-70485000D01*
X165735000Y-70485000D02*
X167005000Y-69215000D01*
X167005000Y-69215000D02*
X169545000Y-69215000D01*
%TO.N,Net-(R1-Pad1)*%
X159385000Y-84660000D02*
X159385000Y-86805000D01*
%TO.N,Net-(R2-Pad2)*%
X150700000Y-80010000D02*
X152845000Y-80010000D01*
%TO.N,Col1*%
X138430000Y-81915000D02*
X139065000Y-81280000D01*
X139065000Y-81280000D02*
X141400000Y-81280000D01*
X139065000Y-85725000D02*
X138430000Y-85090000D01*
X138430000Y-85090000D02*
X138430000Y-81915000D01*
X148590000Y-85725000D02*
X139065000Y-85725000D01*
X149860000Y-87695000D02*
X149860000Y-86995000D01*
X149860000Y-86995000D02*
X148590000Y-85725000D01*
%TO.N,Col3*%
X150700000Y-84250000D02*
X150495000Y-84455000D01*
X150700000Y-82550000D02*
X150700000Y-84250000D01*
%TO.N,Col2*%
X152400000Y-81280000D02*
X150700000Y-81280000D01*
X151130000Y-85725000D02*
X153035000Y-83820000D01*
X153035000Y-81915000D02*
X152400000Y-81280000D01*
X153035000Y-83820000D02*
X153035000Y-81915000D01*
X151130000Y-87695000D02*
X151130000Y-85725000D01*
%TO.N,Row3*%
X147320000Y-88071751D02*
X148243249Y-88995000D01*
X148243249Y-88995000D02*
X152510000Y-88995000D01*
X147320000Y-87695000D02*
X147320000Y-88071751D01*
X152510000Y-88995000D02*
X156845000Y-84660000D01*
%TO.N,Row2*%
X146050000Y-87695000D02*
X146050000Y-88071751D01*
X147513249Y-89535000D02*
X153670000Y-89535000D01*
X153670000Y-89535000D02*
X158115000Y-85090000D01*
X146050000Y-88071751D02*
X147513249Y-89535000D01*
%TD*%
%TA.AperFunction,Conductor*%
%TO.N,GND*%
G36*
X170958431Y-57932502D02*
G01*
X170979405Y-57949405D01*
X173190595Y-60160595D01*
X173224621Y-60222907D01*
X173227500Y-60249690D01*
X173227500Y-95325310D01*
X173207498Y-95393431D01*
X173190595Y-95414405D01*
X170852405Y-97752595D01*
X170790093Y-97786621D01*
X170763310Y-97789500D01*
X134036690Y-97789500D01*
X133968569Y-97769498D01*
X133947595Y-97752595D01*
X131609405Y-95414405D01*
X131575379Y-95352093D01*
X131572500Y-95325310D01*
X131572500Y-89274183D01*
X133919389Y-89274183D01*
X133920912Y-89282607D01*
X133933292Y-89286000D01*
X134982885Y-89286000D01*
X134998124Y-89281525D01*
X134999329Y-89280135D01*
X135001000Y-89272452D01*
X135001000Y-89267885D01*
X135509000Y-89267885D01*
X135513475Y-89283124D01*
X135514865Y-89284329D01*
X135522548Y-89286000D01*
X136573344Y-89286000D01*
X136586875Y-89282027D01*
X136588180Y-89272947D01*
X136546214Y-89105875D01*
X136542894Y-89096124D01*
X136457972Y-88900814D01*
X136453105Y-88891739D01*
X136337426Y-88712926D01*
X136331136Y-88704757D01*
X136221241Y-88583984D01*
X141432001Y-88583984D01*
X141432195Y-88588920D01*
X141434430Y-88617336D01*
X141436730Y-88629931D01*
X141479107Y-88775790D01*
X141485352Y-88790221D01*
X141561911Y-88919678D01*
X141571551Y-88932104D01*
X141677896Y-89038449D01*
X141690322Y-89048089D01*
X141819779Y-89124648D01*
X141834210Y-89130893D01*
X141968605Y-89169939D01*
X141982706Y-89169899D01*
X141986000Y-89162630D01*
X141986000Y-87967115D01*
X141981525Y-87951876D01*
X141980135Y-87950671D01*
X141972452Y-87949000D01*
X141450116Y-87949000D01*
X141434877Y-87953475D01*
X141433672Y-87954865D01*
X141432001Y-87962548D01*
X141432001Y-88583984D01*
X136221241Y-88583984D01*
X136187806Y-88547240D01*
X136180273Y-88540215D01*
X136013139Y-88408222D01*
X136004552Y-88402517D01*
X135818117Y-88299599D01*
X135808705Y-88295369D01*
X135607959Y-88224280D01*
X135597988Y-88221646D01*
X135526837Y-88208972D01*
X135513540Y-88210432D01*
X135509000Y-88224989D01*
X135509000Y-89267885D01*
X135001000Y-89267885D01*
X135001000Y-88223102D01*
X134997082Y-88209758D01*
X134982806Y-88207771D01*
X134944324Y-88213660D01*
X134934288Y-88216051D01*
X134731868Y-88282212D01*
X134722359Y-88286209D01*
X134533463Y-88384542D01*
X134524738Y-88390036D01*
X134354433Y-88517905D01*
X134346726Y-88524748D01*
X134199590Y-88678717D01*
X134193104Y-88686727D01*
X134073098Y-88862649D01*
X134068000Y-88871623D01*
X133978338Y-89064783D01*
X133974775Y-89074470D01*
X133919389Y-89274183D01*
X131572500Y-89274183D01*
X131572500Y-64749943D01*
X132711780Y-64749943D01*
X132712526Y-64757835D01*
X132715941Y-64793961D01*
X132716500Y-64805819D01*
X132716500Y-72946233D01*
X132715973Y-72957416D01*
X132714298Y-72964909D01*
X132714547Y-72972835D01*
X132714547Y-72972836D01*
X132716438Y-73032986D01*
X132716500Y-73036945D01*
X132716500Y-73064856D01*
X132716997Y-73068790D01*
X132716997Y-73068791D01*
X132717005Y-73068856D01*
X132717938Y-73080693D01*
X132719327Y-73124889D01*
X132724978Y-73144339D01*
X132728987Y-73163700D01*
X132731526Y-73183797D01*
X132734445Y-73191168D01*
X132734445Y-73191170D01*
X132747804Y-73224912D01*
X132751649Y-73236142D01*
X132763982Y-73278593D01*
X132768015Y-73285412D01*
X132768017Y-73285417D01*
X132774293Y-73296028D01*
X132782988Y-73313776D01*
X132790448Y-73332617D01*
X132795110Y-73339033D01*
X132795110Y-73339034D01*
X132816436Y-73368387D01*
X132822952Y-73378307D01*
X132839430Y-73406169D01*
X132845458Y-73416362D01*
X132859779Y-73430683D01*
X132872619Y-73445716D01*
X132884528Y-73462107D01*
X132890634Y-73467158D01*
X132918605Y-73490298D01*
X132927384Y-73498288D01*
X137291343Y-77862247D01*
X137298887Y-77870537D01*
X137303000Y-77877018D01*
X137308777Y-77882443D01*
X137352667Y-77923658D01*
X137355509Y-77926413D01*
X137375230Y-77946134D01*
X137378425Y-77948612D01*
X137387447Y-77956318D01*
X137419679Y-77986586D01*
X137426628Y-77990406D01*
X137437432Y-77996346D01*
X137453956Y-78007199D01*
X137469959Y-78019613D01*
X137510543Y-78037176D01*
X137521173Y-78042383D01*
X137559940Y-78063695D01*
X137567617Y-78065666D01*
X137567622Y-78065668D01*
X137579558Y-78068732D01*
X137598266Y-78075137D01*
X137616855Y-78083181D01*
X137624683Y-78084421D01*
X137624690Y-78084423D01*
X137660524Y-78090099D01*
X137672144Y-78092505D01*
X137707289Y-78101528D01*
X137714970Y-78103500D01*
X137735224Y-78103500D01*
X137754934Y-78105051D01*
X137774943Y-78108220D01*
X137782835Y-78107474D01*
X137818961Y-78104059D01*
X137830819Y-78103500D01*
X139826776Y-78103500D01*
X139894897Y-78123502D01*
X139941390Y-78177158D01*
X139951494Y-78247432D01*
X139935231Y-78293636D01*
X139915855Y-78326399D01*
X139869438Y-78486169D01*
X139866500Y-78523498D01*
X139866500Y-78956502D01*
X139869438Y-78993831D01*
X139915855Y-79153601D01*
X140000547Y-79296807D01*
X140003229Y-79299489D01*
X140028502Y-79363861D01*
X140014600Y-79433484D01*
X140004428Y-79449312D01*
X140000547Y-79453193D01*
X139915855Y-79596399D01*
X139869438Y-79756169D01*
X139866500Y-79793498D01*
X139866500Y-80226502D01*
X139869438Y-80263831D01*
X139915855Y-80423601D01*
X139935231Y-80456363D01*
X139952689Y-80525178D01*
X139930172Y-80592509D01*
X139874827Y-80636978D01*
X139826776Y-80646500D01*
X139143768Y-80646500D01*
X139132585Y-80645973D01*
X139125092Y-80644298D01*
X139117166Y-80644547D01*
X139117165Y-80644547D01*
X139057002Y-80646438D01*
X139053044Y-80646500D01*
X139025144Y-80646500D01*
X139021154Y-80647004D01*
X139009320Y-80647936D01*
X138965111Y-80649326D01*
X138957495Y-80651539D01*
X138957493Y-80651539D01*
X138945652Y-80654979D01*
X138926293Y-80658988D01*
X138924983Y-80659154D01*
X138906203Y-80661526D01*
X138898837Y-80664442D01*
X138898831Y-80664444D01*
X138865098Y-80677800D01*
X138853868Y-80681645D01*
X138819017Y-80691770D01*
X138811407Y-80693981D01*
X138804584Y-80698016D01*
X138793966Y-80704295D01*
X138776213Y-80712992D01*
X138768568Y-80716019D01*
X138757383Y-80720448D01*
X138744206Y-80730022D01*
X138721612Y-80746437D01*
X138711695Y-80752951D01*
X138673638Y-80775458D01*
X138659317Y-80789779D01*
X138644284Y-80802619D01*
X138627893Y-80814528D01*
X138606102Y-80840869D01*
X138599712Y-80848593D01*
X138591722Y-80857374D01*
X138037742Y-81411353D01*
X138029463Y-81418887D01*
X138022982Y-81423000D01*
X137997898Y-81449712D01*
X137976357Y-81472651D01*
X137973602Y-81475493D01*
X137953865Y-81495230D01*
X137951385Y-81498427D01*
X137943682Y-81507447D01*
X137913414Y-81539679D01*
X137909595Y-81546625D01*
X137909593Y-81546628D01*
X137903652Y-81557434D01*
X137892801Y-81573953D01*
X137880386Y-81589959D01*
X137877241Y-81597228D01*
X137877238Y-81597232D01*
X137862826Y-81630537D01*
X137857609Y-81641187D01*
X137836305Y-81679940D01*
X137834334Y-81687615D01*
X137834334Y-81687616D01*
X137831267Y-81699562D01*
X137824863Y-81718266D01*
X137816819Y-81736855D01*
X137815580Y-81744678D01*
X137815577Y-81744688D01*
X137809901Y-81780524D01*
X137807495Y-81792144D01*
X137801599Y-81815111D01*
X137796500Y-81834970D01*
X137796500Y-81855224D01*
X137794949Y-81874934D01*
X137791780Y-81894943D01*
X137792526Y-81902835D01*
X137795941Y-81938961D01*
X137796500Y-81950819D01*
X137796500Y-85011233D01*
X137795973Y-85022416D01*
X137794298Y-85029909D01*
X137794547Y-85037835D01*
X137794547Y-85037836D01*
X137796438Y-85097986D01*
X137796500Y-85101945D01*
X137796500Y-85129856D01*
X137796997Y-85133790D01*
X137796997Y-85133791D01*
X137797005Y-85133856D01*
X137797938Y-85145693D01*
X137799327Y-85189889D01*
X137803599Y-85204593D01*
X137804978Y-85209339D01*
X137808987Y-85228700D01*
X137811526Y-85248797D01*
X137814445Y-85256168D01*
X137814445Y-85256170D01*
X137827804Y-85289912D01*
X137831649Y-85301142D01*
X137839017Y-85326502D01*
X137843982Y-85343593D01*
X137848015Y-85350412D01*
X137848017Y-85350417D01*
X137854293Y-85361028D01*
X137862988Y-85378776D01*
X137870448Y-85397617D01*
X137875110Y-85404033D01*
X137875110Y-85404034D01*
X137896436Y-85433387D01*
X137902952Y-85443307D01*
X137925458Y-85481362D01*
X137939779Y-85495683D01*
X137952619Y-85510716D01*
X137964528Y-85527107D01*
X137988399Y-85546855D01*
X137998605Y-85555298D01*
X138007384Y-85563288D01*
X138561343Y-86117247D01*
X138568887Y-86125537D01*
X138573000Y-86132018D01*
X138578777Y-86137443D01*
X138622667Y-86178658D01*
X138625509Y-86181413D01*
X138645231Y-86201135D01*
X138648355Y-86203558D01*
X138648359Y-86203562D01*
X138648424Y-86203612D01*
X138657445Y-86211317D01*
X138689679Y-86241586D01*
X138696627Y-86245405D01*
X138696629Y-86245407D01*
X138707432Y-86251346D01*
X138723959Y-86262202D01*
X138733698Y-86269757D01*
X138733700Y-86269758D01*
X138739960Y-86274614D01*
X138780540Y-86292174D01*
X138791188Y-86297391D01*
X138829940Y-86318695D01*
X138837616Y-86320666D01*
X138837619Y-86320667D01*
X138849562Y-86323733D01*
X138868267Y-86330137D01*
X138886855Y-86338181D01*
X138894678Y-86339420D01*
X138894688Y-86339423D01*
X138930524Y-86345099D01*
X138942144Y-86347505D01*
X138977289Y-86356528D01*
X138984970Y-86358500D01*
X139005224Y-86358500D01*
X139024934Y-86360051D01*
X139044943Y-86363220D01*
X139052835Y-86362474D01*
X139078467Y-86360051D01*
X139088962Y-86359059D01*
X139100819Y-86358500D01*
X141407142Y-86358500D01*
X141475263Y-86378502D01*
X141521756Y-86432158D01*
X141531860Y-86502432D01*
X141515596Y-86548639D01*
X141485352Y-86599779D01*
X141479107Y-86614210D01*
X141436731Y-86760065D01*
X141434430Y-86772667D01*
X141432193Y-86801084D01*
X141432000Y-86806014D01*
X141432000Y-87422885D01*
X141436475Y-87438124D01*
X141437865Y-87439329D01*
X141445548Y-87441000D01*
X142368000Y-87441000D01*
X142436121Y-87461002D01*
X142482614Y-87514658D01*
X142494000Y-87567000D01*
X142494000Y-89156878D01*
X142497973Y-89170409D01*
X142505871Y-89171544D01*
X142645790Y-89130893D01*
X142660221Y-89124648D01*
X142789676Y-89048090D01*
X142797364Y-89042126D01*
X142863449Y-89016179D01*
X142933072Y-89030080D01*
X142949158Y-89040418D01*
X142953193Y-89044453D01*
X143096399Y-89129145D01*
X143104010Y-89131356D01*
X143104012Y-89131357D01*
X143156231Y-89146528D01*
X143256169Y-89175562D01*
X143262574Y-89176066D01*
X143262579Y-89176067D01*
X143291042Y-89178307D01*
X143291050Y-89178307D01*
X143293498Y-89178500D01*
X143726502Y-89178500D01*
X143728950Y-89178307D01*
X143728958Y-89178307D01*
X143757421Y-89176067D01*
X143757426Y-89176066D01*
X143763831Y-89175562D01*
X143863769Y-89146528D01*
X143915988Y-89131357D01*
X143915990Y-89131356D01*
X143923601Y-89129145D01*
X144066807Y-89044453D01*
X144069489Y-89041771D01*
X144133861Y-89016498D01*
X144203484Y-89030400D01*
X144219312Y-89040572D01*
X144223193Y-89044453D01*
X144366399Y-89129145D01*
X144374010Y-89131356D01*
X144374012Y-89131357D01*
X144426231Y-89146528D01*
X144526169Y-89175562D01*
X144532574Y-89176066D01*
X144532579Y-89176067D01*
X144561042Y-89178307D01*
X144561050Y-89178307D01*
X144563498Y-89178500D01*
X144996502Y-89178500D01*
X144998950Y-89178307D01*
X144998958Y-89178307D01*
X145027421Y-89176067D01*
X145027426Y-89176066D01*
X145033831Y-89175562D01*
X145133769Y-89146528D01*
X145185988Y-89131357D01*
X145185990Y-89131356D01*
X145193601Y-89129145D01*
X145336807Y-89044453D01*
X145339489Y-89041771D01*
X145403861Y-89016498D01*
X145473484Y-89030400D01*
X145489312Y-89040572D01*
X145493193Y-89044453D01*
X145636399Y-89129145D01*
X145644010Y-89131356D01*
X145644012Y-89131357D01*
X145696231Y-89146528D01*
X145796169Y-89175562D01*
X145802574Y-89176066D01*
X145802579Y-89176067D01*
X145831042Y-89178307D01*
X145831050Y-89178307D01*
X145833498Y-89178500D01*
X146208655Y-89178500D01*
X146276776Y-89198502D01*
X146297750Y-89215405D01*
X147009592Y-89927247D01*
X147017136Y-89935537D01*
X147021249Y-89942018D01*
X147027026Y-89947443D01*
X147070916Y-89988658D01*
X147073758Y-89991413D01*
X147093480Y-90011135D01*
X147096604Y-90013558D01*
X147096608Y-90013562D01*
X147096673Y-90013612D01*
X147105694Y-90021317D01*
X147137928Y-90051586D01*
X147144876Y-90055405D01*
X147144878Y-90055407D01*
X147155681Y-90061346D01*
X147172208Y-90072202D01*
X147181947Y-90079757D01*
X147181949Y-90079758D01*
X147188209Y-90084614D01*
X147228789Y-90102174D01*
X147239437Y-90107391D01*
X147278189Y-90128695D01*
X147285865Y-90130666D01*
X147285868Y-90130667D01*
X147297811Y-90133733D01*
X147316516Y-90140137D01*
X147335104Y-90148181D01*
X147342927Y-90149420D01*
X147342937Y-90149423D01*
X147378773Y-90155099D01*
X147390393Y-90157505D01*
X147425538Y-90166528D01*
X147433219Y-90168500D01*
X147453473Y-90168500D01*
X147473183Y-90170051D01*
X147493192Y-90173220D01*
X147501084Y-90172474D01*
X147537210Y-90169059D01*
X147549068Y-90168500D01*
X148661405Y-90168500D01*
X148729526Y-90188502D01*
X148776019Y-90242158D01*
X148786123Y-90312432D01*
X148756629Y-90377012D01*
X148750500Y-90383595D01*
X148197747Y-90936348D01*
X148189461Y-90943888D01*
X148182982Y-90948000D01*
X148177557Y-90953777D01*
X148136357Y-90997651D01*
X148133602Y-91000493D01*
X148113865Y-91020230D01*
X148111385Y-91023427D01*
X148103682Y-91032447D01*
X148073414Y-91064679D01*
X148069595Y-91071625D01*
X148069593Y-91071628D01*
X148063652Y-91082434D01*
X148052801Y-91098953D01*
X148040386Y-91114959D01*
X148037241Y-91122228D01*
X148037238Y-91122232D01*
X148022826Y-91155537D01*
X148017609Y-91166187D01*
X147996305Y-91204940D01*
X147996305Y-91204941D01*
X147995571Y-91204537D01*
X147955885Y-91255405D01*
X147888883Y-91278884D01*
X147818264Y-91261505D01*
X147740225Y-91215354D01*
X147725790Y-91209107D01*
X147591395Y-91170061D01*
X147577294Y-91170101D01*
X147574000Y-91177370D01*
X147574000Y-92773000D01*
X147553998Y-92841121D01*
X147500342Y-92887614D01*
X147448000Y-92899000D01*
X147192000Y-92899000D01*
X147123879Y-92878998D01*
X147077386Y-92825342D01*
X147066000Y-92773000D01*
X147066000Y-91183122D01*
X147062027Y-91169591D01*
X147054129Y-91168456D01*
X146914210Y-91209107D01*
X146899779Y-91215352D01*
X146770324Y-91291910D01*
X146762636Y-91297874D01*
X146696551Y-91323821D01*
X146626928Y-91309920D01*
X146610842Y-91299582D01*
X146606807Y-91295547D01*
X146578632Y-91278884D01*
X146470427Y-91214892D01*
X146470428Y-91214892D01*
X146463601Y-91210855D01*
X146455990Y-91208644D01*
X146455988Y-91208643D01*
X146403769Y-91193472D01*
X146303831Y-91164438D01*
X146297426Y-91163934D01*
X146297421Y-91163933D01*
X146268958Y-91161693D01*
X146268950Y-91161693D01*
X146266502Y-91161500D01*
X145833498Y-91161500D01*
X145831050Y-91161693D01*
X145831042Y-91161693D01*
X145802579Y-91163933D01*
X145802574Y-91163934D01*
X145796169Y-91164438D01*
X145696231Y-91193472D01*
X145644012Y-91208643D01*
X145644010Y-91208644D01*
X145636399Y-91210855D01*
X145493193Y-91295547D01*
X145490511Y-91298229D01*
X145426139Y-91323502D01*
X145356516Y-91309600D01*
X145340688Y-91299428D01*
X145336807Y-91295547D01*
X145193601Y-91210855D01*
X145185990Y-91208644D01*
X145185988Y-91208643D01*
X145133769Y-91193472D01*
X145033831Y-91164438D01*
X145027426Y-91163934D01*
X145027421Y-91163933D01*
X144998958Y-91161693D01*
X144998950Y-91161693D01*
X144996502Y-91161500D01*
X144563498Y-91161500D01*
X144561050Y-91161693D01*
X144561042Y-91161693D01*
X144532579Y-91163933D01*
X144532574Y-91163934D01*
X144526169Y-91164438D01*
X144426231Y-91193472D01*
X144374012Y-91208643D01*
X144374010Y-91208644D01*
X144366399Y-91210855D01*
X144223193Y-91295547D01*
X144220511Y-91298229D01*
X144156139Y-91323502D01*
X144086516Y-91309600D01*
X144070688Y-91299428D01*
X144066807Y-91295547D01*
X143923601Y-91210855D01*
X143915990Y-91208644D01*
X143915988Y-91208643D01*
X143863769Y-91193472D01*
X143763831Y-91164438D01*
X143757426Y-91163934D01*
X143757421Y-91163933D01*
X143728958Y-91161693D01*
X143728950Y-91161693D01*
X143726502Y-91161500D01*
X143293498Y-91161500D01*
X143291050Y-91161693D01*
X143291042Y-91161693D01*
X143262579Y-91163933D01*
X143262574Y-91163934D01*
X143256169Y-91164438D01*
X143156231Y-91193472D01*
X143104012Y-91208643D01*
X143104010Y-91208644D01*
X143096399Y-91210855D01*
X142953193Y-91295547D01*
X142950511Y-91298229D01*
X142886139Y-91323502D01*
X142816516Y-91309600D01*
X142800688Y-91299428D01*
X142796807Y-91295547D01*
X142653601Y-91210855D01*
X142645990Y-91208644D01*
X142645988Y-91208643D01*
X142593769Y-91193472D01*
X142493831Y-91164438D01*
X142487426Y-91163934D01*
X142487421Y-91163933D01*
X142458958Y-91161693D01*
X142458950Y-91161693D01*
X142456502Y-91161500D01*
X142023498Y-91161500D01*
X142021050Y-91161693D01*
X142021042Y-91161693D01*
X141992579Y-91163933D01*
X141992574Y-91163934D01*
X141986169Y-91164438D01*
X141886231Y-91193472D01*
X141834012Y-91208643D01*
X141834010Y-91208644D01*
X141826399Y-91210855D01*
X141819572Y-91214892D01*
X141819573Y-91214892D01*
X141690020Y-91291509D01*
X141690017Y-91291511D01*
X141683193Y-91295547D01*
X141565547Y-91413193D01*
X141561511Y-91420017D01*
X141561509Y-91420020D01*
X141552301Y-91435590D01*
X141480855Y-91556399D01*
X141434438Y-91716169D01*
X141431500Y-91753498D01*
X141431500Y-93536502D01*
X141434438Y-93573831D01*
X141461043Y-93665406D01*
X141469315Y-93693878D01*
X141480855Y-93733601D01*
X141484892Y-93740427D01*
X141561509Y-93869980D01*
X141561511Y-93869983D01*
X141565547Y-93876807D01*
X141683193Y-93994453D01*
X141690017Y-93998489D01*
X141690020Y-93998491D01*
X141743059Y-94029858D01*
X141826399Y-94079145D01*
X141834010Y-94081356D01*
X141834012Y-94081357D01*
X141886231Y-94096528D01*
X141986169Y-94125562D01*
X141992574Y-94126066D01*
X141992579Y-94126067D01*
X142021042Y-94128307D01*
X142021050Y-94128307D01*
X142023498Y-94128500D01*
X142456502Y-94128500D01*
X142458950Y-94128307D01*
X142458958Y-94128307D01*
X142487421Y-94126067D01*
X142487426Y-94126066D01*
X142493831Y-94125562D01*
X142593769Y-94096528D01*
X142645988Y-94081357D01*
X142645990Y-94081356D01*
X142653601Y-94079145D01*
X142686363Y-94059769D01*
X142755178Y-94042311D01*
X142822509Y-94064828D01*
X142866978Y-94120173D01*
X142876500Y-94168224D01*
X142876500Y-94935405D01*
X142856498Y-95003526D01*
X142839595Y-95024501D01*
X142649499Y-95214596D01*
X142587187Y-95248621D01*
X142560404Y-95251500D01*
X138744594Y-95251500D01*
X138676473Y-95231498D01*
X138655499Y-95214595D01*
X136629882Y-93188977D01*
X136595856Y-93126665D01*
X136600996Y-93055652D01*
X136606745Y-93040316D01*
X136607599Y-93032460D01*
X136613131Y-92981531D01*
X136613500Y-92978134D01*
X136613500Y-91181866D01*
X136606745Y-91119684D01*
X136555615Y-90983295D01*
X136468261Y-90866739D01*
X136351705Y-90779385D01*
X136232687Y-90734767D01*
X136175923Y-90692125D01*
X136151223Y-90625564D01*
X136166430Y-90556215D01*
X136187977Y-90527535D01*
X136289052Y-90426812D01*
X136295730Y-90418965D01*
X136420003Y-90246020D01*
X136425313Y-90237183D01*
X136519670Y-90046267D01*
X136523469Y-90036672D01*
X136585377Y-89832910D01*
X136587555Y-89822837D01*
X136588986Y-89811962D01*
X136586775Y-89797778D01*
X136573617Y-89794000D01*
X133938225Y-89794000D01*
X133924694Y-89797973D01*
X133923257Y-89807966D01*
X133953565Y-89942446D01*
X133956645Y-89952275D01*
X134036770Y-90149603D01*
X134041413Y-90158794D01*
X134152694Y-90340388D01*
X134158777Y-90348699D01*
X134298213Y-90509667D01*
X134305577Y-90516879D01*
X134310522Y-90520985D01*
X134350156Y-90579889D01*
X134351653Y-90650870D01*
X134314537Y-90711392D01*
X134274264Y-90735910D01*
X134166705Y-90776232D01*
X134166704Y-90776233D01*
X134158295Y-90779385D01*
X134041739Y-90866739D01*
X133954385Y-90983295D01*
X133903255Y-91119684D01*
X133896500Y-91181866D01*
X133896500Y-92978134D01*
X133903255Y-93040316D01*
X133954385Y-93176705D01*
X134041739Y-93293261D01*
X134158295Y-93380615D01*
X134294684Y-93431745D01*
X134356866Y-93438500D01*
X135035406Y-93438500D01*
X135103527Y-93458502D01*
X135124501Y-93475405D01*
X137926348Y-96277253D01*
X137933888Y-96285539D01*
X137938000Y-96292018D01*
X137943777Y-96297443D01*
X137987651Y-96338643D01*
X137990493Y-96341398D01*
X138010230Y-96361135D01*
X138013427Y-96363615D01*
X138022447Y-96371318D01*
X138054679Y-96401586D01*
X138061625Y-96405405D01*
X138061628Y-96405407D01*
X138072434Y-96411348D01*
X138088953Y-96422199D01*
X138104959Y-96434614D01*
X138112228Y-96437759D01*
X138112232Y-96437762D01*
X138145537Y-96452174D01*
X138156187Y-96457391D01*
X138194940Y-96478695D01*
X138202615Y-96480666D01*
X138202616Y-96480666D01*
X138214562Y-96483733D01*
X138233267Y-96490137D01*
X138251855Y-96498181D01*
X138259678Y-96499420D01*
X138259688Y-96499423D01*
X138295524Y-96505099D01*
X138307144Y-96507505D01*
X138338959Y-96515673D01*
X138349970Y-96518500D01*
X138370224Y-96518500D01*
X138389934Y-96520051D01*
X138409943Y-96523220D01*
X138417835Y-96522474D01*
X138436580Y-96520702D01*
X138453962Y-96519059D01*
X138465819Y-96518500D01*
X142796233Y-96518500D01*
X142807416Y-96519027D01*
X142814909Y-96520702D01*
X142822835Y-96520453D01*
X142822836Y-96520453D01*
X142882986Y-96518562D01*
X142886945Y-96518500D01*
X142914856Y-96518500D01*
X142918791Y-96518003D01*
X142918856Y-96517995D01*
X142930693Y-96517062D01*
X142962951Y-96516048D01*
X142966970Y-96515922D01*
X142974889Y-96515673D01*
X142994343Y-96510021D01*
X143013700Y-96506013D01*
X143025930Y-96504468D01*
X143025931Y-96504468D01*
X143033797Y-96503474D01*
X143041168Y-96500555D01*
X143041170Y-96500555D01*
X143074912Y-96487196D01*
X143086142Y-96483351D01*
X143120983Y-96473229D01*
X143120984Y-96473229D01*
X143128593Y-96471018D01*
X143135412Y-96466985D01*
X143135417Y-96466983D01*
X143146028Y-96460707D01*
X143163776Y-96452012D01*
X143182617Y-96444552D01*
X143218387Y-96418564D01*
X143228307Y-96412048D01*
X143259535Y-96393580D01*
X143259538Y-96393578D01*
X143266362Y-96389542D01*
X143280683Y-96375221D01*
X143295717Y-96362380D01*
X143305694Y-96355131D01*
X143312107Y-96350472D01*
X143340298Y-96316395D01*
X143348288Y-96307616D01*
X143902247Y-95753657D01*
X143910537Y-95746113D01*
X143917018Y-95742000D01*
X143963659Y-95692332D01*
X143966413Y-95689491D01*
X143986135Y-95669769D01*
X143988612Y-95666576D01*
X143996317Y-95657555D01*
X144021159Y-95631100D01*
X144026586Y-95625321D01*
X144030407Y-95618371D01*
X144036346Y-95607568D01*
X144047202Y-95591041D01*
X144054757Y-95581302D01*
X144054758Y-95581300D01*
X144059614Y-95575040D01*
X144077174Y-95534460D01*
X144082391Y-95523812D01*
X144099875Y-95492009D01*
X144099876Y-95492007D01*
X144103695Y-95485060D01*
X144108733Y-95465437D01*
X144115137Y-95446734D01*
X144120033Y-95435420D01*
X144120033Y-95435419D01*
X144123181Y-95428145D01*
X144124420Y-95420322D01*
X144124423Y-95420312D01*
X144130099Y-95384476D01*
X144132505Y-95372856D01*
X144141528Y-95337711D01*
X144141528Y-95337710D01*
X144143500Y-95330030D01*
X144143500Y-95309776D01*
X144145051Y-95290065D01*
X144146980Y-95277886D01*
X144148220Y-95270057D01*
X144144059Y-95226038D01*
X144143500Y-95214181D01*
X144143500Y-94543594D01*
X144163502Y-94475473D01*
X144217158Y-94428980D01*
X144287432Y-94418876D01*
X144352012Y-94448370D01*
X144358595Y-94454499D01*
X146181348Y-96277253D01*
X146188888Y-96285539D01*
X146193000Y-96292018D01*
X146198777Y-96297443D01*
X146242651Y-96338643D01*
X146245493Y-96341398D01*
X146265230Y-96361135D01*
X146268427Y-96363615D01*
X146277447Y-96371318D01*
X146309679Y-96401586D01*
X146316625Y-96405405D01*
X146316628Y-96405407D01*
X146327434Y-96411348D01*
X146343953Y-96422199D01*
X146359959Y-96434614D01*
X146367228Y-96437759D01*
X146367232Y-96437762D01*
X146400537Y-96452174D01*
X146411187Y-96457391D01*
X146449940Y-96478695D01*
X146457615Y-96480666D01*
X146457616Y-96480666D01*
X146469562Y-96483733D01*
X146488267Y-96490137D01*
X146506855Y-96498181D01*
X146514678Y-96499420D01*
X146514688Y-96499423D01*
X146550524Y-96505099D01*
X146562144Y-96507505D01*
X146593959Y-96515673D01*
X146604970Y-96518500D01*
X146625224Y-96518500D01*
X146644934Y-96520051D01*
X146664943Y-96523220D01*
X146672835Y-96522474D01*
X146691580Y-96520702D01*
X146708962Y-96519059D01*
X146720819Y-96518500D01*
X159941233Y-96518500D01*
X159952416Y-96519027D01*
X159959909Y-96520702D01*
X159967835Y-96520453D01*
X159967836Y-96520453D01*
X160027986Y-96518562D01*
X160031945Y-96518500D01*
X160059856Y-96518500D01*
X160063791Y-96518003D01*
X160063856Y-96517995D01*
X160075693Y-96517062D01*
X160107951Y-96516048D01*
X160111970Y-96515922D01*
X160119889Y-96515673D01*
X160139343Y-96510021D01*
X160158700Y-96506013D01*
X160170930Y-96504468D01*
X160170931Y-96504468D01*
X160178797Y-96503474D01*
X160186168Y-96500555D01*
X160186170Y-96500555D01*
X160219912Y-96487196D01*
X160231142Y-96483351D01*
X160265983Y-96473229D01*
X160265984Y-96473229D01*
X160273593Y-96471018D01*
X160280412Y-96466985D01*
X160280417Y-96466983D01*
X160291028Y-96460707D01*
X160308776Y-96452012D01*
X160327617Y-96444552D01*
X160363387Y-96418564D01*
X160373307Y-96412048D01*
X160404535Y-96393580D01*
X160404538Y-96393578D01*
X160411362Y-96389542D01*
X160425683Y-96375221D01*
X160440717Y-96362380D01*
X160450694Y-96355131D01*
X160457107Y-96350472D01*
X160485298Y-96316395D01*
X160493288Y-96307616D01*
X162317253Y-94483652D01*
X162325539Y-94476112D01*
X162332018Y-94472000D01*
X162378644Y-94422348D01*
X162381398Y-94419507D01*
X162401135Y-94399770D01*
X162403615Y-94396573D01*
X162411320Y-94387551D01*
X162441586Y-94355321D01*
X162445405Y-94348375D01*
X162445407Y-94348372D01*
X162451348Y-94337566D01*
X162462199Y-94321047D01*
X162469758Y-94311301D01*
X162474614Y-94305041D01*
X162477759Y-94297772D01*
X162477762Y-94297768D01*
X162492174Y-94264463D01*
X162497391Y-94253813D01*
X162518695Y-94215060D01*
X162523733Y-94195437D01*
X162530137Y-94176734D01*
X162535033Y-94165420D01*
X162535033Y-94165419D01*
X162538181Y-94158145D01*
X162539420Y-94150322D01*
X162539423Y-94150312D01*
X162545099Y-94114476D01*
X162547505Y-94102856D01*
X162556528Y-94067711D01*
X162556528Y-94067710D01*
X162558500Y-94060030D01*
X162558500Y-94039776D01*
X162560051Y-94020065D01*
X162561980Y-94007886D01*
X162563220Y-94000057D01*
X162559059Y-93956038D01*
X162558500Y-93944181D01*
X162558500Y-93355427D01*
X162578502Y-93287306D01*
X162619618Y-93247550D01*
X162622994Y-93245896D01*
X162804860Y-93116173D01*
X162963096Y-92958489D01*
X163093453Y-92777077D01*
X163114320Y-92734857D01*
X163190136Y-92581453D01*
X163190137Y-92581451D01*
X163192430Y-92576811D01*
X163257370Y-92363069D01*
X163286529Y-92141590D01*
X163288156Y-92075000D01*
X163269852Y-91852361D01*
X163215431Y-91635702D01*
X163126354Y-91430840D01*
X163042458Y-91301156D01*
X163007822Y-91247617D01*
X163007820Y-91247614D01*
X163005014Y-91243277D01*
X162854670Y-91078051D01*
X162850619Y-91074852D01*
X162850615Y-91074848D01*
X162683414Y-90942800D01*
X162683410Y-90942798D01*
X162679359Y-90939598D01*
X162483789Y-90831638D01*
X162478920Y-90829914D01*
X162478916Y-90829912D01*
X162278087Y-90758795D01*
X162278083Y-90758794D01*
X162273212Y-90757069D01*
X162268119Y-90756162D01*
X162268116Y-90756161D01*
X162058373Y-90718800D01*
X162058367Y-90718799D01*
X162053284Y-90717894D01*
X161979452Y-90716992D01*
X161835081Y-90715228D01*
X161835079Y-90715228D01*
X161829911Y-90715165D01*
X161609091Y-90748955D01*
X161396756Y-90818357D01*
X161198607Y-90921507D01*
X161194474Y-90924610D01*
X161194471Y-90924612D01*
X161024100Y-91052530D01*
X161019965Y-91055635D01*
X161016393Y-91059373D01*
X160873304Y-91209107D01*
X160865629Y-91217138D01*
X160758201Y-91374621D01*
X160703293Y-91419621D01*
X160632768Y-91427792D01*
X160569021Y-91396538D01*
X160548324Y-91372054D01*
X160467822Y-91247617D01*
X160467820Y-91247614D01*
X160465014Y-91243277D01*
X160314670Y-91078051D01*
X160310619Y-91074852D01*
X160310615Y-91074848D01*
X160143414Y-90942800D01*
X160143410Y-90942798D01*
X160139359Y-90939598D01*
X159943789Y-90831638D01*
X159938920Y-90829914D01*
X159938916Y-90829912D01*
X159738087Y-90758795D01*
X159738083Y-90758794D01*
X159733212Y-90757069D01*
X159728119Y-90756162D01*
X159728116Y-90756161D01*
X159518373Y-90718800D01*
X159518367Y-90718799D01*
X159513284Y-90717894D01*
X159439452Y-90716992D01*
X159295081Y-90715228D01*
X159295079Y-90715228D01*
X159289911Y-90715165D01*
X159069091Y-90748955D01*
X158856756Y-90818357D01*
X158658607Y-90921507D01*
X158654474Y-90924610D01*
X158654471Y-90924612D01*
X158484100Y-91052530D01*
X158479965Y-91055635D01*
X158416324Y-91122232D01*
X158399283Y-91140064D01*
X158337759Y-91175494D01*
X158266846Y-91172037D01*
X158209060Y-91130791D01*
X158190207Y-91097243D01*
X158148767Y-90986703D01*
X158145615Y-90978295D01*
X158058261Y-90861739D01*
X157941705Y-90774385D01*
X157805316Y-90723255D01*
X157743134Y-90716500D01*
X155946866Y-90716500D01*
X155884684Y-90723255D01*
X155748295Y-90774385D01*
X155631739Y-90861739D01*
X155558633Y-90959284D01*
X155501777Y-91001796D01*
X155430959Y-91006822D01*
X155368715Y-90972811D01*
X154337499Y-89941595D01*
X154303473Y-89879283D01*
X154308538Y-89808468D01*
X154337499Y-89763405D01*
X155381610Y-88719294D01*
X158402709Y-88719294D01*
X158408132Y-88778315D01*
X158410743Y-88791351D01*
X158457715Y-88941243D01*
X158463921Y-88954988D01*
X158544824Y-89088574D01*
X158554131Y-89100443D01*
X158664557Y-89210869D01*
X158676426Y-89220176D01*
X158810012Y-89301079D01*
X158823757Y-89307285D01*
X158973644Y-89354256D01*
X158986694Y-89356869D01*
X159050521Y-89362734D01*
X159056309Y-89363000D01*
X159112885Y-89363000D01*
X159128124Y-89358525D01*
X159129329Y-89357135D01*
X159131000Y-89349452D01*
X159131000Y-89344884D01*
X159639000Y-89344884D01*
X159643475Y-89360123D01*
X159644865Y-89361328D01*
X159652548Y-89362999D01*
X159713705Y-89362999D01*
X159719454Y-89362736D01*
X159783315Y-89356868D01*
X159796351Y-89354257D01*
X159946243Y-89307285D01*
X159959988Y-89301079D01*
X160093574Y-89220176D01*
X160105443Y-89210869D01*
X160215869Y-89100443D01*
X160225176Y-89088574D01*
X160306079Y-88954988D01*
X160312285Y-88941243D01*
X160359256Y-88791356D01*
X160361869Y-88778306D01*
X160366913Y-88723414D01*
X160363525Y-88711876D01*
X160362135Y-88710671D01*
X160354452Y-88709000D01*
X159657115Y-88709000D01*
X159641876Y-88713475D01*
X159640671Y-88714865D01*
X159639000Y-88722548D01*
X159639000Y-89344884D01*
X159131000Y-89344884D01*
X159131000Y-88727115D01*
X159126525Y-88711876D01*
X159125135Y-88710671D01*
X159117452Y-88709000D01*
X158420116Y-88709000D01*
X158404877Y-88713475D01*
X158403672Y-88714865D01*
X158402709Y-88719294D01*
X155381610Y-88719294D01*
X155425466Y-88675438D01*
X169832000Y-88675438D01*
X169832337Y-88681953D01*
X169841894Y-88774057D01*
X169844788Y-88787456D01*
X169894381Y-88936107D01*
X169900555Y-88949286D01*
X169982788Y-89082173D01*
X169991824Y-89093574D01*
X170102429Y-89203986D01*
X170113840Y-89212998D01*
X170246880Y-89295004D01*
X170260061Y-89301151D01*
X170408814Y-89350491D01*
X170422190Y-89353358D01*
X170513097Y-89362672D01*
X170519513Y-89363000D01*
X170542885Y-89363000D01*
X170558124Y-89358525D01*
X170559329Y-89357135D01*
X170561000Y-89349452D01*
X170561000Y-89344885D01*
X171069000Y-89344885D01*
X171073475Y-89360124D01*
X171074865Y-89361329D01*
X171082548Y-89363000D01*
X171110438Y-89363000D01*
X171116953Y-89362663D01*
X171209057Y-89353106D01*
X171222456Y-89350212D01*
X171371107Y-89300619D01*
X171384286Y-89294445D01*
X171517173Y-89212212D01*
X171528574Y-89203176D01*
X171638986Y-89092571D01*
X171647998Y-89081160D01*
X171730004Y-88948120D01*
X171736151Y-88934939D01*
X171785491Y-88786186D01*
X171788358Y-88772810D01*
X171797672Y-88681903D01*
X171797929Y-88676874D01*
X171793525Y-88661876D01*
X171792135Y-88660671D01*
X171784452Y-88659000D01*
X171087115Y-88659000D01*
X171071876Y-88663475D01*
X171070671Y-88664865D01*
X171069000Y-88672548D01*
X171069000Y-89344885D01*
X170561000Y-89344885D01*
X170561000Y-88677115D01*
X170556525Y-88661876D01*
X170555135Y-88660671D01*
X170547452Y-88659000D01*
X169850115Y-88659000D01*
X169834876Y-88663475D01*
X169833671Y-88664865D01*
X169832000Y-88672548D01*
X169832000Y-88675438D01*
X155425466Y-88675438D01*
X157870499Y-86230405D01*
X157932811Y-86196379D01*
X157959594Y-86193500D01*
X158324917Y-86193500D01*
X158393038Y-86213502D01*
X158439531Y-86267158D01*
X158449635Y-86337432D01*
X158445153Y-86357172D01*
X158408247Y-86474938D01*
X158401500Y-86548365D01*
X158401501Y-87061634D01*
X158401764Y-87064492D01*
X158401764Y-87064501D01*
X158405026Y-87100004D01*
X158408247Y-87135062D01*
X158410246Y-87141440D01*
X158410246Y-87141441D01*
X158435780Y-87222918D01*
X158459528Y-87298699D01*
X158548361Y-87445381D01*
X158644239Y-87541259D01*
X158678265Y-87603571D01*
X158673200Y-87674386D01*
X158644239Y-87719449D01*
X158554131Y-87809557D01*
X158544824Y-87821426D01*
X158463921Y-87955012D01*
X158457715Y-87968757D01*
X158410744Y-88118644D01*
X158408131Y-88131694D01*
X158403087Y-88186586D01*
X158406475Y-88198124D01*
X158407865Y-88199329D01*
X158415548Y-88201000D01*
X160349884Y-88201000D01*
X160365123Y-88196525D01*
X160366328Y-88195135D01*
X160367291Y-88190706D01*
X160361868Y-88131685D01*
X160359257Y-88118649D01*
X160312285Y-87968757D01*
X160306079Y-87955012D01*
X160225176Y-87821426D01*
X160215869Y-87809557D01*
X160125761Y-87719449D01*
X160091735Y-87657137D01*
X160096800Y-87586322D01*
X160125761Y-87541259D01*
X160221639Y-87445381D01*
X160310472Y-87298699D01*
X160361753Y-87135062D01*
X160368500Y-87061635D01*
X160368499Y-86548366D01*
X160368234Y-86545474D01*
X160364279Y-86502432D01*
X160361753Y-86474938D01*
X160324849Y-86357178D01*
X160323564Y-86286195D01*
X160360861Y-86225784D01*
X160424898Y-86195127D01*
X160445083Y-86193500D01*
X160871502Y-86193500D01*
X160873950Y-86193307D01*
X160873958Y-86193307D01*
X160902421Y-86191067D01*
X160902426Y-86191066D01*
X160908831Y-86190562D01*
X161008769Y-86161528D01*
X161060988Y-86146357D01*
X161060990Y-86146356D01*
X161068601Y-86144145D01*
X161211807Y-86059453D01*
X161214489Y-86056771D01*
X161278861Y-86031498D01*
X161348484Y-86045400D01*
X161364312Y-86055572D01*
X161368193Y-86059453D01*
X161511399Y-86144145D01*
X161519010Y-86146356D01*
X161519012Y-86146357D01*
X161571231Y-86161528D01*
X161671169Y-86190562D01*
X161677574Y-86191066D01*
X161677579Y-86191067D01*
X161706042Y-86193307D01*
X161706050Y-86193307D01*
X161708498Y-86193500D01*
X162141502Y-86193500D01*
X162143950Y-86193307D01*
X162143958Y-86193307D01*
X162172421Y-86191067D01*
X162172426Y-86191066D01*
X162178831Y-86190562D01*
X162278769Y-86161528D01*
X162330988Y-86146357D01*
X162330990Y-86146356D01*
X162338601Y-86144145D01*
X162481807Y-86059453D01*
X162484489Y-86056771D01*
X162548861Y-86031498D01*
X162618484Y-86045400D01*
X162634312Y-86055572D01*
X162638193Y-86059453D01*
X162781399Y-86144145D01*
X162789010Y-86146356D01*
X162789012Y-86146357D01*
X162841231Y-86161528D01*
X162941169Y-86190562D01*
X162947574Y-86191066D01*
X162947579Y-86191067D01*
X162976042Y-86193307D01*
X162976050Y-86193307D01*
X162978498Y-86193500D01*
X163411502Y-86193500D01*
X163413950Y-86193307D01*
X163413958Y-86193307D01*
X163442421Y-86191067D01*
X163442426Y-86191066D01*
X163448831Y-86190562D01*
X163548769Y-86161528D01*
X163600988Y-86146357D01*
X163600990Y-86146356D01*
X163608601Y-86144145D01*
X163751807Y-86059453D01*
X163754489Y-86056771D01*
X163818861Y-86031498D01*
X163888484Y-86045400D01*
X163904312Y-86055572D01*
X163908193Y-86059453D01*
X164051399Y-86144145D01*
X164059010Y-86146356D01*
X164059012Y-86146357D01*
X164111231Y-86161528D01*
X164211169Y-86190562D01*
X164217574Y-86191066D01*
X164217579Y-86191067D01*
X164246042Y-86193307D01*
X164246050Y-86193307D01*
X164248498Y-86193500D01*
X164681502Y-86193500D01*
X164683950Y-86193307D01*
X164683958Y-86193307D01*
X164712421Y-86191067D01*
X164712426Y-86191066D01*
X164718831Y-86190562D01*
X164818769Y-86161528D01*
X164870988Y-86146357D01*
X164870990Y-86146356D01*
X164878601Y-86144145D01*
X165021807Y-86059453D01*
X165024489Y-86056771D01*
X165088861Y-86031498D01*
X165158484Y-86045400D01*
X165174312Y-86055572D01*
X165178193Y-86059453D01*
X165321399Y-86144145D01*
X165329010Y-86146356D01*
X165329012Y-86146357D01*
X165381231Y-86161528D01*
X165481169Y-86190562D01*
X165487574Y-86191066D01*
X165487579Y-86191067D01*
X165516042Y-86193307D01*
X165516050Y-86193307D01*
X165518498Y-86193500D01*
X165951502Y-86193500D01*
X165953950Y-86193307D01*
X165953958Y-86193307D01*
X165982421Y-86191067D01*
X165982426Y-86191066D01*
X165988831Y-86190562D01*
X166088769Y-86161528D01*
X166140988Y-86146357D01*
X166140990Y-86146356D01*
X166148601Y-86144145D01*
X166291807Y-86059453D01*
X166294489Y-86056771D01*
X166358861Y-86031498D01*
X166428484Y-86045400D01*
X166444312Y-86055572D01*
X166448193Y-86059453D01*
X166591399Y-86144145D01*
X166599010Y-86146356D01*
X166599012Y-86146357D01*
X166651231Y-86161528D01*
X166751169Y-86190562D01*
X166757574Y-86191066D01*
X166757579Y-86191067D01*
X166786042Y-86193307D01*
X166786050Y-86193307D01*
X166788498Y-86193500D01*
X167221502Y-86193500D01*
X167223950Y-86193307D01*
X167223958Y-86193307D01*
X167252421Y-86191067D01*
X167252426Y-86191066D01*
X167258831Y-86190562D01*
X167358769Y-86161528D01*
X167410988Y-86146357D01*
X167410990Y-86146356D01*
X167418601Y-86144145D01*
X167561807Y-86059453D01*
X167564489Y-86056771D01*
X167628861Y-86031498D01*
X167698484Y-86045400D01*
X167714312Y-86055572D01*
X167718193Y-86059453D01*
X167861399Y-86144145D01*
X167869010Y-86146356D01*
X167869012Y-86146357D01*
X167921231Y-86161528D01*
X168021169Y-86190562D01*
X168027574Y-86191066D01*
X168027579Y-86191067D01*
X168056042Y-86193307D01*
X168056050Y-86193307D01*
X168058498Y-86193500D01*
X168491502Y-86193500D01*
X168493950Y-86193307D01*
X168493958Y-86193307D01*
X168522421Y-86191067D01*
X168522426Y-86191066D01*
X168528831Y-86190562D01*
X168628769Y-86161528D01*
X168680988Y-86146357D01*
X168680990Y-86146356D01*
X168688601Y-86144145D01*
X168831807Y-86059453D01*
X168834489Y-86056771D01*
X168898861Y-86031498D01*
X168968484Y-86045400D01*
X168984312Y-86055572D01*
X168988193Y-86059453D01*
X169131399Y-86144145D01*
X169139010Y-86146356D01*
X169139012Y-86146357D01*
X169191231Y-86161528D01*
X169291169Y-86190562D01*
X169297574Y-86191066D01*
X169297579Y-86191067D01*
X169326042Y-86193307D01*
X169326050Y-86193307D01*
X169328498Y-86193500D01*
X169761502Y-86193500D01*
X169761502Y-86194557D01*
X169826385Y-86210902D01*
X169874925Y-86262713D01*
X169887748Y-86332542D01*
X169882022Y-86359131D01*
X169841851Y-86480243D01*
X169841151Y-86487080D01*
X169841150Y-86487082D01*
X169836917Y-86528401D01*
X169831500Y-86581268D01*
X169831500Y-87128732D01*
X169831837Y-87131978D01*
X169831837Y-87131982D01*
X169832819Y-87141446D01*
X169842113Y-87231019D01*
X169844295Y-87237559D01*
X169893537Y-87385153D01*
X169896244Y-87393268D01*
X169900096Y-87399492D01*
X169900096Y-87399493D01*
X169924747Y-87439329D01*
X169986248Y-87538713D01*
X169991430Y-87543886D01*
X169995977Y-87549623D01*
X169994170Y-87551055D01*
X170022902Y-87603575D01*
X170017892Y-87674395D01*
X169994501Y-87710853D01*
X169995552Y-87711683D01*
X169982002Y-87728840D01*
X169899996Y-87861880D01*
X169893849Y-87875061D01*
X169844509Y-88023814D01*
X169841642Y-88037190D01*
X169832328Y-88128097D01*
X169832071Y-88133126D01*
X169836475Y-88148124D01*
X169837865Y-88149329D01*
X169845548Y-88151000D01*
X171779885Y-88151000D01*
X171795124Y-88146525D01*
X171796329Y-88145135D01*
X171798000Y-88137452D01*
X171798000Y-88134562D01*
X171797663Y-88128047D01*
X171788106Y-88035943D01*
X171785212Y-88022544D01*
X171735619Y-87873893D01*
X171729445Y-87860714D01*
X171647212Y-87727827D01*
X171633629Y-87710689D01*
X171635559Y-87709159D01*
X171607097Y-87657120D01*
X171612113Y-87586301D01*
X171635799Y-87549383D01*
X171634843Y-87548628D01*
X171639381Y-87542882D01*
X171644552Y-87537702D01*
X171705933Y-87438124D01*
X171730462Y-87398331D01*
X171730463Y-87398329D01*
X171734302Y-87392101D01*
X171788149Y-87229757D01*
X171798500Y-87128732D01*
X171798500Y-86581268D01*
X171787887Y-86478981D01*
X171776304Y-86444263D01*
X171736073Y-86323676D01*
X171736072Y-86323674D01*
X171733756Y-86316732D01*
X171721788Y-86297391D01*
X171647606Y-86177515D01*
X171643752Y-86171287D01*
X171638570Y-86166114D01*
X171638566Y-86166109D01*
X171530628Y-86058360D01*
X171496548Y-85996078D01*
X171501551Y-85925258D01*
X171511188Y-85905054D01*
X171574145Y-85798601D01*
X171586849Y-85754875D01*
X171603629Y-85697114D01*
X171620562Y-85638831D01*
X171623500Y-85601502D01*
X171623500Y-84905397D01*
X171640380Y-84842398D01*
X171649527Y-84826556D01*
X171708542Y-84644928D01*
X171712266Y-84609501D01*
X171727814Y-84461565D01*
X171728504Y-84455000D01*
X171709983Y-84278783D01*
X171709232Y-84271635D01*
X171709232Y-84271633D01*
X171708542Y-84265072D01*
X171649527Y-84083444D01*
X171640380Y-84067602D01*
X171623500Y-84004603D01*
X171623500Y-83718498D01*
X171620562Y-83681169D01*
X171574145Y-83521399D01*
X171521368Y-83432158D01*
X171493491Y-83385020D01*
X171493489Y-83385017D01*
X171489453Y-83378193D01*
X171371807Y-83260547D01*
X171364983Y-83256511D01*
X171364980Y-83256509D01*
X171235427Y-83179892D01*
X171235428Y-83179892D01*
X171228601Y-83175855D01*
X171220990Y-83173644D01*
X171220988Y-83173643D01*
X171168769Y-83158472D01*
X171068831Y-83129438D01*
X171062426Y-83128934D01*
X171062421Y-83128933D01*
X171033958Y-83126693D01*
X171033950Y-83126693D01*
X171031502Y-83126500D01*
X170598498Y-83126500D01*
X170596050Y-83126693D01*
X170596042Y-83126693D01*
X170567579Y-83128933D01*
X170567574Y-83128934D01*
X170561169Y-83129438D01*
X170461231Y-83158472D01*
X170409012Y-83173643D01*
X170409010Y-83173644D01*
X170401399Y-83175855D01*
X170258193Y-83260547D01*
X170255511Y-83263229D01*
X170191139Y-83288502D01*
X170121516Y-83274600D01*
X170105688Y-83264428D01*
X170101807Y-83260547D01*
X169958601Y-83175855D01*
X169950990Y-83173644D01*
X169950988Y-83173643D01*
X169898769Y-83158472D01*
X169798831Y-83129438D01*
X169792426Y-83128934D01*
X169792421Y-83128933D01*
X169763958Y-83126693D01*
X169763950Y-83126693D01*
X169761502Y-83126500D01*
X169328498Y-83126500D01*
X169326050Y-83126693D01*
X169326042Y-83126693D01*
X169297579Y-83128933D01*
X169297574Y-83128934D01*
X169291169Y-83129438D01*
X169191231Y-83158472D01*
X169139012Y-83173643D01*
X169139010Y-83173644D01*
X169131399Y-83175855D01*
X168988193Y-83260547D01*
X168985511Y-83263229D01*
X168921139Y-83288502D01*
X168851516Y-83274600D01*
X168835688Y-83264428D01*
X168831807Y-83260547D01*
X168688601Y-83175855D01*
X168680990Y-83173644D01*
X168680988Y-83173643D01*
X168628769Y-83158472D01*
X168528831Y-83129438D01*
X168522426Y-83128934D01*
X168522421Y-83128933D01*
X168493958Y-83126693D01*
X168493950Y-83126693D01*
X168491502Y-83126500D01*
X168058498Y-83126500D01*
X168056050Y-83126693D01*
X168056042Y-83126693D01*
X168027579Y-83128933D01*
X168027574Y-83128934D01*
X168021169Y-83129438D01*
X167921231Y-83158472D01*
X167869012Y-83173643D01*
X167869010Y-83173644D01*
X167861399Y-83175855D01*
X167718193Y-83260547D01*
X167715511Y-83263229D01*
X167651139Y-83288502D01*
X167581516Y-83274600D01*
X167565688Y-83264428D01*
X167561807Y-83260547D01*
X167418601Y-83175855D01*
X167410990Y-83173644D01*
X167410988Y-83173643D01*
X167358769Y-83158472D01*
X167258831Y-83129438D01*
X167252426Y-83128934D01*
X167252421Y-83128933D01*
X167223958Y-83126693D01*
X167223950Y-83126693D01*
X167221502Y-83126500D01*
X166788498Y-83126500D01*
X166786050Y-83126693D01*
X166786042Y-83126693D01*
X166757579Y-83128933D01*
X166757574Y-83128934D01*
X166751169Y-83129438D01*
X166651231Y-83158472D01*
X166599012Y-83173643D01*
X166599010Y-83173644D01*
X166591399Y-83175855D01*
X166448193Y-83260547D01*
X166445511Y-83263229D01*
X166381139Y-83288502D01*
X166311516Y-83274600D01*
X166295688Y-83264428D01*
X166291807Y-83260547D01*
X166148601Y-83175855D01*
X166140990Y-83173644D01*
X166140988Y-83173643D01*
X166088769Y-83158472D01*
X165988831Y-83129438D01*
X165982426Y-83128934D01*
X165982421Y-83128933D01*
X165953958Y-83126693D01*
X165953950Y-83126693D01*
X165951502Y-83126500D01*
X165518498Y-83126500D01*
X165516050Y-83126693D01*
X165516042Y-83126693D01*
X165487579Y-83128933D01*
X165487574Y-83128934D01*
X165481169Y-83129438D01*
X165381231Y-83158472D01*
X165329012Y-83173643D01*
X165329010Y-83173644D01*
X165321399Y-83175855D01*
X165178193Y-83260547D01*
X165175511Y-83263229D01*
X165111139Y-83288502D01*
X165041516Y-83274600D01*
X165025688Y-83264428D01*
X165021807Y-83260547D01*
X164878601Y-83175855D01*
X164870990Y-83173644D01*
X164870988Y-83173643D01*
X164818769Y-83158472D01*
X164718831Y-83129438D01*
X164712426Y-83128934D01*
X164712421Y-83128933D01*
X164683958Y-83126693D01*
X164683950Y-83126693D01*
X164681502Y-83126500D01*
X164248498Y-83126500D01*
X164246050Y-83126693D01*
X164246042Y-83126693D01*
X164217579Y-83128933D01*
X164217574Y-83128934D01*
X164211169Y-83129438D01*
X164111231Y-83158472D01*
X164059012Y-83173643D01*
X164059010Y-83173644D01*
X164051399Y-83175855D01*
X163908193Y-83260547D01*
X163905511Y-83263229D01*
X163841139Y-83288502D01*
X163771516Y-83274600D01*
X163755688Y-83264428D01*
X163751807Y-83260547D01*
X163608601Y-83175855D01*
X163600990Y-83173644D01*
X163600988Y-83173643D01*
X163548769Y-83158472D01*
X163448831Y-83129438D01*
X163442426Y-83128934D01*
X163442421Y-83128933D01*
X163413958Y-83126693D01*
X163413950Y-83126693D01*
X163411502Y-83126500D01*
X162978498Y-83126500D01*
X162976050Y-83126693D01*
X162976042Y-83126693D01*
X162947579Y-83128933D01*
X162947574Y-83128934D01*
X162941169Y-83129438D01*
X162841231Y-83158472D01*
X162789012Y-83173643D01*
X162789010Y-83173644D01*
X162781399Y-83175855D01*
X162638193Y-83260547D01*
X162635511Y-83263229D01*
X162571139Y-83288502D01*
X162501516Y-83274600D01*
X162485688Y-83264428D01*
X162481807Y-83260547D01*
X162338601Y-83175855D01*
X162330990Y-83173644D01*
X162330988Y-83173643D01*
X162278769Y-83158472D01*
X162178831Y-83129438D01*
X162172426Y-83128934D01*
X162172421Y-83128933D01*
X162143958Y-83126693D01*
X162143950Y-83126693D01*
X162141502Y-83126500D01*
X161708498Y-83126500D01*
X161706050Y-83126693D01*
X161706042Y-83126693D01*
X161677579Y-83128933D01*
X161677574Y-83128934D01*
X161671169Y-83129438D01*
X161571231Y-83158472D01*
X161519012Y-83173643D01*
X161519010Y-83173644D01*
X161511399Y-83175855D01*
X161368193Y-83260547D01*
X161365511Y-83263229D01*
X161301139Y-83288502D01*
X161231516Y-83274600D01*
X161215688Y-83264428D01*
X161211807Y-83260547D01*
X161068601Y-83175855D01*
X161060990Y-83173644D01*
X161060988Y-83173643D01*
X161008769Y-83158472D01*
X160908831Y-83129438D01*
X160902426Y-83128934D01*
X160902421Y-83128933D01*
X160873958Y-83126693D01*
X160873950Y-83126693D01*
X160871502Y-83126500D01*
X160438498Y-83126500D01*
X160436050Y-83126693D01*
X160436042Y-83126693D01*
X160407579Y-83128933D01*
X160407574Y-83128934D01*
X160401169Y-83129438D01*
X160301231Y-83158472D01*
X160249012Y-83173643D01*
X160249010Y-83173644D01*
X160241399Y-83175855D01*
X160098193Y-83260547D01*
X160095511Y-83263229D01*
X160031139Y-83288502D01*
X159961516Y-83274600D01*
X159945688Y-83264428D01*
X159941807Y-83260547D01*
X159798601Y-83175855D01*
X159790990Y-83173644D01*
X159790988Y-83173643D01*
X159738769Y-83158472D01*
X159638831Y-83129438D01*
X159632426Y-83128934D01*
X159632421Y-83128933D01*
X159603958Y-83126693D01*
X159603950Y-83126693D01*
X159601502Y-83126500D01*
X159168498Y-83126500D01*
X159166050Y-83126693D01*
X159166042Y-83126693D01*
X159137579Y-83128933D01*
X159137574Y-83128934D01*
X159131169Y-83129438D01*
X159031231Y-83158472D01*
X158979012Y-83173643D01*
X158979010Y-83173644D01*
X158971399Y-83175855D01*
X158828193Y-83260547D01*
X158825511Y-83263229D01*
X158761139Y-83288502D01*
X158691516Y-83274600D01*
X158675688Y-83264428D01*
X158671807Y-83260547D01*
X158528601Y-83175855D01*
X158520990Y-83173644D01*
X158520988Y-83173643D01*
X158468769Y-83158472D01*
X158368831Y-83129438D01*
X158362426Y-83128934D01*
X158362421Y-83128933D01*
X158333958Y-83126693D01*
X158333950Y-83126693D01*
X158331502Y-83126500D01*
X157898498Y-83126500D01*
X157896050Y-83126693D01*
X157896042Y-83126693D01*
X157867579Y-83128933D01*
X157867574Y-83128934D01*
X157861169Y-83129438D01*
X157761231Y-83158472D01*
X157709012Y-83173643D01*
X157709010Y-83173644D01*
X157701399Y-83175855D01*
X157558193Y-83260547D01*
X157555511Y-83263229D01*
X157491139Y-83288502D01*
X157421516Y-83274600D01*
X157405688Y-83264428D01*
X157401807Y-83260547D01*
X157258601Y-83175855D01*
X157250990Y-83173644D01*
X157250988Y-83173643D01*
X157198769Y-83158472D01*
X157098831Y-83129438D01*
X157092426Y-83128934D01*
X157092421Y-83128933D01*
X157063958Y-83126693D01*
X157063950Y-83126693D01*
X157061502Y-83126500D01*
X156628498Y-83126500D01*
X156626050Y-83126693D01*
X156626042Y-83126693D01*
X156597579Y-83128933D01*
X156597574Y-83128934D01*
X156591169Y-83129438D01*
X156491231Y-83158472D01*
X156439012Y-83173643D01*
X156439010Y-83173644D01*
X156431399Y-83175855D01*
X156424572Y-83179892D01*
X156424573Y-83179892D01*
X156295020Y-83256509D01*
X156295017Y-83256511D01*
X156288193Y-83260547D01*
X156170547Y-83378193D01*
X156166511Y-83385017D01*
X156166509Y-83385020D01*
X156138632Y-83432158D01*
X156085855Y-83521399D01*
X156039438Y-83681169D01*
X156036500Y-83718498D01*
X156036500Y-84520406D01*
X156016498Y-84588527D01*
X155999595Y-84609501D01*
X152284500Y-88324595D01*
X152222188Y-88358621D01*
X152195405Y-88361500D01*
X152064500Y-88361500D01*
X151996379Y-88341498D01*
X151949886Y-88287842D01*
X151938500Y-88235500D01*
X151938500Y-86803498D01*
X151938307Y-86801042D01*
X151936067Y-86772579D01*
X151936066Y-86772574D01*
X151935562Y-86766169D01*
X151906528Y-86666231D01*
X151891357Y-86614012D01*
X151891356Y-86614010D01*
X151889145Y-86606399D01*
X151817845Y-86485837D01*
X151808491Y-86470020D01*
X151808489Y-86470017D01*
X151804453Y-86463193D01*
X151798845Y-86457585D01*
X151793989Y-86451325D01*
X151795496Y-86450156D01*
X151766379Y-86396833D01*
X151763500Y-86370050D01*
X151763500Y-86039594D01*
X151783502Y-85971473D01*
X151800405Y-85950499D01*
X152605206Y-85145699D01*
X153427253Y-84323652D01*
X153435539Y-84316112D01*
X153442018Y-84312000D01*
X153488644Y-84262348D01*
X153491398Y-84259507D01*
X153511135Y-84239770D01*
X153513615Y-84236573D01*
X153521320Y-84227551D01*
X153546159Y-84201100D01*
X153551586Y-84195321D01*
X153555405Y-84188375D01*
X153555407Y-84188372D01*
X153561348Y-84177566D01*
X153572199Y-84161047D01*
X153579758Y-84151301D01*
X153584614Y-84145041D01*
X153587759Y-84137772D01*
X153587762Y-84137768D01*
X153602174Y-84104463D01*
X153607391Y-84093813D01*
X153628695Y-84055060D01*
X153633733Y-84035437D01*
X153640137Y-84016734D01*
X153645033Y-84005420D01*
X153645033Y-84005419D01*
X153648181Y-83998145D01*
X153649420Y-83990322D01*
X153649423Y-83990312D01*
X153655099Y-83954476D01*
X153657505Y-83942856D01*
X153666528Y-83907711D01*
X153666528Y-83907710D01*
X153668500Y-83900030D01*
X153668500Y-83879776D01*
X153670051Y-83860065D01*
X153671980Y-83847886D01*
X153673220Y-83840057D01*
X153669059Y-83796038D01*
X153668500Y-83784181D01*
X153668500Y-81993768D01*
X153669027Y-81982585D01*
X153670702Y-81975092D01*
X153669567Y-81938961D01*
X153668562Y-81907002D01*
X153668500Y-81903044D01*
X153668500Y-81875144D01*
X153667996Y-81871153D01*
X153667063Y-81859311D01*
X153666989Y-81856933D01*
X153665674Y-81815111D01*
X153660021Y-81795652D01*
X153656012Y-81776293D01*
X153655846Y-81774983D01*
X153653474Y-81756203D01*
X153650558Y-81748837D01*
X153650556Y-81748831D01*
X153637200Y-81715098D01*
X153633355Y-81703868D01*
X153623230Y-81669017D01*
X153623230Y-81669016D01*
X153621019Y-81661407D01*
X153610705Y-81643966D01*
X153602008Y-81626213D01*
X153597472Y-81614758D01*
X153594552Y-81607383D01*
X153568563Y-81571612D01*
X153562047Y-81561692D01*
X153549223Y-81540008D01*
X153539542Y-81523638D01*
X153525221Y-81509317D01*
X153512380Y-81494283D01*
X153505132Y-81484307D01*
X153500472Y-81477893D01*
X153466407Y-81449712D01*
X153457626Y-81441722D01*
X153190908Y-81175003D01*
X153156883Y-81112691D01*
X153161948Y-81041875D01*
X153204495Y-80985040D01*
X153242325Y-80965674D01*
X153331450Y-80937744D01*
X153331452Y-80937743D01*
X153338699Y-80935472D01*
X153485381Y-80846639D01*
X153581259Y-80750761D01*
X153643571Y-80716735D01*
X153714386Y-80721800D01*
X153759449Y-80750761D01*
X153849557Y-80840869D01*
X153861426Y-80850176D01*
X153995012Y-80931079D01*
X154008757Y-80937285D01*
X154158644Y-80984256D01*
X154171694Y-80986869D01*
X154226586Y-80991913D01*
X154238124Y-80988525D01*
X154239329Y-80987135D01*
X154241000Y-80979452D01*
X154241000Y-80974884D01*
X154749000Y-80974884D01*
X154753475Y-80990123D01*
X154754865Y-80991328D01*
X154759294Y-80992291D01*
X154818315Y-80986868D01*
X154831351Y-80984257D01*
X154981243Y-80937285D01*
X154994988Y-80931079D01*
X155128574Y-80850176D01*
X155140443Y-80840869D01*
X155250869Y-80730443D01*
X155260176Y-80718574D01*
X155341079Y-80584988D01*
X155347285Y-80571243D01*
X155394256Y-80421356D01*
X155396869Y-80408306D01*
X155402734Y-80344479D01*
X155403000Y-80338691D01*
X155403000Y-80282115D01*
X155398525Y-80266876D01*
X155397135Y-80265671D01*
X155389452Y-80264000D01*
X154767115Y-80264000D01*
X154751876Y-80268475D01*
X154750671Y-80269865D01*
X154749000Y-80277548D01*
X154749000Y-80974884D01*
X154241000Y-80974884D01*
X154241000Y-79737885D01*
X154749000Y-79737885D01*
X154753475Y-79753124D01*
X154754865Y-79754329D01*
X154762548Y-79756000D01*
X155384884Y-79756000D01*
X155400123Y-79751525D01*
X155401328Y-79750135D01*
X155402999Y-79742452D01*
X155402999Y-79681295D01*
X155402736Y-79675546D01*
X155396868Y-79611685D01*
X155394257Y-79598649D01*
X155347285Y-79448757D01*
X155341079Y-79435012D01*
X155260176Y-79301426D01*
X155250869Y-79289557D01*
X155140443Y-79179131D01*
X155128574Y-79169824D01*
X154994988Y-79088921D01*
X154981243Y-79082715D01*
X154831356Y-79035744D01*
X154818306Y-79033131D01*
X154763414Y-79028087D01*
X154751876Y-79031475D01*
X154750671Y-79032865D01*
X154749000Y-79040548D01*
X154749000Y-79737885D01*
X154241000Y-79737885D01*
X154241000Y-79045116D01*
X154236525Y-79029877D01*
X154235135Y-79028672D01*
X154230706Y-79027709D01*
X154171685Y-79033132D01*
X154158649Y-79035743D01*
X154008757Y-79082715D01*
X153995012Y-79088921D01*
X153861426Y-79169824D01*
X153849557Y-79179131D01*
X153759449Y-79269239D01*
X153697137Y-79303265D01*
X153626322Y-79298200D01*
X153581259Y-79269239D01*
X153485381Y-79173361D01*
X153338699Y-79084528D01*
X153331452Y-79082257D01*
X153331450Y-79082256D01*
X153265164Y-79061483D01*
X153175062Y-79033247D01*
X153101635Y-79026500D01*
X153098737Y-79026500D01*
X152844335Y-79026501D01*
X152588366Y-79026501D01*
X152585508Y-79026764D01*
X152585499Y-79026764D01*
X152551619Y-79029877D01*
X152514938Y-79033247D01*
X152397178Y-79070151D01*
X152326195Y-79071436D01*
X152265784Y-79034139D01*
X152235127Y-78970102D01*
X152233500Y-78949917D01*
X152233500Y-78523498D01*
X152230562Y-78486169D01*
X152184145Y-78326399D01*
X152099453Y-78183193D01*
X152096771Y-78180511D01*
X152071498Y-78116139D01*
X152085400Y-78046516D01*
X152095572Y-78030688D01*
X152099453Y-78026807D01*
X152184145Y-77883601D01*
X152187799Y-77871026D01*
X152228767Y-77730008D01*
X152230562Y-77723831D01*
X152233500Y-77686502D01*
X152233500Y-77253498D01*
X152230562Y-77216169D01*
X152184145Y-77056399D01*
X152099453Y-76913193D01*
X152096771Y-76910511D01*
X152071498Y-76846139D01*
X152085400Y-76776516D01*
X152095572Y-76760688D01*
X152099453Y-76756807D01*
X152184145Y-76613601D01*
X152230562Y-76453831D01*
X152233500Y-76416502D01*
X152233500Y-76298984D01*
X156037001Y-76298984D01*
X156037195Y-76303920D01*
X156039430Y-76332336D01*
X156041730Y-76344931D01*
X156084107Y-76490790D01*
X156090352Y-76505221D01*
X156166911Y-76634678D01*
X156176551Y-76647104D01*
X156282896Y-76753449D01*
X156295322Y-76763089D01*
X156424779Y-76839648D01*
X156439210Y-76845893D01*
X156573605Y-76884939D01*
X156587706Y-76884899D01*
X156591000Y-76877630D01*
X156591000Y-76871878D01*
X157099000Y-76871878D01*
X157102973Y-76885409D01*
X157110871Y-76886544D01*
X157250790Y-76845893D01*
X157265221Y-76839648D01*
X157394676Y-76763090D01*
X157402364Y-76757126D01*
X157468449Y-76731179D01*
X157538072Y-76745080D01*
X157554158Y-76755418D01*
X157558193Y-76759453D01*
X157701399Y-76844145D01*
X157709010Y-76846356D01*
X157709012Y-76846357D01*
X157761231Y-76861528D01*
X157861169Y-76890562D01*
X157867574Y-76891066D01*
X157867579Y-76891067D01*
X157896042Y-76893307D01*
X157896050Y-76893307D01*
X157898498Y-76893500D01*
X158331502Y-76893500D01*
X158333950Y-76893307D01*
X158333958Y-76893307D01*
X158362421Y-76891067D01*
X158362426Y-76891066D01*
X158368831Y-76890562D01*
X158468769Y-76861528D01*
X158520988Y-76846357D01*
X158520990Y-76846356D01*
X158528601Y-76844145D01*
X158671807Y-76759453D01*
X158674489Y-76756771D01*
X158738861Y-76731498D01*
X158808484Y-76745400D01*
X158824312Y-76755572D01*
X158828193Y-76759453D01*
X158971399Y-76844145D01*
X158979010Y-76846356D01*
X158979012Y-76846357D01*
X159031231Y-76861528D01*
X159131169Y-76890562D01*
X159137574Y-76891066D01*
X159137579Y-76891067D01*
X159166042Y-76893307D01*
X159166050Y-76893307D01*
X159168498Y-76893500D01*
X159601502Y-76893500D01*
X159603950Y-76893307D01*
X159603958Y-76893307D01*
X159632421Y-76891067D01*
X159632426Y-76891066D01*
X159638831Y-76890562D01*
X159738769Y-76861528D01*
X159790988Y-76846357D01*
X159790990Y-76846356D01*
X159798601Y-76844145D01*
X159941807Y-76759453D01*
X159944489Y-76756771D01*
X160008861Y-76731498D01*
X160078484Y-76745400D01*
X160094312Y-76755572D01*
X160098193Y-76759453D01*
X160241399Y-76844145D01*
X160249010Y-76846356D01*
X160249012Y-76846357D01*
X160301231Y-76861528D01*
X160401169Y-76890562D01*
X160407574Y-76891066D01*
X160407579Y-76891067D01*
X160436042Y-76893307D01*
X160436050Y-76893307D01*
X160438498Y-76893500D01*
X160871502Y-76893500D01*
X160873950Y-76893307D01*
X160873958Y-76893307D01*
X160902421Y-76891067D01*
X160902426Y-76891066D01*
X160908831Y-76890562D01*
X161008769Y-76861528D01*
X161060988Y-76846357D01*
X161060990Y-76846356D01*
X161068601Y-76844145D01*
X161211807Y-76759453D01*
X161214489Y-76756771D01*
X161278861Y-76731498D01*
X161348484Y-76745400D01*
X161364312Y-76755572D01*
X161368193Y-76759453D01*
X161511399Y-76844145D01*
X161519010Y-76846356D01*
X161519012Y-76846357D01*
X161571231Y-76861528D01*
X161671169Y-76890562D01*
X161677574Y-76891066D01*
X161677579Y-76891067D01*
X161706042Y-76893307D01*
X161706050Y-76893307D01*
X161708498Y-76893500D01*
X162141502Y-76893500D01*
X162143950Y-76893307D01*
X162143958Y-76893307D01*
X162172421Y-76891067D01*
X162172426Y-76891066D01*
X162178831Y-76890562D01*
X162278769Y-76861528D01*
X162330988Y-76846357D01*
X162330990Y-76846356D01*
X162338601Y-76844145D01*
X162481807Y-76759453D01*
X162484489Y-76756771D01*
X162548861Y-76731498D01*
X162618484Y-76745400D01*
X162634312Y-76755572D01*
X162638193Y-76759453D01*
X162781399Y-76844145D01*
X162789010Y-76846356D01*
X162789012Y-76846357D01*
X162841231Y-76861528D01*
X162941169Y-76890562D01*
X162947574Y-76891066D01*
X162947579Y-76891067D01*
X162976042Y-76893307D01*
X162976050Y-76893307D01*
X162978498Y-76893500D01*
X163411502Y-76893500D01*
X163413950Y-76893307D01*
X163413958Y-76893307D01*
X163442421Y-76891067D01*
X163442426Y-76891066D01*
X163448831Y-76890562D01*
X163548769Y-76861528D01*
X163600988Y-76846357D01*
X163600990Y-76846356D01*
X163608601Y-76844145D01*
X163751807Y-76759453D01*
X163754489Y-76756771D01*
X163818861Y-76731498D01*
X163888484Y-76745400D01*
X163904312Y-76755572D01*
X163908193Y-76759453D01*
X164051399Y-76844145D01*
X164059010Y-76846356D01*
X164059012Y-76846357D01*
X164111231Y-76861528D01*
X164211169Y-76890562D01*
X164217574Y-76891066D01*
X164217579Y-76891067D01*
X164246042Y-76893307D01*
X164246050Y-76893307D01*
X164248498Y-76893500D01*
X164681502Y-76893500D01*
X164683950Y-76893307D01*
X164683958Y-76893307D01*
X164712421Y-76891067D01*
X164712426Y-76891066D01*
X164718831Y-76890562D01*
X164818769Y-76861528D01*
X164870988Y-76846357D01*
X164870990Y-76846356D01*
X164878601Y-76844145D01*
X165021807Y-76759453D01*
X165024489Y-76756771D01*
X165088861Y-76731498D01*
X165158484Y-76745400D01*
X165174312Y-76755572D01*
X165178193Y-76759453D01*
X165321399Y-76844145D01*
X165329010Y-76846356D01*
X165329012Y-76846357D01*
X165381231Y-76861528D01*
X165481169Y-76890562D01*
X165487574Y-76891066D01*
X165487579Y-76891067D01*
X165516042Y-76893307D01*
X165516050Y-76893307D01*
X165518498Y-76893500D01*
X165951502Y-76893500D01*
X165953950Y-76893307D01*
X165953958Y-76893307D01*
X165982421Y-76891067D01*
X165982426Y-76891066D01*
X165988831Y-76890562D01*
X166088769Y-76861528D01*
X166140988Y-76846357D01*
X166140990Y-76846356D01*
X166148601Y-76844145D01*
X166291807Y-76759453D01*
X166294489Y-76756771D01*
X166358861Y-76731498D01*
X166428484Y-76745400D01*
X166444312Y-76755572D01*
X166448193Y-76759453D01*
X166591399Y-76844145D01*
X166599010Y-76846356D01*
X166599012Y-76846357D01*
X166651231Y-76861528D01*
X166751169Y-76890562D01*
X166757574Y-76891066D01*
X166757579Y-76891067D01*
X166786042Y-76893307D01*
X166786050Y-76893307D01*
X166788498Y-76893500D01*
X167221502Y-76893500D01*
X167223950Y-76893307D01*
X167223958Y-76893307D01*
X167252421Y-76891067D01*
X167252426Y-76891066D01*
X167258831Y-76890562D01*
X167358769Y-76861528D01*
X167410988Y-76846357D01*
X167410990Y-76846356D01*
X167418601Y-76844145D01*
X167561807Y-76759453D01*
X167564489Y-76756771D01*
X167628861Y-76731498D01*
X167698484Y-76745400D01*
X167714312Y-76755572D01*
X167718193Y-76759453D01*
X167861399Y-76844145D01*
X167869010Y-76846356D01*
X167869012Y-76846357D01*
X167921231Y-76861528D01*
X168021169Y-76890562D01*
X168027574Y-76891066D01*
X168027579Y-76891067D01*
X168056042Y-76893307D01*
X168056050Y-76893307D01*
X168058498Y-76893500D01*
X168491502Y-76893500D01*
X168493950Y-76893307D01*
X168493958Y-76893307D01*
X168522421Y-76891067D01*
X168522426Y-76891066D01*
X168528831Y-76890562D01*
X168628769Y-76861528D01*
X168680988Y-76846357D01*
X168680990Y-76846356D01*
X168688601Y-76844145D01*
X168831807Y-76759453D01*
X168834489Y-76756771D01*
X168898861Y-76731498D01*
X168968484Y-76745400D01*
X168984312Y-76755572D01*
X168988193Y-76759453D01*
X169131399Y-76844145D01*
X169139010Y-76846356D01*
X169139012Y-76846357D01*
X169191231Y-76861528D01*
X169291169Y-76890562D01*
X169297574Y-76891066D01*
X169297579Y-76891067D01*
X169326042Y-76893307D01*
X169326050Y-76893307D01*
X169328498Y-76893500D01*
X169761502Y-76893500D01*
X169763950Y-76893307D01*
X169763958Y-76893307D01*
X169792421Y-76891067D01*
X169792426Y-76891066D01*
X169798831Y-76890562D01*
X169898769Y-76861528D01*
X169950988Y-76846357D01*
X169950990Y-76846356D01*
X169958601Y-76844145D01*
X170101807Y-76759453D01*
X170104489Y-76756771D01*
X170168861Y-76731498D01*
X170238484Y-76745400D01*
X170254312Y-76755572D01*
X170258193Y-76759453D01*
X170401399Y-76844145D01*
X170409010Y-76846356D01*
X170409012Y-76846357D01*
X170461231Y-76861528D01*
X170561169Y-76890562D01*
X170567574Y-76891066D01*
X170567579Y-76891067D01*
X170596042Y-76893307D01*
X170596050Y-76893307D01*
X170598498Y-76893500D01*
X171031502Y-76893500D01*
X171033950Y-76893307D01*
X171033958Y-76893307D01*
X171062421Y-76891067D01*
X171062426Y-76891066D01*
X171068831Y-76890562D01*
X171168769Y-76861528D01*
X171220988Y-76846357D01*
X171220990Y-76846356D01*
X171228601Y-76844145D01*
X171301219Y-76801199D01*
X171364980Y-76763491D01*
X171364983Y-76763489D01*
X171371807Y-76759453D01*
X171489453Y-76641807D01*
X171493489Y-76634983D01*
X171493491Y-76634980D01*
X171570108Y-76505427D01*
X171574145Y-76498601D01*
X171576415Y-76490790D01*
X171618767Y-76345008D01*
X171620562Y-76338831D01*
X171621074Y-76332336D01*
X171623307Y-76303958D01*
X171623307Y-76303950D01*
X171623500Y-76301502D01*
X171623500Y-75380397D01*
X171640380Y-75317398D01*
X171649527Y-75301556D01*
X171708542Y-75119928D01*
X171728504Y-74930000D01*
X171708542Y-74740072D01*
X171649527Y-74558444D01*
X171640380Y-74542602D01*
X171623500Y-74479603D01*
X171623500Y-74418498D01*
X171623307Y-74416042D01*
X171621067Y-74387579D01*
X171621066Y-74387574D01*
X171620562Y-74381169D01*
X171578537Y-74236516D01*
X171576357Y-74229012D01*
X171576356Y-74229010D01*
X171574145Y-74221399D01*
X171557107Y-74192589D01*
X171493491Y-74085020D01*
X171493489Y-74085017D01*
X171489453Y-74078193D01*
X171371807Y-73960547D01*
X171364983Y-73956511D01*
X171364980Y-73956509D01*
X171235427Y-73879892D01*
X171235428Y-73879892D01*
X171228601Y-73875855D01*
X171220990Y-73873644D01*
X171220988Y-73873643D01*
X171133142Y-73848122D01*
X171068831Y-73829438D01*
X171062426Y-73828934D01*
X171062421Y-73828933D01*
X171033958Y-73826693D01*
X171033950Y-73826693D01*
X171031502Y-73826500D01*
X170598498Y-73826500D01*
X170596050Y-73826693D01*
X170596042Y-73826693D01*
X170567579Y-73828933D01*
X170567574Y-73828934D01*
X170561169Y-73829438D01*
X170496858Y-73848122D01*
X170409012Y-73873643D01*
X170409010Y-73873644D01*
X170401399Y-73875855D01*
X170258193Y-73960547D01*
X170255511Y-73963229D01*
X170191139Y-73988502D01*
X170121516Y-73974600D01*
X170105688Y-73964428D01*
X170101807Y-73960547D01*
X169958601Y-73875855D01*
X169950990Y-73873644D01*
X169950988Y-73873643D01*
X169863142Y-73848122D01*
X169798831Y-73829438D01*
X169792426Y-73828934D01*
X169792421Y-73828933D01*
X169763958Y-73826693D01*
X169763950Y-73826693D01*
X169761502Y-73826500D01*
X169328498Y-73826500D01*
X169326050Y-73826693D01*
X169326042Y-73826693D01*
X169297579Y-73828933D01*
X169297574Y-73828934D01*
X169291169Y-73829438D01*
X169226858Y-73848122D01*
X169139012Y-73873643D01*
X169139010Y-73873644D01*
X169131399Y-73875855D01*
X168988193Y-73960547D01*
X168985511Y-73963229D01*
X168921139Y-73988502D01*
X168851516Y-73974600D01*
X168835688Y-73964428D01*
X168831807Y-73960547D01*
X168688601Y-73875855D01*
X168680990Y-73873644D01*
X168680988Y-73873643D01*
X168593142Y-73848122D01*
X168528831Y-73829438D01*
X168522426Y-73828934D01*
X168522421Y-73828933D01*
X168493958Y-73826693D01*
X168493950Y-73826693D01*
X168491502Y-73826500D01*
X168058498Y-73826500D01*
X168056050Y-73826693D01*
X168056042Y-73826693D01*
X168027579Y-73828933D01*
X168027574Y-73828934D01*
X168021169Y-73829438D01*
X167956858Y-73848122D01*
X167869012Y-73873643D01*
X167869010Y-73873644D01*
X167861399Y-73875855D01*
X167718193Y-73960547D01*
X167715511Y-73963229D01*
X167651139Y-73988502D01*
X167581516Y-73974600D01*
X167565688Y-73964428D01*
X167561807Y-73960547D01*
X167418601Y-73875855D01*
X167410990Y-73873644D01*
X167410988Y-73873643D01*
X167323142Y-73848122D01*
X167258831Y-73829438D01*
X167252426Y-73828934D01*
X167252421Y-73828933D01*
X167223958Y-73826693D01*
X167223950Y-73826693D01*
X167221502Y-73826500D01*
X166788498Y-73826500D01*
X166786050Y-73826693D01*
X166786042Y-73826693D01*
X166757579Y-73828933D01*
X166757574Y-73828934D01*
X166751169Y-73829438D01*
X166686858Y-73848122D01*
X166599012Y-73873643D01*
X166599010Y-73873644D01*
X166591399Y-73875855D01*
X166558637Y-73895231D01*
X166489822Y-73912689D01*
X166422491Y-73890172D01*
X166378022Y-73834827D01*
X166368500Y-73786776D01*
X166368500Y-70799594D01*
X166388502Y-70731473D01*
X166405405Y-70710499D01*
X167230499Y-69885405D01*
X167292811Y-69851379D01*
X167319594Y-69848500D01*
X167910500Y-69848500D01*
X167978621Y-69868502D01*
X168025114Y-69922158D01*
X168036500Y-69974500D01*
X168036500Y-70263134D01*
X168043255Y-70325316D01*
X168094385Y-70461705D01*
X168181739Y-70578261D01*
X168298295Y-70665615D01*
X168434684Y-70716745D01*
X168496866Y-70723500D01*
X170593134Y-70723500D01*
X170655316Y-70716745D01*
X170791705Y-70665615D01*
X170908261Y-70578261D01*
X170995615Y-70461705D01*
X171046745Y-70325316D01*
X171053500Y-70263134D01*
X171053500Y-68166866D01*
X171046745Y-68104684D01*
X171003463Y-67989229D01*
X170998280Y-67918423D01*
X171003463Y-67900770D01*
X171016338Y-67866426D01*
X171046745Y-67785316D01*
X171053500Y-67723134D01*
X171053500Y-65626866D01*
X171046745Y-65564684D01*
X171003463Y-65449229D01*
X170998280Y-65378423D01*
X171003463Y-65360770D01*
X171036120Y-65273657D01*
X171046745Y-65245316D01*
X171053500Y-65183134D01*
X171053500Y-63086866D01*
X171046745Y-63024684D01*
X171003463Y-62909229D01*
X170998280Y-62838423D01*
X171003463Y-62820770D01*
X171029817Y-62750472D01*
X171046745Y-62705316D01*
X171053500Y-62643134D01*
X171053500Y-60546866D01*
X171046745Y-60484684D01*
X170995615Y-60348295D01*
X170908261Y-60231739D01*
X170791705Y-60144385D01*
X170655316Y-60093255D01*
X170593134Y-60086500D01*
X168496866Y-60086500D01*
X168434684Y-60093255D01*
X168298295Y-60144385D01*
X168181739Y-60231739D01*
X168094385Y-60348295D01*
X168043255Y-60484684D01*
X168036500Y-60546866D01*
X168036500Y-60835500D01*
X168016498Y-60903621D01*
X167962842Y-60950114D01*
X167910500Y-60961500D01*
X164543763Y-60961500D01*
X164532579Y-60960973D01*
X164525091Y-60959299D01*
X164517168Y-60959548D01*
X164457033Y-60961438D01*
X164453075Y-60961500D01*
X164425144Y-60961500D01*
X164421229Y-60961995D01*
X164421225Y-60961995D01*
X164421167Y-60962003D01*
X164421138Y-60962006D01*
X164409296Y-60962939D01*
X164365110Y-60964327D01*
X164347744Y-60969372D01*
X164345658Y-60969978D01*
X164326306Y-60973986D01*
X164314068Y-60975532D01*
X164314066Y-60975533D01*
X164306203Y-60976526D01*
X164265086Y-60992806D01*
X164253885Y-60996641D01*
X164211406Y-61008982D01*
X164204587Y-61013015D01*
X164204582Y-61013017D01*
X164193971Y-61019293D01*
X164176221Y-61027990D01*
X164157383Y-61035448D01*
X164150967Y-61040109D01*
X164150966Y-61040110D01*
X164121625Y-61061428D01*
X164111701Y-61067947D01*
X164080460Y-61086422D01*
X164080455Y-61086426D01*
X164073637Y-61090458D01*
X164059313Y-61104782D01*
X164044281Y-61117621D01*
X164027893Y-61129528D01*
X163999712Y-61163593D01*
X163991722Y-61172373D01*
X161532747Y-63631348D01*
X161524461Y-63638888D01*
X161517982Y-63643000D01*
X161512557Y-63648777D01*
X161471357Y-63692651D01*
X161468602Y-63695493D01*
X161448865Y-63715230D01*
X161446385Y-63718427D01*
X161438682Y-63727447D01*
X161408414Y-63759679D01*
X161404595Y-63766625D01*
X161404593Y-63766628D01*
X161398652Y-63777434D01*
X161387801Y-63793953D01*
X161375386Y-63809959D01*
X161372241Y-63817228D01*
X161372238Y-63817232D01*
X161357826Y-63850537D01*
X161352609Y-63861187D01*
X161331305Y-63899940D01*
X161329334Y-63907615D01*
X161329334Y-63907616D01*
X161326267Y-63919562D01*
X161319863Y-63938266D01*
X161311819Y-63956855D01*
X161310580Y-63964678D01*
X161310577Y-63964688D01*
X161304901Y-64000524D01*
X161302495Y-64012144D01*
X161291500Y-64054970D01*
X161291500Y-64075224D01*
X161289949Y-64094934D01*
X161286780Y-64114943D01*
X161287526Y-64122835D01*
X161290941Y-64158961D01*
X161291500Y-64170819D01*
X161291500Y-73786776D01*
X161271498Y-73854897D01*
X161217842Y-73901390D01*
X161147568Y-73911494D01*
X161101364Y-73895231D01*
X161068601Y-73875855D01*
X161060990Y-73873644D01*
X161060988Y-73873643D01*
X160973142Y-73848122D01*
X160908831Y-73829438D01*
X160902426Y-73828934D01*
X160902421Y-73828933D01*
X160873958Y-73826693D01*
X160873950Y-73826693D01*
X160871502Y-73826500D01*
X160438498Y-73826500D01*
X160436050Y-73826693D01*
X160436042Y-73826693D01*
X160407579Y-73828933D01*
X160407574Y-73828934D01*
X160401169Y-73829438D01*
X160336858Y-73848122D01*
X160249012Y-73873643D01*
X160249010Y-73873644D01*
X160241399Y-73875855D01*
X160098193Y-73960547D01*
X160095511Y-73963229D01*
X160031139Y-73988502D01*
X159961516Y-73974600D01*
X159945688Y-73964428D01*
X159941807Y-73960547D01*
X159798601Y-73875855D01*
X159790990Y-73873644D01*
X159790988Y-73873643D01*
X159703142Y-73848122D01*
X159638831Y-73829438D01*
X159632426Y-73828934D01*
X159632421Y-73828933D01*
X159603958Y-73826693D01*
X159603950Y-73826693D01*
X159601502Y-73826500D01*
X159168498Y-73826500D01*
X159166050Y-73826693D01*
X159166042Y-73826693D01*
X159137579Y-73828933D01*
X159137574Y-73828934D01*
X159131169Y-73829438D01*
X159066858Y-73848122D01*
X158979012Y-73873643D01*
X158979010Y-73873644D01*
X158971399Y-73875855D01*
X158828193Y-73960547D01*
X158825511Y-73963229D01*
X158761139Y-73988502D01*
X158691516Y-73974600D01*
X158675688Y-73964428D01*
X158671807Y-73960547D01*
X158528601Y-73875855D01*
X158520990Y-73873644D01*
X158520988Y-73873643D01*
X158433142Y-73848122D01*
X158368831Y-73829438D01*
X158362426Y-73828934D01*
X158362421Y-73828933D01*
X158333958Y-73826693D01*
X158333950Y-73826693D01*
X158331502Y-73826500D01*
X157898498Y-73826500D01*
X157896050Y-73826693D01*
X157896042Y-73826693D01*
X157867579Y-73828933D01*
X157867574Y-73828934D01*
X157861169Y-73829438D01*
X157796858Y-73848122D01*
X157709012Y-73873643D01*
X157709010Y-73873644D01*
X157701399Y-73875855D01*
X157558193Y-73960547D01*
X157555253Y-73963487D01*
X157490729Y-73988821D01*
X157421106Y-73974920D01*
X157402360Y-73962871D01*
X157394677Y-73956911D01*
X157265221Y-73880352D01*
X157250790Y-73874107D01*
X157116395Y-73835061D01*
X157102294Y-73835101D01*
X157099000Y-73842370D01*
X157099000Y-76871878D01*
X156591000Y-76871878D01*
X156591000Y-75632115D01*
X156586525Y-75616876D01*
X156585135Y-75615671D01*
X156577452Y-75614000D01*
X156055116Y-75614000D01*
X156039877Y-75618475D01*
X156038672Y-75619865D01*
X156037001Y-75627548D01*
X156037001Y-76298984D01*
X152233500Y-76298984D01*
X152233500Y-75983498D01*
X152230562Y-75946169D01*
X152184145Y-75786399D01*
X152099453Y-75643193D01*
X152096771Y-75640511D01*
X152071498Y-75576139D01*
X152085400Y-75506516D01*
X152095572Y-75490688D01*
X152099453Y-75486807D01*
X152184145Y-75343601D01*
X152230562Y-75183831D01*
X152233500Y-75146502D01*
X152233500Y-75087885D01*
X156037000Y-75087885D01*
X156041475Y-75103124D01*
X156042865Y-75104329D01*
X156050548Y-75106000D01*
X156572885Y-75106000D01*
X156588124Y-75101525D01*
X156589329Y-75100135D01*
X156591000Y-75092452D01*
X156591000Y-73848122D01*
X156587027Y-73834591D01*
X156579129Y-73833456D01*
X156439210Y-73874107D01*
X156424779Y-73880352D01*
X156295322Y-73956911D01*
X156282896Y-73966551D01*
X156176551Y-74072896D01*
X156166911Y-74085322D01*
X156090352Y-74214779D01*
X156084107Y-74229210D01*
X156041731Y-74375065D01*
X156039430Y-74387667D01*
X156037193Y-74416084D01*
X156037000Y-74421014D01*
X156037000Y-75087885D01*
X152233500Y-75087885D01*
X152233500Y-74713498D01*
X152230562Y-74676169D01*
X152184145Y-74516399D01*
X152099453Y-74373193D01*
X152096771Y-74370511D01*
X152071498Y-74306139D01*
X152085400Y-74236516D01*
X152095572Y-74220688D01*
X152099453Y-74216807D01*
X152184145Y-74073601D01*
X152230562Y-73913831D01*
X152231542Y-73901390D01*
X152233307Y-73878958D01*
X152233307Y-73878950D01*
X152233500Y-73876502D01*
X152233500Y-73443498D01*
X152233307Y-73441042D01*
X152231067Y-73412579D01*
X152231066Y-73412574D01*
X152230562Y-73406169D01*
X152184145Y-73246399D01*
X152164769Y-73213637D01*
X152147311Y-73144822D01*
X152169828Y-73077491D01*
X152225173Y-73033022D01*
X152273224Y-73023500D01*
X158036233Y-73023500D01*
X158047416Y-73024027D01*
X158054909Y-73025702D01*
X158062835Y-73025453D01*
X158062836Y-73025453D01*
X158122986Y-73023562D01*
X158126945Y-73023500D01*
X158154856Y-73023500D01*
X158158791Y-73023003D01*
X158158856Y-73022995D01*
X158170693Y-73022062D01*
X158202951Y-73021048D01*
X158206970Y-73020922D01*
X158214889Y-73020673D01*
X158234343Y-73015021D01*
X158253700Y-73011013D01*
X158265930Y-73009468D01*
X158265931Y-73009468D01*
X158273797Y-73008474D01*
X158281168Y-73005555D01*
X158281170Y-73005555D01*
X158314912Y-72992196D01*
X158326142Y-72988351D01*
X158360983Y-72978229D01*
X158360984Y-72978229D01*
X158368593Y-72976018D01*
X158375412Y-72971985D01*
X158375417Y-72971983D01*
X158386028Y-72965707D01*
X158403776Y-72957012D01*
X158422617Y-72949552D01*
X158458387Y-72923564D01*
X158468307Y-72917048D01*
X158499535Y-72898580D01*
X158499538Y-72898578D01*
X158506362Y-72894542D01*
X158520683Y-72880221D01*
X158535717Y-72867380D01*
X158545694Y-72860131D01*
X158552107Y-72855472D01*
X158580298Y-72821395D01*
X158588288Y-72812616D01*
X160412253Y-70988652D01*
X160420539Y-70981112D01*
X160427018Y-70977000D01*
X160473644Y-70927348D01*
X160476398Y-70924507D01*
X160496135Y-70904770D01*
X160498615Y-70901573D01*
X160506320Y-70892551D01*
X160536586Y-70860321D01*
X160540405Y-70853375D01*
X160540407Y-70853372D01*
X160546348Y-70842566D01*
X160557199Y-70826047D01*
X160564758Y-70816301D01*
X160569614Y-70810041D01*
X160572759Y-70802772D01*
X160572762Y-70802768D01*
X160587174Y-70769463D01*
X160592391Y-70758813D01*
X160613695Y-70720060D01*
X160618733Y-70700437D01*
X160625137Y-70681734D01*
X160630033Y-70670420D01*
X160630033Y-70670419D01*
X160633181Y-70663145D01*
X160634420Y-70655322D01*
X160634423Y-70655312D01*
X160640099Y-70619476D01*
X160642505Y-70607856D01*
X160651528Y-70572711D01*
X160651528Y-70572710D01*
X160653500Y-70565030D01*
X160653500Y-70544776D01*
X160655051Y-70525065D01*
X160656980Y-70512886D01*
X160658220Y-70505057D01*
X160654059Y-70461038D01*
X160653500Y-70449181D01*
X160653500Y-62594500D01*
X160673502Y-62526379D01*
X160727158Y-62479886D01*
X160779500Y-62468500D01*
X161068134Y-62468500D01*
X161130316Y-62461745D01*
X161266705Y-62410615D01*
X161383261Y-62323261D01*
X161470615Y-62206705D01*
X161521745Y-62070316D01*
X161528500Y-62008134D01*
X161528500Y-59911866D01*
X161521745Y-59849684D01*
X161470615Y-59713295D01*
X161383261Y-59596739D01*
X161266705Y-59509385D01*
X161130316Y-59458255D01*
X161068134Y-59451500D01*
X158971866Y-59451500D01*
X158909684Y-59458255D01*
X158794229Y-59501537D01*
X158723423Y-59506720D01*
X158705772Y-59501538D01*
X158590316Y-59458255D01*
X158528134Y-59451500D01*
X156431866Y-59451500D01*
X156369684Y-59458255D01*
X156254229Y-59501537D01*
X156183423Y-59506720D01*
X156165772Y-59501538D01*
X156050316Y-59458255D01*
X155988134Y-59451500D01*
X153891866Y-59451500D01*
X153829684Y-59458255D01*
X153714229Y-59501537D01*
X153643423Y-59506720D01*
X153625772Y-59501538D01*
X153510316Y-59458255D01*
X153448134Y-59451500D01*
X151351866Y-59451500D01*
X151289684Y-59458255D01*
X151174229Y-59501537D01*
X151103423Y-59506720D01*
X151085772Y-59501538D01*
X150970316Y-59458255D01*
X150908134Y-59451500D01*
X148811866Y-59451500D01*
X148749684Y-59458255D01*
X148634229Y-59501537D01*
X148563423Y-59506720D01*
X148545772Y-59501538D01*
X148430316Y-59458255D01*
X148368134Y-59451500D01*
X146271866Y-59451500D01*
X146209684Y-59458255D01*
X146094229Y-59501537D01*
X146023423Y-59506720D01*
X146005772Y-59501538D01*
X145890316Y-59458255D01*
X145828134Y-59451500D01*
X143731866Y-59451500D01*
X143669684Y-59458255D01*
X143554229Y-59501537D01*
X143483423Y-59506720D01*
X143465772Y-59501538D01*
X143350316Y-59458255D01*
X143288134Y-59451500D01*
X141191866Y-59451500D01*
X141129684Y-59458255D01*
X141014229Y-59501537D01*
X140943423Y-59506720D01*
X140925772Y-59501538D01*
X140810316Y-59458255D01*
X140748134Y-59451500D01*
X138651866Y-59451500D01*
X138589684Y-59458255D01*
X138474229Y-59501537D01*
X138403423Y-59506720D01*
X138385772Y-59501538D01*
X138270316Y-59458255D01*
X138208134Y-59451500D01*
X136111866Y-59451500D01*
X136049684Y-59458255D01*
X135913295Y-59509385D01*
X135796739Y-59596739D01*
X135709385Y-59713295D01*
X135658255Y-59849684D01*
X135651500Y-59911866D01*
X135651500Y-61520406D01*
X135631498Y-61588527D01*
X135614595Y-61609501D01*
X134279065Y-62945030D01*
X132957747Y-64266348D01*
X132949461Y-64273888D01*
X132942982Y-64278000D01*
X132937557Y-64283777D01*
X132896357Y-64327651D01*
X132893602Y-64330493D01*
X132873865Y-64350230D01*
X132871385Y-64353427D01*
X132863682Y-64362447D01*
X132833414Y-64394679D01*
X132829595Y-64401625D01*
X132829593Y-64401628D01*
X132823652Y-64412434D01*
X132812801Y-64428953D01*
X132800386Y-64444959D01*
X132797241Y-64452228D01*
X132797238Y-64452232D01*
X132782826Y-64485537D01*
X132777609Y-64496187D01*
X132756305Y-64534940D01*
X132754334Y-64542615D01*
X132754334Y-64542616D01*
X132751267Y-64554562D01*
X132744863Y-64573266D01*
X132736819Y-64591855D01*
X132735580Y-64599678D01*
X132735577Y-64599688D01*
X132729901Y-64635524D01*
X132727495Y-64647144D01*
X132716500Y-64689970D01*
X132716500Y-64710224D01*
X132714949Y-64729934D01*
X132711780Y-64749943D01*
X131572500Y-64749943D01*
X131572500Y-60249690D01*
X131592502Y-60181569D01*
X131609405Y-60160595D01*
X133820595Y-57949405D01*
X133882907Y-57915379D01*
X133909690Y-57912500D01*
X170890310Y-57912500D01*
X170958431Y-57932502D01*
G37*
%TD.AperFunction*%
%TA.AperFunction,Conductor*%
G36*
X149084532Y-68450538D02*
G01*
X149141368Y-68493085D01*
X149166179Y-68559605D01*
X149166500Y-68568594D01*
X149166500Y-68796502D01*
X149166693Y-68798950D01*
X149166693Y-68798958D01*
X149168859Y-68826473D01*
X149169438Y-68833831D01*
X149215855Y-68993601D01*
X149300547Y-69136807D01*
X149303229Y-69139489D01*
X149328502Y-69203861D01*
X149314600Y-69273484D01*
X149304428Y-69289312D01*
X149300547Y-69293193D01*
X149215855Y-69436399D01*
X149213644Y-69444010D01*
X149213643Y-69444012D01*
X149209867Y-69457009D01*
X149169438Y-69596169D01*
X149168934Y-69602574D01*
X149168933Y-69602579D01*
X149167361Y-69622555D01*
X149166500Y-69633498D01*
X149166500Y-70066502D01*
X149166693Y-70068950D01*
X149166693Y-70068958D01*
X149167961Y-70085060D01*
X149169438Y-70103831D01*
X149215855Y-70263601D01*
X149300547Y-70406807D01*
X149303229Y-70409489D01*
X149328502Y-70473861D01*
X149314600Y-70543484D01*
X149304428Y-70559312D01*
X149300547Y-70563193D01*
X149215855Y-70706399D01*
X149213644Y-70714010D01*
X149213643Y-70714012D01*
X149208570Y-70731473D01*
X149169438Y-70866169D01*
X149168934Y-70872574D01*
X149168933Y-70872579D01*
X149166693Y-70901042D01*
X149166500Y-70903498D01*
X149166500Y-71336502D01*
X149169438Y-71373831D01*
X149215855Y-71533601D01*
X149300547Y-71676807D01*
X149303229Y-71679489D01*
X149328502Y-71743861D01*
X149314600Y-71813484D01*
X149304428Y-71829312D01*
X149300547Y-71833193D01*
X149215855Y-71976399D01*
X149169438Y-72136169D01*
X149166500Y-72173498D01*
X149166500Y-72606502D01*
X149169438Y-72643831D01*
X149215855Y-72803601D01*
X149300547Y-72946807D01*
X149303229Y-72949489D01*
X149328502Y-73013861D01*
X149314600Y-73083484D01*
X149304428Y-73099312D01*
X149300547Y-73103193D01*
X149215855Y-73246399D01*
X149169438Y-73406169D01*
X149168934Y-73412574D01*
X149168933Y-73412579D01*
X149166693Y-73441042D01*
X149166500Y-73443498D01*
X149166500Y-73876502D01*
X149166693Y-73878950D01*
X149166693Y-73878958D01*
X149168459Y-73901390D01*
X149169438Y-73913831D01*
X149215855Y-74073601D01*
X149300547Y-74216807D01*
X149303229Y-74219489D01*
X149328502Y-74283861D01*
X149314600Y-74353484D01*
X149304428Y-74369312D01*
X149300547Y-74373193D01*
X149215855Y-74516399D01*
X149169438Y-74676169D01*
X149166500Y-74713498D01*
X149166500Y-75146502D01*
X149169438Y-75183831D01*
X149215855Y-75343601D01*
X149300547Y-75486807D01*
X149303229Y-75489489D01*
X149328502Y-75553861D01*
X149314600Y-75623484D01*
X149304428Y-75639312D01*
X149300547Y-75643193D01*
X149215855Y-75786399D01*
X149169438Y-75946169D01*
X149166500Y-75983498D01*
X149166500Y-76416502D01*
X149169438Y-76453831D01*
X149215855Y-76613601D01*
X149300547Y-76756807D01*
X149303229Y-76759489D01*
X149328502Y-76823861D01*
X149314600Y-76893484D01*
X149304428Y-76909312D01*
X149300547Y-76913193D01*
X149215855Y-77056399D01*
X149169438Y-77216169D01*
X149166500Y-77253498D01*
X149166500Y-77686502D01*
X149169438Y-77723831D01*
X149171233Y-77730008D01*
X149212202Y-77871026D01*
X149215855Y-77883601D01*
X149300547Y-78026807D01*
X149303229Y-78029489D01*
X149328502Y-78093861D01*
X149314600Y-78163484D01*
X149304428Y-78179312D01*
X149300547Y-78183193D01*
X149215855Y-78326399D01*
X149169438Y-78486169D01*
X149166500Y-78523498D01*
X149166500Y-78956502D01*
X149169438Y-78993831D01*
X149215855Y-79153601D01*
X149300547Y-79296807D01*
X149303229Y-79299489D01*
X149328502Y-79363861D01*
X149314600Y-79433484D01*
X149304428Y-79449312D01*
X149300547Y-79453193D01*
X149215855Y-79596399D01*
X149169438Y-79756169D01*
X149166500Y-79793498D01*
X149166500Y-80226502D01*
X149169438Y-80263831D01*
X149215855Y-80423601D01*
X149300547Y-80566807D01*
X149303229Y-80569489D01*
X149328502Y-80633861D01*
X149314600Y-80703484D01*
X149304428Y-80719312D01*
X149300547Y-80723193D01*
X149215855Y-80866399D01*
X149169438Y-81026169D01*
X149168934Y-81032574D01*
X149168933Y-81032579D01*
X149166693Y-81061042D01*
X149166500Y-81063498D01*
X149166500Y-81496502D01*
X149166693Y-81498950D01*
X149166693Y-81498958D01*
X149168636Y-81523638D01*
X149169438Y-81533831D01*
X149183926Y-81583699D01*
X149209870Y-81672999D01*
X149215855Y-81693601D01*
X149300547Y-81836807D01*
X149303229Y-81839489D01*
X149328502Y-81903861D01*
X149314600Y-81973484D01*
X149304428Y-81989312D01*
X149300547Y-81993193D01*
X149215855Y-82136399D01*
X149213644Y-82144010D01*
X149213643Y-82144012D01*
X149208570Y-82161473D01*
X149169438Y-82296169D01*
X149166500Y-82333498D01*
X149166500Y-82766502D01*
X149169438Y-82803831D01*
X149174541Y-82821395D01*
X149213586Y-82955790D01*
X149215855Y-82963601D01*
X149219892Y-82970427D01*
X149296509Y-83099980D01*
X149296511Y-83099983D01*
X149300547Y-83106807D01*
X149418193Y-83224453D01*
X149425017Y-83228489D01*
X149425020Y-83228491D01*
X149526494Y-83288502D01*
X149561399Y-83309145D01*
X149569010Y-83311356D01*
X149569012Y-83311357D01*
X149621231Y-83326528D01*
X149721169Y-83355562D01*
X149727574Y-83356066D01*
X149727579Y-83356067D01*
X149756042Y-83358307D01*
X149756050Y-83358307D01*
X149758498Y-83358500D01*
X149940500Y-83358500D01*
X150008621Y-83378502D01*
X150055114Y-83432158D01*
X150066500Y-83484500D01*
X150066500Y-83579156D01*
X150046498Y-83647277D01*
X150014562Y-83681091D01*
X149883747Y-83776134D01*
X149879326Y-83781044D01*
X149879325Y-83781045D01*
X149765275Y-83907711D01*
X149755960Y-83918056D01*
X149752659Y-83923774D01*
X149676861Y-84055060D01*
X149660473Y-84083444D01*
X149601458Y-84265072D01*
X149600768Y-84271633D01*
X149600768Y-84271635D01*
X149600017Y-84278783D01*
X149581496Y-84455000D01*
X149582186Y-84461565D01*
X149597735Y-84609501D01*
X149601458Y-84644928D01*
X149660473Y-84826556D01*
X149755960Y-84991944D01*
X149760378Y-84996851D01*
X149760379Y-84996852D01*
X149863896Y-85111819D01*
X149883747Y-85133866D01*
X149971327Y-85197497D01*
X150028011Y-85238680D01*
X150038248Y-85246118D01*
X150044276Y-85248802D01*
X150044278Y-85248803D01*
X150187473Y-85312557D01*
X150212712Y-85323794D01*
X150305858Y-85343593D01*
X150393056Y-85362128D01*
X150393061Y-85362128D01*
X150399513Y-85363500D01*
X150406115Y-85363500D01*
X150412682Y-85364190D01*
X150412503Y-85365895D01*
X150472468Y-85383502D01*
X150518961Y-85437158D01*
X150529065Y-85507432D01*
X150522130Y-85531957D01*
X150522178Y-85531971D01*
X150520223Y-85538700D01*
X150519987Y-85539534D01*
X150516819Y-85546855D01*
X150515580Y-85554678D01*
X150515577Y-85554688D01*
X150509901Y-85590524D01*
X150507495Y-85602144D01*
X150499722Y-85632421D01*
X150496500Y-85644970D01*
X150496500Y-85665224D01*
X150494949Y-85684934D01*
X150491780Y-85704943D01*
X150492526Y-85712835D01*
X150495941Y-85748961D01*
X150496500Y-85760819D01*
X150496500Y-86171776D01*
X150476498Y-86239897D01*
X150422842Y-86286390D01*
X150352568Y-86296494D01*
X150306364Y-86280231D01*
X150273601Y-86260855D01*
X150265990Y-86258644D01*
X150265988Y-86258643D01*
X150168790Y-86230405D01*
X150113831Y-86214438D01*
X150107426Y-86213934D01*
X150107421Y-86213933D01*
X150078958Y-86211693D01*
X150078950Y-86211693D01*
X150076502Y-86211500D01*
X150024595Y-86211500D01*
X149956474Y-86191498D01*
X149935500Y-86174595D01*
X149093652Y-85332747D01*
X149086112Y-85324461D01*
X149082000Y-85317982D01*
X149032348Y-85271356D01*
X149029507Y-85268602D01*
X149009770Y-85248865D01*
X149006573Y-85246385D01*
X148997551Y-85238680D01*
X148965321Y-85208414D01*
X148958375Y-85204595D01*
X148958372Y-85204593D01*
X148947566Y-85198652D01*
X148931047Y-85187801D01*
X148923529Y-85181970D01*
X148915041Y-85175386D01*
X148907772Y-85172241D01*
X148907768Y-85172238D01*
X148874463Y-85157826D01*
X148863813Y-85152609D01*
X148825060Y-85131305D01*
X148815908Y-85128955D01*
X148805438Y-85126267D01*
X148786734Y-85119863D01*
X148775420Y-85114967D01*
X148775419Y-85114967D01*
X148768145Y-85111819D01*
X148760322Y-85110580D01*
X148760312Y-85110577D01*
X148724476Y-85104901D01*
X148712856Y-85102495D01*
X148677711Y-85093472D01*
X148677710Y-85093472D01*
X148670030Y-85091500D01*
X148649776Y-85091500D01*
X148630065Y-85089949D01*
X148617886Y-85088020D01*
X148610057Y-85086780D01*
X148602165Y-85087526D01*
X148566039Y-85090941D01*
X148554181Y-85091500D01*
X139379595Y-85091500D01*
X139311474Y-85071498D01*
X139290499Y-85054595D01*
X139100404Y-84864499D01*
X139066379Y-84802187D01*
X139063500Y-84775404D01*
X139063500Y-82815871D01*
X139873456Y-82815871D01*
X139914107Y-82955790D01*
X139920352Y-82970221D01*
X139996911Y-83099678D01*
X140006551Y-83112104D01*
X140112896Y-83218449D01*
X140125322Y-83228089D01*
X140254779Y-83304648D01*
X140269210Y-83310893D01*
X140415065Y-83353269D01*
X140427667Y-83355570D01*
X140456084Y-83357807D01*
X140461014Y-83358000D01*
X141127885Y-83358000D01*
X141143124Y-83353525D01*
X141144329Y-83352135D01*
X141146000Y-83344452D01*
X141146000Y-83339884D01*
X141654000Y-83339884D01*
X141658475Y-83355123D01*
X141659865Y-83356328D01*
X141667548Y-83357999D01*
X142338984Y-83357999D01*
X142343920Y-83357805D01*
X142372336Y-83355570D01*
X142384931Y-83353270D01*
X142530790Y-83310893D01*
X142545221Y-83304648D01*
X142674678Y-83228089D01*
X142687104Y-83218449D01*
X142793449Y-83112104D01*
X142803089Y-83099678D01*
X142879648Y-82970221D01*
X142885893Y-82955790D01*
X142924939Y-82821395D01*
X142924899Y-82807294D01*
X142917630Y-82804000D01*
X141672115Y-82804000D01*
X141656876Y-82808475D01*
X141655671Y-82809865D01*
X141654000Y-82817548D01*
X141654000Y-83339884D01*
X141146000Y-83339884D01*
X141146000Y-82822115D01*
X141141525Y-82806876D01*
X141140135Y-82805671D01*
X141132452Y-82804000D01*
X139888122Y-82804000D01*
X139874591Y-82807973D01*
X139873456Y-82815871D01*
X139063500Y-82815871D01*
X139063500Y-82229594D01*
X139083502Y-82161473D01*
X139100405Y-82140499D01*
X139290499Y-81950405D01*
X139352811Y-81916379D01*
X139379594Y-81913500D01*
X139827357Y-81913500D01*
X139895478Y-81933502D01*
X139941971Y-81987158D01*
X139952075Y-82057432D01*
X139935811Y-82103639D01*
X139920352Y-82129779D01*
X139914107Y-82144210D01*
X139875061Y-82278605D01*
X139875101Y-82292706D01*
X139882370Y-82296000D01*
X142911878Y-82296000D01*
X142925409Y-82292027D01*
X142926544Y-82284129D01*
X142885893Y-82144210D01*
X142879648Y-82129779D01*
X142803089Y-82000323D01*
X142797129Y-81992640D01*
X142771180Y-81926556D01*
X142785078Y-81856933D01*
X142795421Y-81840839D01*
X142799453Y-81836807D01*
X142884145Y-81693601D01*
X142890131Y-81672999D01*
X142916074Y-81583699D01*
X142930562Y-81533831D01*
X142931365Y-81523638D01*
X142933307Y-81498958D01*
X142933307Y-81498950D01*
X142933500Y-81496502D01*
X142933500Y-81063498D01*
X142933307Y-81061042D01*
X142931067Y-81032579D01*
X142931066Y-81032574D01*
X142930562Y-81026169D01*
X142884145Y-80866399D01*
X142799453Y-80723193D01*
X142796771Y-80720511D01*
X142771498Y-80656139D01*
X142785400Y-80586516D01*
X142795572Y-80570688D01*
X142799453Y-80566807D01*
X142884145Y-80423601D01*
X142930562Y-80263831D01*
X142933500Y-80226502D01*
X142933500Y-79793498D01*
X142930562Y-79756169D01*
X142884145Y-79596399D01*
X142799453Y-79453193D01*
X142796771Y-79450511D01*
X142771498Y-79386139D01*
X142785400Y-79316516D01*
X142795572Y-79300688D01*
X142799453Y-79296807D01*
X142884145Y-79153601D01*
X142930562Y-78993831D01*
X142933500Y-78956502D01*
X142933500Y-78523498D01*
X142930562Y-78486169D01*
X142884145Y-78326399D01*
X142799453Y-78183193D01*
X142796771Y-78180511D01*
X142771498Y-78116139D01*
X142785400Y-78046516D01*
X142795572Y-78030688D01*
X142799453Y-78026807D01*
X142884145Y-77883601D01*
X142887799Y-77871026D01*
X142928767Y-77730008D01*
X142930562Y-77723831D01*
X142933500Y-77686502D01*
X142933500Y-77253498D01*
X142930562Y-77216169D01*
X142884145Y-77056399D01*
X142799453Y-76913193D01*
X142796771Y-76910511D01*
X142771498Y-76846139D01*
X142785400Y-76776516D01*
X142795572Y-76760688D01*
X142799453Y-76756807D01*
X142884145Y-76613601D01*
X142930562Y-76453831D01*
X142933500Y-76416502D01*
X142933500Y-75983498D01*
X142930562Y-75946169D01*
X142884145Y-75786399D01*
X142799453Y-75643193D01*
X142796771Y-75640511D01*
X142771498Y-75576139D01*
X142785400Y-75506516D01*
X142795572Y-75490688D01*
X142799453Y-75486807D01*
X142884145Y-75343601D01*
X142930562Y-75183831D01*
X142933500Y-75146502D01*
X142933500Y-74713498D01*
X142930562Y-74676169D01*
X142884145Y-74516399D01*
X142799453Y-74373193D01*
X142796771Y-74370511D01*
X142771498Y-74306139D01*
X142785400Y-74236516D01*
X142795572Y-74220688D01*
X142799453Y-74216807D01*
X142884145Y-74073601D01*
X142930562Y-73913831D01*
X142931542Y-73901390D01*
X142933307Y-73878958D01*
X142933307Y-73878950D01*
X142933500Y-73876502D01*
X142933500Y-73443498D01*
X142933307Y-73441042D01*
X142931067Y-73412579D01*
X142931066Y-73412574D01*
X142930562Y-73406169D01*
X142884145Y-73246399D01*
X142799453Y-73103193D01*
X142796771Y-73100511D01*
X142771498Y-73036139D01*
X142785400Y-72966516D01*
X142795572Y-72950688D01*
X142799453Y-72946807D01*
X142884145Y-72803601D01*
X142930562Y-72643831D01*
X142933500Y-72606502D01*
X142933500Y-72173498D01*
X142930562Y-72136169D01*
X142884145Y-71976399D01*
X142799453Y-71833193D01*
X142796771Y-71830511D01*
X142771498Y-71766139D01*
X142785400Y-71696516D01*
X142795572Y-71680688D01*
X142799453Y-71676807D01*
X142884145Y-71533601D01*
X142930562Y-71373831D01*
X142933500Y-71336502D01*
X142933500Y-70903498D01*
X142933307Y-70901042D01*
X142931067Y-70872579D01*
X142931066Y-70872574D01*
X142930562Y-70866169D01*
X142891430Y-70731473D01*
X142886357Y-70714012D01*
X142886356Y-70714010D01*
X142884145Y-70706399D01*
X142864769Y-70673637D01*
X142847311Y-70604822D01*
X142869828Y-70537491D01*
X142925173Y-70493022D01*
X142973224Y-70483500D01*
X146606233Y-70483500D01*
X146617416Y-70484027D01*
X146624909Y-70485702D01*
X146632835Y-70485453D01*
X146632836Y-70485453D01*
X146692986Y-70483562D01*
X146696945Y-70483500D01*
X146724856Y-70483500D01*
X146728791Y-70483003D01*
X146728856Y-70482995D01*
X146740693Y-70482062D01*
X146772951Y-70481048D01*
X146776970Y-70480922D01*
X146784889Y-70480673D01*
X146804343Y-70475021D01*
X146823700Y-70471013D01*
X146835930Y-70469468D01*
X146835931Y-70469468D01*
X146843797Y-70468474D01*
X146851168Y-70465555D01*
X146851170Y-70465555D01*
X146884912Y-70452196D01*
X146896142Y-70448351D01*
X146930983Y-70438229D01*
X146930984Y-70438229D01*
X146938593Y-70436018D01*
X146945412Y-70431985D01*
X146945417Y-70431983D01*
X146956028Y-70425707D01*
X146973776Y-70417012D01*
X146992617Y-70409552D01*
X147028387Y-70383564D01*
X147038307Y-70377048D01*
X147069535Y-70358580D01*
X147069538Y-70358578D01*
X147076362Y-70354542D01*
X147090683Y-70340221D01*
X147105717Y-70327380D01*
X147115694Y-70320131D01*
X147122107Y-70315472D01*
X147150298Y-70281395D01*
X147158288Y-70272616D01*
X148951405Y-68479499D01*
X149013717Y-68445473D01*
X149084532Y-68450538D01*
G37*
%TD.AperFunction*%
%TA.AperFunction,Conductor*%
G36*
X153714228Y-62418462D02*
G01*
X153829684Y-62461745D01*
X153891866Y-62468500D01*
X154269069Y-62468500D01*
X154337190Y-62488502D01*
X154378535Y-62532785D01*
X154380448Y-62537617D01*
X154385109Y-62544032D01*
X154406436Y-62573387D01*
X154412952Y-62583307D01*
X154430177Y-62612432D01*
X154435458Y-62621362D01*
X154449779Y-62635683D01*
X154462619Y-62650716D01*
X154474528Y-62667107D01*
X154480634Y-62672158D01*
X154508605Y-62695298D01*
X154517384Y-62703288D01*
X156174595Y-64360500D01*
X156208621Y-64422812D01*
X156211500Y-64449595D01*
X156211500Y-68900405D01*
X156191498Y-68968526D01*
X156174595Y-68989501D01*
X155984499Y-69179596D01*
X155922187Y-69213621D01*
X155895404Y-69216500D01*
X155653641Y-69216500D01*
X155585520Y-69196498D01*
X155539027Y-69142842D01*
X155528923Y-69072568D01*
X155534048Y-69050832D01*
X155555491Y-68986186D01*
X155558358Y-68972810D01*
X155567672Y-68881903D01*
X155568000Y-68875487D01*
X155568000Y-68852115D01*
X155563525Y-68836876D01*
X155562135Y-68835671D01*
X155554452Y-68834000D01*
X154482000Y-68834000D01*
X154413879Y-68813998D01*
X154367386Y-68760342D01*
X154356000Y-68708000D01*
X154356000Y-68307885D01*
X154864000Y-68307885D01*
X154868475Y-68323124D01*
X154869865Y-68324329D01*
X154877548Y-68326000D01*
X155549885Y-68326000D01*
X155565124Y-68321525D01*
X155566329Y-68320135D01*
X155568000Y-68312452D01*
X155568000Y-68284562D01*
X155567663Y-68278047D01*
X155558106Y-68185943D01*
X155555212Y-68172544D01*
X155505619Y-68023893D01*
X155499445Y-68010714D01*
X155417212Y-67877827D01*
X155408176Y-67866426D01*
X155297571Y-67756014D01*
X155286160Y-67747002D01*
X155153120Y-67664996D01*
X155139939Y-67658849D01*
X154991186Y-67609509D01*
X154977810Y-67606642D01*
X154886903Y-67597328D01*
X154881874Y-67597071D01*
X154866876Y-67601475D01*
X154865671Y-67602865D01*
X154864000Y-67610548D01*
X154864000Y-68307885D01*
X154356000Y-68307885D01*
X154356000Y-67615115D01*
X154351525Y-67599876D01*
X154350135Y-67598671D01*
X154342452Y-67597000D01*
X154339562Y-67597000D01*
X154333047Y-67597337D01*
X154240943Y-67606894D01*
X154227544Y-67609788D01*
X154078893Y-67659381D01*
X154065714Y-67665555D01*
X153932827Y-67747788D01*
X153915689Y-67761371D01*
X153914159Y-67759441D01*
X153862120Y-67787903D01*
X153791301Y-67782887D01*
X153754383Y-67759201D01*
X153753628Y-67760157D01*
X153747882Y-67755619D01*
X153742702Y-67750448D01*
X153698391Y-67723134D01*
X153603331Y-67664538D01*
X153603329Y-67664537D01*
X153597101Y-67660698D01*
X153434757Y-67606851D01*
X153427920Y-67606151D01*
X153427918Y-67606150D01*
X153386599Y-67601917D01*
X153333732Y-67596500D01*
X152786268Y-67596500D01*
X152783022Y-67596837D01*
X152783018Y-67596837D01*
X152753730Y-67599876D01*
X152683981Y-67607113D01*
X152675963Y-67609788D01*
X152528676Y-67658927D01*
X152528674Y-67658928D01*
X152521732Y-67661244D01*
X152376287Y-67751248D01*
X152371114Y-67756430D01*
X152366944Y-67760607D01*
X152255448Y-67872298D01*
X152251606Y-67878530D01*
X152251605Y-67878532D01*
X152246621Y-67886617D01*
X152193848Y-67934110D01*
X152139362Y-67946500D01*
X152074950Y-67946500D01*
X152006829Y-67926498D01*
X151993729Y-67915941D01*
X151993675Y-67916011D01*
X151987415Y-67911155D01*
X151981807Y-67905547D01*
X151974983Y-67901511D01*
X151974980Y-67901509D01*
X151845427Y-67824892D01*
X151845428Y-67824892D01*
X151838601Y-67820855D01*
X151830990Y-67818644D01*
X151830988Y-67818643D01*
X151741741Y-67792715D01*
X151678831Y-67774438D01*
X151672426Y-67773934D01*
X151672421Y-67773933D01*
X151643958Y-67771693D01*
X151643950Y-67771693D01*
X151641502Y-67771500D01*
X151144494Y-67771500D01*
X151093245Y-67760607D01*
X150988319Y-67713891D01*
X150988318Y-67713891D01*
X150982288Y-67711206D01*
X150888888Y-67691353D01*
X150801944Y-67672872D01*
X150801939Y-67672872D01*
X150795487Y-67671500D01*
X150604513Y-67671500D01*
X150598061Y-67672872D01*
X150598056Y-67672872D01*
X150511112Y-67691353D01*
X150417712Y-67711206D01*
X150411682Y-67713891D01*
X150411681Y-67713891D01*
X150306755Y-67760607D01*
X150255506Y-67771500D01*
X149963594Y-67771500D01*
X149895473Y-67751498D01*
X149848980Y-67697842D01*
X149838876Y-67627568D01*
X149868370Y-67562988D01*
X149874499Y-67556405D01*
X152792247Y-64638657D01*
X152800537Y-64631113D01*
X152807018Y-64627000D01*
X152853659Y-64577332D01*
X152856413Y-64574491D01*
X152876135Y-64554769D01*
X152878612Y-64551576D01*
X152886317Y-64542555D01*
X152893468Y-64534940D01*
X152916586Y-64510321D01*
X152924350Y-64496198D01*
X152926346Y-64492568D01*
X152937202Y-64476041D01*
X152944757Y-64466302D01*
X152944758Y-64466300D01*
X152949614Y-64460040D01*
X152967174Y-64419460D01*
X152972391Y-64408812D01*
X152989875Y-64377009D01*
X152989876Y-64377007D01*
X152993695Y-64370060D01*
X152998733Y-64350437D01*
X153005137Y-64331734D01*
X153010033Y-64320420D01*
X153010033Y-64320419D01*
X153013181Y-64313145D01*
X153014420Y-64305322D01*
X153014423Y-64305312D01*
X153020099Y-64269476D01*
X153022505Y-64257856D01*
X153031528Y-64222711D01*
X153031528Y-64222710D01*
X153033500Y-64215030D01*
X153033500Y-64194776D01*
X153035051Y-64175065D01*
X153036980Y-64162886D01*
X153038220Y-64155057D01*
X153034059Y-64111038D01*
X153033500Y-64099181D01*
X153033500Y-62594500D01*
X153053502Y-62526379D01*
X153107158Y-62479886D01*
X153159500Y-62468500D01*
X153448134Y-62468500D01*
X153510316Y-62461745D01*
X153625771Y-62418463D01*
X153696577Y-62413280D01*
X153714228Y-62418462D01*
G37*
%TD.AperFunction*%
%TD*%
M02*
